<svg width="1024" height="935" viewBox="0 0 1024 935" fill="none" xmlns="http://www.w3.org/2000/svg">
<g clip-path="url(#clip0_1_23)">
<g clip-path="url(#clip1_1_23)">
<rect width="1024" height="935" fill="#F5F5F5"/>
<g clip-path="url(#clip2_1_23)">
<path d="M35.0307 617.82C-25.4333 646.313 -444.214 924.636 -444.214 924.636L-361.761 1031.64L-21.6897 788.327C-15.9875 784.04 -7.56722 793.354 -13.915 798.417L-336.594 1065.36L-254.867 1171.43L153.71 803.369L35.0235 617.782L35.0307 617.82Z" fill="#875EFF"/>
<path d="M310.064 577.318C314.991 582.849 323.463 583.353 329.017 578.43C334.548 573.504 335.053 565.032 330.13 559.477C328.206 557.314 325.756 555.943 323.135 555.325L328.568 549.659C345.165 529.71 343.393 500.307 324.535 482.484C305.893 464.858 276.834 464.543 257.81 481.732L254.311 484.899C253.816 482.837 252.812 480.866 251.312 479.17C246.385 473.639 237.903 473.121 232.359 478.058C226.828 482.984 226.323 491.456 231.246 497.011C232.812 498.764 234.71 500.003 236.771 500.73L181.377 550.746L257.965 623.123L307.151 571.951C307.675 573.884 308.637 575.716 310.04 577.315L310.064 577.318Z" fill="#FF4F00"/>
<path d="M281.451 555.905C273.724 565.439 259.727 566.919 250.193 559.192C240.658 551.466 239.179 537.469 246.905 527.934" fill="#875EFF"/>
<path d="M554.975 575.636C567.99 556.13 562.741 529.728 543.236 516.713C523.73 503.698 497.379 508.929 484.374 528.448L507.481 584.036L554.975 575.636Z" fill="#FF4F00"/>
<path d="M293.85 319.419C314.952 309.184 323.767 283.782 313.542 262.693C303.307 241.591 277.905 232.777 256.816 243.001L243.866 290.695L293.864 319.409L293.85 319.419Z" fill="#FF4F00"/>
<path d="M154.525 819.508L-16.987 631.786L137.473 522.289C150.052 531.379 169.182 544.491 181.705 555.874C183.393 557.425 194.873 571.35 196.569 572.938C217.271 592.321 229.668 594.497 244.715 614.914C247.816 619.107 305.394 664.836 308.319 668.994L154.511 819.519L154.525 819.508Z" fill="#F1E3FD"/>
<path d="M156.233 619.262C136.931 594.212 122.242 568.331 112.39 541.938C98.0154 503.443 94.1181 464.743 100.808 426.955C114.329 350.562 169.735 285.229 256.827 243.015L293.874 319.422C231.952 349.446 193.081 392.884 184.436 441.741C177.306 481.991 190.722 524.891 223.355 567.243C230.187 576.108 237.857 584.95 246.369 593.743C276.271 624.647 306.265 638.307 338.008 635.482C376.965 632.03 413.753 604.477 437.756 581.951C466.266 555.202 484.235 528.685 484.401 528.428L555.002 575.615C554.099 576.975 532.507 609.114 497.518 642.314C448.046 689.246 397.016 715.402 345.868 720.035C287.65 725.314 233.641 702.693 185.348 652.79C174.711 641.796 164.996 630.607 156.236 619.239L156.233 619.262Z" fill="#F1E3FD"/>
<path d="M823.41 443.736L427.774 6.26836L223.835 190.706L619.471 628.174L823.41 443.736Z" fill="#FF4F00"/>
<path d="M660.625 362.474C651.757 362.039 644.212 368.86 643.754 377.725L642.071 411.354C641.738 417.851 633.724 420.723 629.361 415.895L395.391 157.216C389.439 150.631 379.271 150.125 372.687 156.077C366.103 162.03 365.597 172.197 371.549 178.781L605.519 437.461C609.882 442.289 606.232 449.99 599.736 449.657L566.107 447.975C557.238 447.54 549.694 454.361 549.235 463.226C548.8 472.095 555.621 479.64 564.487 480.098L654.497 484.607C663.365 485.042 670.91 478.221 671.368 469.355L675.877 379.345C676.312 370.477 669.491 362.932 660.625 362.474Z" fill="#875EFF"/>
<path d="M355.186 521.916L287.649 454.203C283.608 450.152 277.048 450.143 272.997 454.184L268.091 459.077C264.04 463.118 264.031 469.678 268.072 473.729L335.609 541.442C339.65 545.493 346.209 545.502 350.261 541.461L355.167 536.568C359.218 532.527 359.227 525.967 355.186 521.916Z" fill="#875EFF"/>
<path d="M281.549 462.175C299.739 444.042 329.185 444.08 347.331 462.26C365.463 480.449 365.425 509.896 347.246 528.042" fill="#875EFF"/>
</g>
</g>
</g>
<defs>
<clipPath id="clip0_1_23">
<rect width="1024" height="935" fill="white"/>
</clipPath>
<clipPath id="clip1_1_23">
<rect width="1024" height="935" fill="white"/>
</clipPath>
<clipPath id="clip2_1_23">
<rect width="609.638" height="1298.34" fill="white" transform="translate(464.546 -22.058) rotate(52.3845)"/>
</clipPath>
</defs>
</svg>
