<svg xmlns="http://www.w3.org/2000/svg" version="1.1" xmlns:xlink="http://www.w3.org/1999/xlink" width="480" height="481"><svg width="480" height="481" viewBox="0 0 480 481" fill="none" xmlns="http://www.w3.org/2000/svg">
<rect y="0.45459" width="479.674" height="479.674" rx="75" fill="#739FDB"></rect>
<path d="M376.367 126.905L337.304 91.0981H264.867L204.566 146.54V134.99L156.401 91.0981H103.306V345.593L151.471 389.485H204.566V312.867L288.002 389.485H364.61V321.722L264.109 229.704L376.367 126.905ZM148.816 337.893H113.546V101.494H148.816V211.608L269.039 101.494H320.996L148.816 258.965V337.893ZM162.849 260.505L334.649 103.034L361.197 126.905L214.806 260.505L344.131 379.089H292.173L162.849 260.505ZM354.371 326.342V374.084L230.355 260.505L256.144 237.019L354.371 326.342ZM194.326 372.544L159.056 340.588V271.285L194.326 303.626V372.544ZM194.326 139.995V155.781L159.056 188.122V108.039L194.326 139.995ZM121.889 348.288H151.85L185.604 379.089H156.022L121.889 348.288Z" fill="#243346"></path>
</svg><style>@media (prefers-color-scheme: light) { :root { filter: none; } }
@media (prefers-color-scheme: dark) { :root { filter: none; } }
</style></svg>