<?xml version="1.0" encoding="UTF-8"?>
<svg id="Layer_1" data-name="Layer 1" xmlns="http://www.w3.org/2000/svg" viewBox="0 0 1000.28 797.94">
  <defs>
    <style>
      .cls-1 {
        fill: #ff4f00;
      }

      .cls-2 {
        fill: #f1e3fd;
      }

      .cls-3 {
        fill: #875eff;
      }
    </style>
  </defs>
  <path class="cls-2" d="M788.4,761.68l2.15,36.11h-19.29s-1.98-7.08-1.98-7.08c0,0-5.09,6.61-13.54,6.99-8.45.39-54.9,0-54.9,0,0,0-1.73-11.02,4.77-16.2,5.76-4.6,12.1-3.75,25.34-6.01,13.24-2.25,19.44-15.33,19.44-15.33l38.02,1.51Z"/>
  <path class="cls-1" d="M946.67,383.92l-1.4,56.4-64.77-6.46,4.09-28.91c.47.22.96.4,1.48.53,4.61,1.17,9.3-1.62,10.47-6.23l-10.76-2.73,2.46-17.44c2.17-15.38,15.95-26.41,31.44-25.16,15.53,1.25,27.38,14.42,26.99,30Z"/>
  <rect class="cls-1" x="875.79" y="377.67" width="22.62" height="12.44" rx="6.22" ry="6.22" transform="translate(49.45 -98.45) rotate(6.53)"/>
  <path class="cls-3" d="M946.81,559.22s6.93,63.08-28.79,63.08c-28.72,0-109.65,1.52-109.65,1.52l-.68,141.39-93.28-4.87,25.94-166.65c2.13-19.9,18.31-35.36,38.28-36.57l80.77-4.91,56.05-15.71,31.35,22.71Z"/>
  <path class="cls-2" d="M881.76,424.98l-22.35,127.24c45.49-3.26,87.41,7.01,87.41,7.01l-1.34-127.12-63.72-7.12Z"/>
  <path class="cls-2" d="M269.55,456.27c9.8-9.73,9.86-25.56.13-35.36-9.73-9.8-25.56-9.86-35.36-.13l-5.23,37.09,40.46-1.61Z"/>
  <g>
    <rect class="cls-2" x="320.52" y="494.76" width="19.69" height="157.39"/>
    <rect class="cls-2" x="296.96" y="666.22" width="19.69" height="131.72"/>
    <rect class="cls-2" x="438.59" y="666.22" width="19.69" height="131.72"/>
    <rect class="cls-2" x="418.9" y="494.76" width="19.69" height="157.39"/>
    <rect class="cls-1" x="307.19" y="480.42" width="141.24" height="90.48" rx="22.13" ry="22.13"/>
    <path class="cls-1" d="M321.84,622.45h111.95c13.73,0,24.87,11.15,24.87,24.87v17.29h-161.7v-17.29c0-13.73,11.15-24.87,24.87-24.87Z"/>
    <rect class="cls-2" x="296.96" y="652.14" width="161.7" height="24.95"/>
  </g>
  <path class="cls-1" d="M219.01,761.68l-2.15,36.11h19.29l1.98-7.08s4.57,6.61,13.02,6.99,54.9,0,54.9,0c0,0,2.26-11.02-4.24-16.2-5.76-4.6-12.1-3.75-25.34-6.01s-19.44-15.33-19.44-15.33l-38.02,1.51Z"/>
  <g>
    <rect class="cls-2" x="540.39" y="494.76" width="19.69" height="157.39"/>
    <rect class="cls-2" x="516.83" y="666.22" width="19.69" height="131.72"/>
    <rect class="cls-2" x="658.46" y="666.22" width="19.69" height="131.72"/>
    <rect class="cls-2" x="638.77" y="494.76" width="19.69" height="157.39"/>
    <rect class="cls-1" x="527.06" y="480.42" width="141.24" height="90.48" rx="22.13" ry="22.13"/>
    <path class="cls-1" d="M541.7,622.45h111.95c13.73,0,24.87,11.15,24.87,24.87v17.29h-161.7v-17.29c0-13.73,11.15-24.87,24.87-24.87Z"/>
    <rect class="cls-2" x="516.83" y="652.14" width="161.7" height="24.95"/>
  </g>
  <path class="cls-2" d="M60.74,383.92l1.4,56.4,64.77-6.46-4.09-28.91c-.47.22-.96.4-1.48.53-4.61,1.17-9.3-1.62-10.47-6.23l10.76-2.73-2.46-17.44c-2.17-15.38-15.95-26.41-31.44-25.16-15.53,1.25-27.38,14.42-26.99,30Z"/>
  <rect class="cls-2" x="109" y="377.67" width="22.62" height="12.44" rx="6.22" ry="6.22" transform="translate(283.53 751.6) rotate(173.47)"/>
  <path class="cls-1" d="M103.21,372.19c-16.55,18.4-16.25,14.83-25.48,14.98l-17.12,30.5-7.89-33.77c-3.37-14.44,2.97-29.4,15.69-37.01h0c15.31-9.16,44.25-5.69,53.25,16.64,1.11,2.76-.71,5.83-3.64,6.3l-14.82,2.36Z"/>
  <path class="cls-3" d="M60.6,559.22s-6.93,63.08,28.79,63.08c28.72,0,109.65,1.52,109.65,1.52l.68,141.39,93.28-4.87-25.94-166.65c-2.13-19.9-18.31-35.36-38.28-36.57l-97.55-5.92-70.63,8.03Z"/>
  <rect class="cls-1" x="685.25" y="0" width="188.74" height="334.18" rx="31.31" ry="31.31"/>
  <g>
    <path class="cls-3" d="M820.3,273.7h-4.17c3.93,0,7.11-3.18,7.11-7.11h0c0-16.26-20.14-16.95-20.14-55.4,0-10.71-4.22-72.53-4.22-93.71h-38.53c0,21.18-4.22,83-4.22,93.71,0,38.45-20.14,39.14-20.14,55.4h0c0,3.93,3.18,7.11,7.11,7.11h-4.17c-3.93,0-7.11,3.18-7.11,7.11s3.18,7.11,7.11,7.11h81.36c3.93,0,7.11-3.18,7.11-7.11s-3.18-7.11-7.11-7.11Z"/>
    <path class="cls-2" d="M808.87,63.66l-8.67,2.16c-.89.22-1.84.06-2.61-.44l-14.03-9.18c2.46-1.38,4.12-4.01,4.12-7.03,0-4.46-3.61-8.07-8.07-8.07s-8.07,3.61-8.07,8.07c0,3.02,1.66,5.65,4.12,7.03l-14.03,9.18c-.77.5-1.72.66-2.61.44l-8.67-2.16c-2.43-.61-4.63,1.61-4,4.04l9.93,38.35h0-.86c-3.93,0-7.11,3.18-7.11,7.11h0c0,3.93,3.18,7.11,7.11,7.11h48.36c3.93,0,7.11-3.18,7.11-7.11h0c0-3.93-3.18-7.11-7.11-7.11h-.86s9.93-38.35,9.93-38.35c.63-2.43-1.57-4.64-4-4.04Z"/>
  </g>
  <g>
    <rect class="cls-1" x="137.99" y="181.61" width="216.29" height="151.42" rx="19.46" ry="19.46"/>
    <polygon class="cls-1" points="183.18 327.95 183.18 363.35 215.53 333.03 183.18 327.95"/>
  </g>
  <g>
    <path class="cls-2" d="M642.2,372.12l-1.4,56.4-64.77-6.46,4.09-28.91c.47.22.95.43,1.48.53,9.31,1.8,12.74-4.41,12.97-7.06l-13.26-1.9,2.46-17.44c2.17-15.38,15.95-26.41,31.43-25.16,15.54,1.25,27.39,14.42,27,30Z"/>
    <rect class="cls-2" x="571.31" y="365.87" width="22.62" height="12.44" rx="6.22" ry="6.22" transform="translate(46.12 -63.88) rotate(6.53)"/>
    <path class="cls-2" d="M377.76,364.74c-6.51-12.18-1.91-27.32,10.27-33.83,12.18-6.51,27.32-1.91,33.83,10.27l-2.96,26.36-41.14-2.8Z"/>
    <path class="cls-1" d="M651.89,521.55h-118.78v-40.1c-18.11-.02-36.63-2.46-55.65-10.36-37.6-15.62-69.27-49.41-99.7-106.35l44.1-23.56c36.17,67.7,65.23,79.77,74.78,83.74,22.55,9.37,46.5,6.76,74.23,3.73,17.87-1.95,36.35-3.97,56.42-3.06,56.74,2.57,76.27,30.43,75.74,53.51-.29,12.6-6.6,24.34-17.32,32.21-9.13,6.7-20.83,10.24-33.83,10.24Z"/>
    <polygon class="cls-1" points="668.3 566.8 527.06 566.04 543.96 432.08 659.71 450.12 668.3 566.8"/>
    <circle class="cls-2" cx="619.44" cy="381.85" r="6.73"/>
    <rect class="cls-1" x="573.8" y="410.79" width="68.41" height="17.29"/>
    <path class="cls-3" d="M530.04,566.08l-10.65,38.06c-3.33,11.89-2.39,24.45,2.68,35.81l4.53,10.14c3.06,6.86,4.64,14.2,4.64,21.62v93.81h68v-143.06h3.84v-56.37h-73.04Z"/>
    <path class="cls-3" d="M667.61,566.08l10.65,38.06c3.33,11.89,2.39,24.45-2.68,35.81l-4.53,10.14c-3.06,6.86-4.64,14.2-4.64,21.62v93.81h-68v-143.06s-3.84,0-3.84,0v-56.37h73.04Z"/>
    <circle class="cls-3" cx="587.84" cy="347.87" r="11.68"/>
    <circle class="cls-3" cx="609.12" cy="352.05" r="15.48"/>
    <circle class="cls-3" cx="633.13" cy="363.35" r="15.48"/>
    <circle class="cls-3" cx="626.73" cy="374.55" r="15.48"/>
    <circle class="cls-3" cx="621.59" cy="393.34" r="11.49"/>
    <circle class="cls-3" cx="634.2" cy="407.95" r="11.49"/>
    <circle class="cls-3" cx="650.31" cy="419.44" r="11.49"/>
    <circle class="cls-3" cx="660.1" cy="408.56" r="11.49"/>
    <circle class="cls-3" cx="648.61" cy="403.98" r="11.49"/>
    <circle class="cls-3" cx="663.38" cy="429.04" r="11.49"/>
    <circle class="cls-3" cx="640.56" cy="390.43" r="14.4"/>
    <circle class="cls-3" cx="650.31" cy="372.09" r="11.55"/>
    <circle class="cls-3" cx="654.96" cy="390.43" r="11.55"/>
    <circle class="cls-3" cx="642.21" cy="352.96" r="13.96"/>
    <circle class="cls-3" cx="631.52" cy="338.99" r="11.55"/>
    <circle class="cls-3" cx="626.73" cy="347.87" r="11.55"/>
    <circle class="cls-3" cx="617.6" cy="334.64" r="11.55"/>
    <circle class="cls-3" cx="599.39" cy="336.32" r="11.55"/>
    <path class="cls-2" d="M533.11,521.55c-13.81,0-25-11.19-25-25s11.19-25,25-25l15.42,27.89-15.42,22.11Z"/>
    <path class="cls-1" d="M651.89,521.55h-118.78v-50h92.1l2.08-45.96c56.74,2.57,76.27,30.43,75.74,53.51-.29,12.6-6.6,24.34-17.32,32.21-9.13,6.7-20.83,10.24-33.83,10.24Z"/>
    <path class="cls-3" d="M581.83,763.3c0,5.79,2.7,9.18,5.69,17.44,1.96,5.39.51,17.06.51,17.06h-51.01s-2.84-12.03,4.95-22.44c5.33-7.13,4.62-12.05,4.62-12.05h35.24Z"/>
    <path class="cls-3" d="M615.09,763.3c0,5.79-2.7,9.18-5.69,17.44-1.96,5.39-.51,17.06-.51,17.06h51.01s2.84-12.03-4.95-22.44c-5.33-7.13-4.62-12.05-4.62-12.05h-35.24Z"/>
  </g>
  <rect class="cls-2" x="191.72" y="513.15" width="632.4" height="32.23"/>
  <polygon class="cls-2" points="257.27 797.94 229.09 797.94 253.04 523.01 293 523.01 257.27 797.94"/>
  <polygon class="cls-2" points="755.55 797.94 783.73 797.94 759.78 523.01 719.82 523.01 755.55 797.94"/>
  <g>
    <path class="cls-1" d="M26.32,622.45h142.37c12.71,0,23.03,10.32,23.03,23.03v6.66H26.32v-29.69h0Z"/>
    <rect class="cls-2" x="26.32" y="652.14" width="165.4" height="24.95"/>
    <polygon class="cls-2" points="34.35 797.94 13.16 797.94 26.32 667.77 47.5 667.77 34.35 797.94"/>
    <polygon class="cls-2" points="202.31 797.94 181.12 797.94 170.53 667.77 191.72 667.77 202.31 797.94"/>
    <path class="cls-1" d="M48.63,570.9h-17.36l-15.29-90.48h21.41c5.84,0,10.84,4.22,11.81,9.98l11.24,66.53c1.24,7.31-4.4,13.97-11.81,13.97Z"/>
    <path class="cls-2" d="M47.5,653.18h-21.19L.1,489.49c-.76-4.76,2.91-9.07,7.74-9.07h12l27.67,172.77Z"/>
  </g>
  <g>
    <path class="cls-1" d="M808.56,622.45h165.4v6.66c0,12.71-10.32,23.03-23.03,23.03h-142.37v-29.69h0Z" transform="translate(1782.53 1274.6) rotate(-180)"/>
    <rect class="cls-2" x="808.56" y="652.14" width="165.4" height="24.95" transform="translate(1782.53 1329.24) rotate(-180)"/>
    <polygon class="cls-2" points="965.93 797.94 987.12 797.94 973.96 667.77 952.77 667.77 965.93 797.94"/>
    <polygon class="cls-2" points="797.97 797.94 819.16 797.94 829.75 667.77 808.56 667.77 797.97 797.94"/>
    <path class="cls-1" d="M951.65,570.9h17.36s15.29-90.48,15.29-90.48h-21.41c-5.84,0-10.84,4.22-11.81,9.98l-11.24,66.53c-1.24,7.31,4.4,13.97,11.81,13.97Z"/>
    <path class="cls-2" d="M952.77,653.18h21.19s26.22-163.69,26.22-163.69c.76-4.76-2.91-9.07-7.74-9.07h-12s-27.67,172.77-27.67,172.77Z"/>
  </g>
  <polygon class="cls-3" points="125.65 424.98 166.1 553.92 60.6 559.22 61.93 432.1 125.65 424.98"/>
  <path class="cls-3" d="M186.76,514.1c-8.27,0-16.61-1.72-24.49-5.25l-83.36-33.69,18.74-46.36,84.4,34.12.55.25c3.53,1.63,7.64,1.03,10.55-1.5l41.17-40.87,35.23,35.48-42.21,41.89c-11.32,10.47-25.84,15.94-40.57,15.94Z"/>
  <path class="cls-1" d="M83.23,387.37c1.45,19.89,16.01,57.11,5.68,72.57-9.03,13.51-19.59,16.9-28.65,16.88,0,0-31.46,3.47-31.46-21.67,0-15.66,7.73-36.25,11.35-54,6.79-33.21,16.39-51.29,34.18-56.94l-16.02,47.01,24.93-3.84Z"/>
  <circle class="cls-2" cx="82.91" cy="390.03" r="7.83"/>
  <path class="cls-1" d="M742.79,509.54c-13.79-.6-24.49-12.26-23.9-26.05.6-13.79,12.26-24.49,26.05-23.9l12.13,24.96-14.28,24.99Z"/>
  <path class="cls-2" d="M825.43,513.04c-1.12,0-2.24-.02-3.36-.07l-79.28-3.42,2.16-49.95,79.28,3.42c4.42.19,8.9-.65,12.96-2.42l71.92-31.51,20.06,45.8-71.92,31.51c-9.98,4.37-20.92,6.65-31.82,6.65Z"/>
  <path class="cls-2" d="M941.01,365.84l-21.99,5.44c-2.89.71-4.51,3.79-3.46,6.58l4.29,11.44c.52,1.38,1.62,2.46,3.01,2.95l23.41,8.23s6.24-25.26-5.25-34.63Z"/>
  <circle class="cls-1" cx="924.5" cy="390.03" r="7.83"/>
  <rect class="cls-2" x="210.81" y="38.59" width="205.38" height="251.84" rx="28.35" ry="28.35"/>
  <g>
    <path class="cls-1" d="M370.43,153.74c10.9-28.53-3.39-60.5-31.93-71.4-28.53-10.9-60.5,3.39-71.4,31.93-4.96,12.97-4.7,26.66-.27,38.75,6.89,18.65,4.22,27.99-3.61,48.48-1.14,2.98.35,6.31,3.33,7.45l41.16,15.72c2.98,1.14,6.31-.35,7.45-3.33,7.83-20.49,12.06-29.23,29.63-38.54,11.36-6.06,20.68-16.09,25.63-29.06Z"/>
    <path class="cls-2" d="M284.43,127.23l5.51,1.16c4.59.97,9.29-1.13,11.63-5.2l2.8-4.88c1.52-2.65,5.58-1.1,4.95,1.89l-1.16,5.51c-.97,4.59,1.13,9.29,5.2,11.63l4.88,2.81c2.65,1.52,1.1,5.58-1.89,4.95l-5.51-1.16c-4.59-.97-9.29,1.13-11.63,5.2l-2.81,4.88c-1.52,2.65-5.58,1.1-4.95-1.89l1.16-5.51c.97-4.59-1.13-9.29-5.2-11.63l-4.88-2.81c-2.65-1.52-1.1-5.58,1.89-4.95Z"/>
    <path class="cls-2" d="M355.44,137.29l-2.86-1.65c-2.39-1.37-3.62-4.13-3.05-6.82l.68-3.23c.37-1.75-2.01-2.66-2.9-1.11l-1.65,2.86c-1.37,2.39-4.13,3.62-6.82,3.05l-3.23-.68c-1.75-.37-2.66,2.01-1.11,2.9l2.86,1.65c2.39,1.37,3.62,4.13,3.05,6.82l-.68,3.23c-.37,1.75,2.01,2.66,2.9,1.11l1.65-2.86c1.37-2.39,4.13-3.62,6.82-3.05l3.23.68c1.75.37,2.66-2.01,1.11-2.9Z"/>
    <path class="cls-2" d="M323.04,103.17l2.37.5c1.98.42,4-.49,5.01-2.24l1.21-2.1c.66-1.14,2.41-.47,2.13.82l-.5,2.37c-.42,1.98.49,4,2.24,5.01l2.1,1.21c1.14.66.47,2.41-.82,2.13l-2.37-.5c-1.98-.42-4,.49-5.01,2.24l-1.21,2.1c-.66,1.14-2.41.47-2.13-.82l.5-2.37c.42-1.98-.49-4-2.24-5.01l-2.1-1.21c-1.14-.66-.47-2.41.82-2.13Z"/>
    <path class="cls-3" d="M302.52,241.22c-.57,1.49-1.69,2.61-3.04,3.21-1.34.6-2.93.69-4.41.12l-5.02-1.92c-2.36,6.16-9.26,9.26-15.43,6.9-6.16-2.35-9.25-9.26-6.9-15.43l-5.02-1.92c-2.97-1.14-4.47-4.47-3.33-7.45.57-1.49,1.69-2.61,3.04-3.21,1.35-.61,2.92-.69,4.41-.13-2.97-1.14-4.47-4.47-3.33-7.45.57-1.49,1.69-2.61,3.04-3.21,1.35-.61,2.92-.69,4.41-.13l32.35,12.36c2.98,1.14,4.47,4.47,3.33,7.45-.57,1.49-1.69,2.61-3.04,3.2-1.35.61-2.93.69-4.42.12,2.98,1.14,4.47,4.47,3.33,7.45Z"/>
  </g>
  <polygon class="cls-1" points="839.32 333.03 839.32 363.35 806.98 333.03 839.32 333.03"/>
  <rect class="cls-3" x="472.95" y="120.35" width="246.28" height="166.74" rx="23.09" ry="23.09"/>
  <polygon class="cls-3" points="543.13 312.13 559.41 287.08 543.05 280.32 543.05 280.32 526.69 287.08 542.98 312.13 542.98 312.36 543.05 312.24 543.13 312.36 543.13 312.13"/>
  <path class="cls-1" d="M639.11,158.9l3.91,15.25-94.49,24.2-3.91-15.25c-1.81-7.06,2.44-14.24,9.5-16.05l68.94-17.65c7.06-1.81,14.24,2.45,16.05,9.51Z"/>
  <path class="cls-2" d="M643.02,174.16l13.75,53.68c1.81,7.06-2.45,14.24-9.51,16.05l-68.94,17.65c-7.06,1.81-14.23-2.45-16.04-9.51l-13.75-53.68,94.49-24.2Z"/>
  <rect class="cls-2" x="559.49" y="157.56" width="10.76" height="22.2" rx="5.38" ry="5.38" transform="translate(-24.18 145.4) rotate(-14.36)"/>
  <rect class="cls-2" x="609.04" y="144.87" width="10.76" height="22.2" rx="5.38" ry="5.38" transform="translate(-19.49 157.3) rotate(-14.36)"/>
</svg>