<?xml version="1.0" encoding="UTF-8"?>
<svg id="Layer_1" data-name="Layer 1" xmlns="http://www.w3.org/2000/svg" viewBox="0 0 541.82 762.61">
  <defs>
    <style>
      .cls-1 {
        fill: #ff4f00;
      }

      .cls-2 {
        fill: #f1e3fd;
      }

      .cls-3 {
        fill: #875eff;
      }
    </style>
  </defs>
  <polygon class="cls-2" points="321.58 354.23 317.4 375.47 354.45 375.47 357.92 354.23 321.58 354.23"/>
  <polygon class="cls-2" points="136.81 472.24 132.21 492.15 170.31 492.59 174.97 472.24 136.81 472.24"/>
  <path class="cls-3" d="M17.46,569.93h90.91v192.67H0v-175.22c0-9.63,7.82-17.46,17.46-17.46Z"/>
  <path class="cls-1" d="M125.82,519.51h90.91v243.1h-108.36v-225.64c0-9.63,7.82-17.46,17.46-17.46Z"/>
  <path class="cls-2" d="M234.18,469.09h90.91v293.52h-108.36v-276.06c0-9.63,7.82-17.46,17.46-17.46Z"/>
  <path class="cls-3" d="M342.55,418.67h90.91v343.94h-108.36v-326.48c0-9.63,7.82-17.46,17.46-17.46Z"/>
  <path class="cls-1" d="M450.91,368.25h73.45c9.63,0,17.46,7.82,17.46,17.46v376.9h-108.36v-376.9c0-9.63,7.82-17.46,17.46-17.46Z"/>
  <path class="cls-3" d="M132.21,492.15l-6.63,27.36h86.46c1.95-12.06-6.33-23.4-18.41-25.22h0c-9.44-1.42-18.98-2.14-28.53-2.14h-32.89Z"/>
  <g>
    <path class="cls-2" d="M140.83,185.29c-2.33,11.93-12.79,20.21-24.51,20.21-1.59,0-3.2-.15-4.82-.47-13.55-2.65-22.39-15.78-19.74-29.33l26.47-15.1,22.6,24.69Z"/>
    <path class="cls-2" d="M425.03,69.77c2.59-13.56-6.3-26.66-19.87-29.25-13.57-2.59-26.66,6.3-29.25,19.87l22.19,30.36,26.92-20.98Z"/>
  </g>
  <polyline class="cls-1" points="201.24 171.93 129.7 473.03 199.53 475.01 272.53 184.26"/>
  <path class="cls-2" d="M281.83,54.05l-9.72.38c.2,4.92,4.18,8.82,9.04,8.94l-1.69,23.38-58.03.64-.93-50.64c1.15-17.48,10.84-31.64,27.54-33.82,4.16-.54,8.24-.25,12.08.75,13.91,3.62,23.29,16.65,23.11,31.02l-1.4,19.35Z"/>
  <rect class="cls-2" x="270.34" y="34.99" width="24.44" height="13.44" rx="6.72" ry="6.72" transform="translate(566.63 71.55) rotate(177.6)"/>
  <path class="cls-3" d="M317.52,374.59l-6.63,27.36h86.46c1.95-12.06-6.33-23.4-18.41-25.22h0c-9.44-1.42-18.98-2.14-28.53-2.14h-32.89Z"/>
  <path class="cls-1" d="M314.19,354.76l20.5-101.7-91.43-9.87,16.83-64.85,114.89,19.43c14.96,2.94,25.9,18.99,25.49,34.23l-16.74,123.62-69.53-.86Z"/>
  <polygon class="cls-3" points="215.13 90.8 192.52 208.63 311.06 186.96 291.45 92.42 215.13 90.8"/>
  <path class="cls-3" d="M140.83,185.29l-49.07-9.59c7.24-37.04,29.29-65.66,63.77-82.78,26.16-12.98,58.7-18.44,89.29-14.97,26.35,2.99,45.25,9.15,60.45,14.1,12.73,4.15,22.78,7.42,33.93,7.91,5.92.26,14.87-.8,24.35-13.01,7.66-9.86,11.44-21.68,12.37-26.56l49.11,9.38c-2.39,12.51-9.42,31.65-21.98,47.84-17.05,21.97-40.54,33.44-66.06,32.31-17.95-.79-32.16-5.42-47.2-10.32-14.4-4.69-29.29-9.54-50.6-11.96-20.96-2.38-43.92,1.39-61.42,10.07-20.31,10.08-32.73,26.09-36.93,47.58Z"/>
  <path class="cls-1" d="M243.26,50.43s-6.29,12.88-54.52,20.93c-35.37,5.9-61.39,27.57-85.52,16.07-14.68-6.99-25.03-28.89-15.5-48.02,11.39-22.86,36.11-24.83,55.29-23.12,10.2.91,33.07,5.6,54.79.05C219.52,10.79,231.98,0,250.77,0s27.12,16.06,27.12,16.06c0,0-14.15,24.75-34.64,34.37Z"/>
  <circle class="cls-2" cx="245.13" cy="47.99" r="7.85"/>
</svg>