<?xml version="1.0" encoding="UTF-8"?>
<svg id="Layer_1" data-name="Layer 1" xmlns="http://www.w3.org/2000/svg" viewBox="0 0 1278 978.47">
  <defs>
    <style>
      .cls-1 {
        fill: #ff4f00;
      }

      .cls-2 {
        fill: #f1e3fd;
      }

      .cls-3 {
        fill: #875eff;
      }
    </style>
  </defs>
  <g>
    <g>
      <path class="cls-1" d="M613.33,173.52c4.3,2.92,9.19,4.32,14.02,4.32,8,0,15.87-3.84,20.71-10.96,7.76-11.42,4.78-26.97-6.64-34.73l-32.83,7.67,4.74,33.69Z"/>
      <path class="cls-1" d="M256.18,164.91c-12.1,6.66-27.3,2.24-33.95-9.85-6.66-12.1-2.25-27.3,9.85-33.95l33.9,8.34-9.8,35.47Z"/>
    </g>
    <path class="cls-1" d="M326.18,438.99l-4.59,2.53c-11.6,6.39-15.43,21.23-8.37,32.44h0s69.5-23.44,69.5-23.44l-1.59-17.75-54.95,6.22Z"/>
    <path class="cls-1" d="M492.29,473.93l4.59,2.53c11.6,6.39,15.43,21.23,8.37,32.44h0s-69.5-23.44-69.5-23.44l1.59-17.75,54.95,6.22Z"/>
    <path class="cls-1" d="M405.88,12.13h0c-15.38,2.23-26.36,16.04-25.05,31.53l4.64,55.13,64.58-8.11-11.18-55.3c-3.09-15.28-17.57-25.48-32.99-23.25Z"/>
    <path class="cls-3" d="M613.33,173.52c-.63-.43-69.44-45.96-164.25-48.61-78.04-2.18-139.35,10.53-192.91,40l-24.1-43.81c61.68-33.93,131.08-48.6,218.4-46.17,109.97,3.06,187.69,55.01,190.95,57.22l-28.09,41.37Z"/>
    <path class="cls-2" d="M361.17,204.2l-42.5,82.49c-5.03,9.77-7.23,20.75-6.33,31.7l13.85,120.61,70.57-6.22-26.66-100.26c-.93-13.75,3-27.39,11.11-38.54l67.36-92.59-87.39,2.83Z"/>
    <path class="cls-2" d="M409.72,198.77l32.71,125.06c2.37,9.06,3.23,18.44,2.56,27.78l-27.11,124.63,79-1.07,11.84-130.01c.7-7.68.36-15.42-1.02-23.01l-22.38-123.38h-75.59Z"/>
    <polygon class="cls-3" points="361.17 204.2 485.64 200.45 472.32 92.22 360.7 100.43 361.17 204.2"/>
    <rect class="cls-1" x="424.44" y="36.27" width="22.62" height="12.44" rx="6.22" ry="6.22" transform="translate(.15 86.49) rotate(-11.34)"/>
    <path class="cls-3" d="M434.67,53.46c-1.48,4.52-6.34,6.98-10.86,5.5-4.52-1.48-6.98-6.34-5.5-10.86"/>
    <path class="cls-3" d="M447.9,28.87l-45.16,9.11-8.3-9.11-1.24,38.01-22.96,1.71S360.85,8.95,403.25.85c34.72-6.64,44.65,28.02,44.65,28.02Z"/>
  </g>
  <g>
    <path class="cls-3" d="M128.89,809.97l55.21-26.72c3.92-1.9,8.22-2.88,12.58-2.88h0c14.27,0,26.39,10.42,28.54,24.52l.77,5.08h-97.1Z"/>
    <path class="cls-3" d="M4.2,774.76l55.21-26.72c3.92-1.9,8.22-2.88,12.58-2.88h0c14.27,0,26.39,10.42,28.54,24.52l.77,5.08H4.2Z"/>
    <path class="cls-1" d="M112.98,809.97c0-3.66-55.72-351-55.72-351l81.78,6.65,53.13,344.35h-79.19Z"/>
    <polyline class="cls-1" points="36.17 452.94 0 774.76 65.79 774.76 105.86 463.4"/>
    <g>
      <path class="cls-3" d="M218.75,510.94c3.18,1.34,6.48,1.98,9.72,1.98,9.74,0,19-5.73,23.04-15.27,5.38-12.72-.57-27.39-13.29-32.76l-34.7,11.36,15.23,34.7Z"/>
      <path class="cls-3" d="M140.8,165.57c10.61-8.83,26.38-7.39,35.21,3.22,8.83,10.61,7.39,26.38-3.22,35.21l-36.12-5.22,4.13-33.21Z"/>
    </g>
    <path class="cls-2" d="M218.75,510.94c-27.2-11.5-66.6-31.98-99.81-64.26-32.93-32-51.56-68.58-53.89-105.77-5.88-94.08,34.99-141.44,75.74-175.35l31.98,38.43c-22.06,18.36-35.96,34.98-45.08,53.9-10.57,21.92-14.74,48.06-12.75,79.9,1.56,24.93,14.62,49.5,38.83,73.03,21.57,20.96,51.55,40.16,84.43,54.06l-19.47,46.05Z"/>
    <polygon class="cls-2" points="51.73 292.19 18.46 470.1 156.79 471.6 140.53 423.42 114.68 336.79 51.73 292.19"/>
    <path class="cls-3" d="M117.96,284.88l-1.22,19.27-10.87-.13c-.06,5.14,4.05,9.35,9.19,9.41.37,0,.74-.01,1.1-.06l-1.48,23.42-54.65,1.28-4.82-54.31c-.4-16.83,12.42-31.05,29.21-32.38,4.18-.34,8.25.16,12.03,1.35,13.71,4.32,22.41,17.81,21.51,32.15Z"/>
    <rect class="cls-3" x="103.76" y="285.47" width="24.44" height="13.44" rx="6.72" ry="6.72" transform="translate(248.51 577.25) rotate(176.71)"/>
    <polygon class="cls-2" points="85.79 284.51 76.27 314.82 58.24 317.99 54.22 294.46 85.79 284.51"/>
    <rect class="cls-1" x="43.47" y="265.36" width="79.57" height="23.46" rx="6.85" ry="6.85" transform="translate(246.27 516.13) rotate(162.43)"/>
    <path class="cls-1" d="M113,262.28c-5.47-17.27-23.9-26.84-41.17-21.37-17.27,5.47-26.84,23.9-21.37,41.17"/>
    <circle class="cls-3" cx="80.96" cy="294.67" r="7.85"/>
  </g>
  <g>
    <polygon class="cls-2" points="850.33 199.31 792.1 508.9 832.38 516.39 911.63 242.08 850.33 199.31"/>
    <path class="cls-2" d="M897.43,228.07l-9.63,149.86c-.48,7.49.27,15,2.23,22.25l47.56,120.33,41.51-8.42-32.69-118,5.52-22.56-54.49-143.46Z"/>
    <path class="cls-3" d="M838.29,495.95l-63.12,11.65c-5.27.97-9.82,4.27-12.39,8.97l-3.12,5.7,40.94,7.11,16.83-13.46,1.28,15.94,19.09,3.54.48-39.46Z"/>
    <path class="cls-3" d="M973.08,491.12l-51.81,37.9c-4.32,3.16-6.99,8.11-7.27,13.46l-.33,6.49,39.97-11.37,9.32-19.43,8.07,13.8,18.74-5.09-16.69-35.76Z"/>
    <path class="cls-2" d="M948.76,64.58l-1.4,56.4-64.77-6.46,4.09-28.91c.47.22.96.4,1.48.53,4.61,1.17,9.3-1.62,10.47-6.23l-10.76-2.73,2.46-17.44c2.17-15.38,15.95-26.41,31.44-25.16,15.53,1.25,27.38,14.42,26.99,30Z"/>
    <g>
      <path class="cls-2" d="M1043.18,271.07c4.75,7.56,12.88,11.7,21.19,11.7,4.54,0,9.15-1.24,13.28-3.84,11.69-7.35,15.21-22.78,7.87-34.47l-33.73-8.6-8.61,35.21Z"/>
      <path class="cls-2" d="M705.28,126.27c-13.29,3.74-21.04,17.54-17.3,30.83,3.74,13.29,17.54,21.04,30.83,17.3l13.06-30.68-26.6-17.45Z"/>
    </g>
    <path class="cls-1" d="M1043.18,271.07c-37.75-60.07-75.15-100.53-144.9-116.6-55.38-12.76-109.31.21-179.46,19.94l-13.53-48.13c74.85-21.05,137.42-35.92,204.22-20.53,41.42,9.54,76.36,27.07,106.84,53.58,30.64,26.65,53.06,59.5,69.17,85.14l-42.34,26.6Z"/>
    <rect class="cls-2" x="877.87" y="58.33" width="22.62" height="12.44" rx="6.22" ry="6.22" transform="translate(13.12 -100.76) rotate(6.53)"/>
    <path class="cls-3" d="M891.53,31.97c5.23,24.61,31.57,37.24,40.17,37.39l15.95,28.41,7.35-31.46c3.14-13.45-2.77-27.39-14.62-34.48h0c-15.35-9.18-34.57.93-48.85.14h0Z"/>
    <circle class="cls-2" cx="932.46" cy="73.11" r="7.83"/>
    <polygon class="cls-1" points="862.49 122.7 834.79 250.9 957.24 264.81 960.25 145.1 862.49 122.7"/>
    <polygon class="cls-3" points="961.52 376.91 807.08 359.61 844.38 206.52 958.29 222.9 961.52 376.91"/>
  </g>
  <g>
    <path class="cls-2" d="M1020.46,450.73h0c-14.93,4.3-23.92,19.49-20.52,34.65l12.11,53.98,62.87-16.84-18.61-53.26c-5.14-14.71-20.88-22.85-35.85-18.53Z"/>
    <rect class="cls-2" x="992.68" y="483.19" width="22.62" height="12.44" rx="6.22" ry="6.22" transform="translate(-89.19 260.34) rotate(-14.15)"/>
    <path class="cls-1" d="M1015.68,642.02l-20.63,116.42c-2.31,13.05-.71,26.49,4.62,38.63l50.55,115.25,66.36-9.51-50.61-110.47c-6.31-13.78-7.77-29.29-4.14-44.01l39.13-158.48-85.29,52.17Z"/>
    <path class="cls-1" d="M1103.92,554.49l51.35,95.84,79.02-47.27,33.79,56.03-89.86,50.4c-25.41,14.25-57.51,6.7-73.9-17.39l-54.91-80.71"/>
    <polygon class="cls-3" points="1007.8 559.62 1013.52 653.88 1138.46 599.74 1078.13 476.68 1007.8 559.62"/>
    <path class="cls-2" d="M871.26,628.05c-14.93,0-29.52-1.39-43.5-4.19-13.54-2.72-22.31-15.89-19.59-29.43,2.72-13.54,15.89-22.31,29.43-19.59,11.04,2.22,22.39,3.25,33.82,3.25,71.67,0,146.79-40.67,174.45-85.7,39.04-63.54,16.56-136.88,8.74-157.85-4.83-12.94,1.75-27.34,14.69-32.16,12.94-4.83,27.34,1.75,32.16,14.69,6.04,16.21,16.26,49.33,16.74,89.08.5,41.67-9.5,79.48-29.72,112.41-21.53,35.05-61.56,66.76-109.84,87.01-35.42,14.85-72.35,22.49-107.38,22.49Z"/>
    <path class="cls-2" d="M1120.93,912.33l-10.01-21.85-72.39-4.89c-1.03-.23-2.07-.34-3.13-.34h0c-10.61,0-17.63,11.03-13.13,20.64l3.02,6.45h95.64Z"/>
    <path class="cls-2" d="M1245.32,596.51l-17.27,10.27,20.15,70.86c.31,1,.73,1.97,1.25,2.89h0c5.24,9.23,18.29,9.88,24.43,1.22l4.12-5.81-32.68-79.42Z"/>
    <polygon class="cls-3" points="952.76 562.04 974.76 633.04 1052.87 596.97 1013.7 520.49 952.76 562.04"/>
    <polygon class="cls-3" points="1047.1 479.25 1062.97 449.58 1127.14 485.42 1096.77 530.98 1047.1 479.25"/>
    <path class="cls-1" d="M1000.46,491.85l45.57,132.71,95.49-42.41-87.91-130.08c-8.3-9.84-21.53-14-33.97-10.68h0c-21.96,5.85-29.05,27.95-19.17,50.47Z"/>
  </g>
  <g>
    <path class="cls-1" d="M646.87,924.05l-13,4.82c-7.63,2.83-12.69,10.11-12.69,18.24v2.04h88.27c5.92,0,9.64-6.4,6.7-11.54l-7.51-13.14-61.78-.42Z"/>
    <g>
      <path class="cls-3" d="M755.07,575.14c10.88,8.51,12.8,24.22,4.29,35.09-4.93,6.3-12.28,9.6-19.71,9.6-5.39,0-10.81-1.73-15.38-5.31v-31.8l30.8-7.58Z"/>
      <path class="cls-3" d="M293.53,533.9c-11.25-8-13.9-23.6-5.9-34.86,8-11.25,23.6-13.9,34.86-5.9l3.29,30.91-32.25,9.85Z"/>
    </g>
    <path class="cls-1" d="M724.27,614.53c-81.07-63.39-143.41-55.44-216.47-38.46-38.09,8.85-70.41,10.77-101.72,6.04-38.21-5.77-75.03-21.54-112.56-48.21l28.96-40.76c30.99,22.02,60.78,34.95,91.06,39.53,25.19,3.81,50.77,2.17,82.93-5.3,80.23-18.64,160.38-29.02,258.59,47.78l-30.8,39.39Z"/>
    <polygon class="cls-1" points="460.3 559.29 480.88 668.96 607.69 640.45 572.65 539.75 460.3 559.29"/>
    <path class="cls-3" d="M459.23,502.51l26.26,16.77,31.76-15.33-2.68-38.12c-7.72-10.29-20.69-15.21-33.3-12.61h0c-22.26,4.58-30.6,26.24-22.03,49.29Z"/>
    <path class="cls-1" d="M543.37,953.36l-13,4.82c-7.63,2.83-12.69,10.11-12.69,18.24h0c0,1.13.92,2.04,2.04,2.04h84.98c5.6,0,9.33-5.77,7.04-10.88l-6.32-14.09-62.05-.14Z"/>
    <path class="cls-3" d="M459.23,502.51c4.14,10.45,10.08,13.31,12.2,22.22,2.71,11.37.84,18.35,10.08,29.45,7.57,9.1,24.81,12.14,40.55,7.12,15.76-5.03,28.34-21.55,19.07-41.32-4.84-10.31-17.07-12.76-18.49-22.09-1.42-9.32-1.59-22.46-8.08-32.06"/>
    <path class="cls-3" d="M480.88,668.96l38.89,284.21,85.65.34-49.38-235.37c-.57-2.71,1.01-5.41,3.66-6.25h0c2.92-.92,6.02.78,6.82,3.74l56.37,208.81,85.74.2-100.94-284.18-126.81,28.51Z"/>
  </g>
</svg>