<?xml version="1.0" encoding="UTF-8"?>
<svg id="Layer_1" data-name="Layer 1" xmlns="http://www.w3.org/2000/svg" viewBox="0 0 304.82 564.24">
  <defs>
    <style>
      .cls-1 {
        fill: #ff4f00;
      }

      .cls-2 {
        fill: #f1e3fd;
      }

      .cls-3 {
        fill: #fff;
      }

      .cls-4 {
        fill: #875eff;
      }
    </style>
  </defs>
  <path class="cls-4" d="M247.94,218.58l-139.21,12.25,12.16-54.39-1.24-43.91c7.58-2.25,13.38-7.47,21.87-8.98,1.15-.2,10.34-.5,11.51-.69,14.26-2.33,19-6.65,31.92-6.38,2.66.05,21.31-5.62,23.9-5.51l9.77,45.48,29.31,62.13Z"/>
  <path class="cls-4" d="M244.41,530.13s.48,5.26,3.05,7.53c3.54,3.13,13.58.64,21.23,6.46,7.64,5.82,7.4,20.12,7.4,20.12h-30.57c-8.07,0-16.05-1.62-23.47-4.78l-1.94-.82-1.67,5.6h-17.92v-34.11h43.89Z"/>
  <path class="cls-4" d="M142,529.75c0,5.79,7.36,9.18,10.35,17.44,1.96,5.39.51,17.06.51,17.06h-56.13s-2.84-12.03,4.95-22.44c5.33-7.13,8.65-12.05,8.65-12.05h31.67Z"/>
  <path class="cls-1" d="M117.02,215.77l-32.42,295.79c-1.21,11.06,7.45,20.72,18.57,20.72h42.91c10.23,0,18.56-8.23,18.68-18.47l2.49-211.89c.03-2.69,2.23-4.84,4.91-4.83h0c2.64.01,4.79,2.12,4.86,4.76l5.41,211.84c.26,10.13,8.55,18.21,18.68,18.21h43.37c11.27,0,19.97-9.9,18.53-21.08l-38.09-295.05h-107.9Z"/>
  <g>
    <rect class="cls-2" x="50.26" y="139.53" width="172.76" height="259.54" rx="17.61" ry="17.61" transform="translate(-116.05 434.66) rotate(-96.3)"/>
    <rect class="cls-1" x="114.77" y="247.44" width="43.73" height="43.73" transform="translate(-158.96 207.55) rotate(-51.3)"/>
    <rect class="cls-1" x="227.86" y="188.25" width="14.47" height="14.47" transform="translate(-64.46 256.73) rotate(-51.3)"/>
    <rect class="cls-1" x="30.94" y="335.88" width="14.47" height="14.47" transform="translate(329.83 527.87) rotate(128.7)"/>
  </g>
  <path class="cls-1" d="M154.48,47.07h0c15.49-1.25,29.27,9.78,31.44,25.16l7.74,54.78-64.77,6.46-1.4-56.4c-.39-15.58,11.46-28.75,26.99-30Z"/>
  <rect class="cls-1" x="175.75" y="70.82" width="22.62" height="12.44" rx="6.22" ry="6.22" transform="translate(381.67 132.29) rotate(173.47)"/>
  <path class="cls-3" d="M179.4,89.42c.54,4.73,4.81,8.12,9.54,7.58,4.73-.54,8.12-4.81,7.58-9.54"/>
  <g>
    <path class="cls-1" d="M124.39,298.43c5.36,12.72-.6,27.38-13.32,32.75-3.17,1.34-6.46,1.97-9.7,1.97-9.75,0-19.02-5.74-23.05-15.29l12.64-25.83,33.43,6.41Z"/>
    <path class="cls-1" d="M275.67,6.14c-10.42-9.06-26.21-7.96-35.27,2.45-9.06,10.42-7.96,26.21,2.45,35.27l32.82-8.08V6.14Z"/>
  </g>
  <path class="cls-4" d="M78.32,317.85c-12.37-29.34-19.29-56.97-20.57-82.14-1.32-25.93,3.32-48.69,13.79-67.62,14.6-26.42,40.36-43.86,72.52-49.11,6.2-1.01,13.58-1.86,21.41-2.75,22.25-2.54,52.73-6.03,70.88-15.53,10.24-5.36,16.89-15.06,18.25-26.62,1.35-11.54-2.92-22.56-11.73-30.22l32.82-37.72c21.15,18.4,31.83,45.98,28.57,73.77-3.26,27.8-19.97,52.13-44.71,65.09-26.4,13.83-62.23,17.92-88.39,20.91-7.52.86-14.01,1.6-19.03,2.42-17.2,2.81-29.58,10.87-36.82,23.96-12.86,23.26-9.55,61.95,9.09,106.15l-46.07,19.42Z"/>
  <path class="cls-4" d="M183.36,35.78c1.14,9.66,1.07,23.07-12.71,29.47-14.83,6.89-13.76,23.33-13.76,23.33l-7.04.86s-3.42-2.17-8.34-1.21c-1.01.2.49,7.16.49,7.16,1.08,11.68-13.57,19.06-13.57,19.06,0,0-7.21-33.38-7.94-43.85-.73-10.47,1.67-25.89,20.22-28.5,20.27-2.86,42.67-6.33,42.67-6.33Z"/>
  <circle class="cls-1" cx="142.74" cy="90.22" r="7.11"/>
</svg>