<?xml version="1.0" encoding="UTF-8"?>
<svg id="Layer_1" data-name="Layer 1" xmlns="http://www.w3.org/2000/svg" viewBox="0 0 559.19 720.34">
  <defs>
    <style>
      .cls-1 {
        fill: #ff4f00;
      }

      .cls-2 {
        fill: #f1e3fd;
      }

      .cls-3 {
        fill: #fff;
      }

      .cls-4 {
        fill: #875eff;
      }
    </style>
  </defs>
  <g>
    <path class="cls-2" d="M277.1,144.45c-78.83,0-142.8-14.9-200.11-46.43-12.1-6.66-16.51-21.86-9.85-33.95,6.65-12.1,21.86-16.51,33.95-9.85,53.55,29.46,114.85,42.17,192.91,40,94.81-2.64,163.62-48.18,164.3-48.64,11.43-7.76,26.95-4.77,34.7,6.66,7.76,11.42,4.76,26.99-6.66,34.74-3.25,2.21-80.97,54.16-190.95,57.22-6.18.17-12.28.26-18.29.26Z"/>
    <path class="cls-2" d="M261.51,27.31h0c-15.38,2.23-26.36,16.04-25.05,31.53l4.64,55.13,64.58-8.11-11.18-55.3c-3.09-15.28-17.57-25.48-32.99-23.25Z"/>
    <path class="cls-1" d="M277.9,144.44c-33.68,0-65.26-2.79-94.1-8.33l9.43-49.1c30.22,5.8,64.11,8.23,100.75,7.21,26.82-.75,54.05-4.97,80.92-12.56l13.59,48.12c-30.84,8.71-62.17,13.56-93.11,14.42-5.88.16-11.72.25-17.48.25Z"/>
    <rect class="cls-2" x="280.07" y="51.46" width="22.62" height="12.44" rx="6.22" ry="6.22" transform="translate(-5.65 58.41) rotate(-11.34)"/>
    <path class="cls-3" d="M290.29,68.65c-1.48,4.52-6.34,6.98-10.86,5.5-4.52-1.48-6.98-6.34-5.5-10.86"/>
    <circle class="cls-4" cx="246.48" cy="37.03" r="16.55"/>
    <circle class="cls-4" cx="236.73" cy="58.22" r="16.55"/>
    <circle class="cls-4" cx="265.93" cy="33.1" r="16.55"/>
    <circle class="cls-4" cx="269.69" cy="16.55" r="16.55"/>
    <circle class="cls-4" cx="243.8" cy="22.17" r="16.55"/>
    <circle class="cls-4" cx="232.83" cy="40.49" r="16.55"/>
    <circle class="cls-4" cx="286.24" cy="26.49" r="16.55"/>
    <polygon class="cls-1" points="337.36 216.74 213.23 212.72 226.21 104.76 337.83 112.97 337.36 216.74"/>
  </g>
  <path class="cls-2" d="M161.15,438.41c-25.27-37.81-55.45-64.76-82.04-88.02-20.53-17.95-39.92-34.91-54.31-54.59C8.11,272.96,0,248.49,0,221,0,199.47,6.67,178.98,18.78,163.31c14.43-18.68,35.79-28.96,60.15-28.96,46.29,0,75.67,31.87,78.61,85.25l-34.95,1.92c-.38-6.88-1.84-11.32-2.24-17.18-.62-9.11-6.71-18.38-10.29-22.04-7.91-8.08-17.39-12.96-31.14-12.96s-24.58,5.17-32.45,15.36c-7.29,9.44-11.47,22.66-11.47,36.29,0,44.32,28.17,68.95,67.15,103.04,28.23,24.69,60.22,52.67,88.07,94.32l-29.07,20.05Z"/>
  <path class="cls-2" d="M350.59,488.45c6.75-4.84,14-10.67,21.44-17.64,41.92-39.3,48.74-91.65,53.05-119.2,7.92-50.58,13.75-147.26,13.75-147.26H120.35s5.83,96.69,13.75,147.26c4.31,27.55,11.13,79.9,53.05,119.2,7.44,6.97,14.69,12.8,21.44,17.64,24.68,17.69,39.47,46.05,39.47,76.42v73.45c0,6.26-3.03,12.14-8.12,15.78l-50.75,36.22c-9.7,6.92-15.46,18.11-15.46,30.03h211.72c0-11.92-5.76-23.1-15.46-30.03l-50.75-36.22c-5.1-3.64-8.12-9.51-8.12-15.78v-73.45c0-30.36,14.79-58.73,39.47-76.42Z"/>
  <path class="cls-2" d="M398.04,438.41c25.27-37.81,55.45-64.76,82.04-88.02,20.53-17.95,39.92-34.91,54.31-54.59,16.69-22.83,24.8-47.3,24.8-74.8,0-21.53-6.67-42.02-18.78-57.69-14.43-18.68-35.79-28.96-60.15-28.96-46.29,0-75.67,31.87-78.61,85.25l34.95,1.92c.38-6.88,1.84-11.32,2.24-17.18.62-9.11,6.71-18.38,10.29-22.04,7.91-8.08,17.39-12.96,31.14-12.96,13.66,0,24.58,5.17,32.45,15.36,7.29,9.44,11.47,22.66,11.47,36.29,0,44.32-28.17,68.95-67.15,103.04-28.23,24.69-60.22,52.67-88.07,94.32l29.07,20.05Z"/>
  <rect class="cls-1" x="209.9" y="289.36" width="139.39" height="80.95" rx="14.59" ry="14.59"/>
</svg>