<?xml version="1.0" encoding="UTF-8"?>
<svg id="Layer_1" data-name="Layer 1" xmlns="http://www.w3.org/2000/svg" viewBox="0 0 900 693.05">
  <defs>
    <style>
      .cls-1 {
        fill: #ff4f00;
      }

      .cls-2 {
        fill: #f1e3fd;
      }

      .cls-3 {
        fill: #875eff;
      }
    </style>
  </defs>
  <rect class="cls-1" x="507.33" y="160.32" width="392.67" height="274.9" rx="137.45" ry="137.45" transform="translate(1407.33 595.54) rotate(-180)"/>
  <path class="cls-2" d="M791.39,328.71l28.55-5.83-8.52-41.72,21.69-4.43-5.83-28.55-148.72,30.38c-10.95-21.6-35.37-34.19-60.22-29.11-29.79,6.09-49.08,35.28-42.99,65.07,6.09,29.79,35.28,49.08,65.07,42.99,24.85-5.08,42.38-26.23,43.98-50.4l55.28-11.29,6.44,31.51,28.55-5.83-6.44-31.51,14.64-2.99,8.52,41.72ZM634.57,328.95c-14.05,2.87-27.81-6.23-30.68-20.27-2.87-14.05,6.23-27.81,20.27-30.68,14.05-2.87,27.81,6.23,30.68,20.27,2.87,14.05-6.23,27.81-20.27,30.68Z"/>
  <rect class="cls-2" x="0" y="0" width="420.06" height="441.8" rx="53.71" ry="53.71"/>
  <path class="cls-1" d="M145.26,226.75c-13.35-19.98-29.3-34.22-43.35-46.51-10.85-9.49-21.09-18.45-28.7-28.84-8.82-12.06-13.11-24.99-13.11-39.52,0-11.38,3.52-22.2,9.92-30.48,7.63-9.87,18.91-15.3,31.78-15.3,24.46,0,39.98,16.84,41.54,45.05l-18.47,1.02c-.2-3.63-.97-5.98-1.18-9.08-.33-4.81-3.54-9.71-5.43-11.64-4.18-4.27-9.19-6.85-16.45-6.85s-12.99,2.73-17.15,8.12c-3.85,4.99-6.06,11.98-6.06,19.18,0,23.42,14.88,36.43,35.48,54.45,14.92,13.04,31.82,27.83,46.53,49.84l-15.36,10.59Z"/>
  <path class="cls-1" d="M245.36,253.19c3.57-2.56,7.4-5.64,11.33-9.32,22.15-20.76,25.75-48.43,28.03-62.98,4.19-26.72,7.27-77.81,7.27-77.81H123.7s3.08,51.09,7.27,77.81c2.28,14.56,5.88,42.22,28.03,62.98,3.93,3.69,7.76,6.76,11.33,9.32,13.04,9.35,20.86,24.33,20.86,40.38v38.81c0,3.31-1.6,6.41-4.29,8.34l-26.82,19.14c-5.13,3.66-8.17,9.57-8.17,15.87h111.87c0-6.3-3.04-12.21-8.17-15.87l-26.82-19.14c-2.69-1.92-4.29-5.03-4.29-8.34v-38.81c0-16.04,7.82-31.03,20.86-40.38Z"/>
  <path class="cls-1" d="M270.43,226.75c13.35-19.98,29.3-34.22,43.35-46.51,10.85-9.49,21.09-18.45,28.7-28.84,8.82-12.06,13.11-24.99,13.11-39.52,0-11.38-3.52-22.2-9.92-30.48-7.63-9.87-18.91-15.3-31.78-15.3-24.46,0-39.98,16.84-41.54,45.05l18.47,1.02c.2-3.63.97-5.98,1.18-9.08.33-4.81,3.54-9.71,5.43-11.64,4.18-4.27,9.19-6.85,16.45-6.85,7.22,0,12.99,2.73,17.15,8.12,3.85,4.99,6.06,11.98,6.06,19.18,0,23.42-14.88,36.43-35.48,54.45-14.92,13.04-31.82,27.83-46.53,49.84l15.36,10.59Z"/>
  <rect class="cls-3" x="171.02" y="147.99" width="73.65" height="42.78" rx="7.71" ry="7.71"/>
  <rect class="cls-3" x="210.03" y="329.48" width="360.22" height="326.7" rx="39.08" ry="39.08"/>
  <polygon class="cls-3" points="304.03 692.67 330.79 651.52 304.03 651.52 303.78 651.52 277.02 651.52 303.78 692.67 303.78 693.05 303.91 692.86 304.03 693.05 304.03 692.67"/>
  <rect class="cls-1" x="260.57" y="520.03" width="32.62" height="87.21"/>
  <rect class="cls-1" x="317.29" y="498.62" width="32.62" height="108.62"/>
  <rect class="cls-1" x="374.01" y="477.21" width="32.62" height="130.03"/>
  <rect class="cls-1" x="430.73" y="455.8" width="32.62" height="151.45"/>
  <rect class="cls-1" x="487.46" y="434.39" width="32.62" height="172.86"/>
  <path class="cls-2" d="M519.03,388.88l-10.92,14.08-8.97,11.57c-2.1,2.71-6.44,1.42-6.72-2l-.42-5.15-220.01,89.82c-3.38,1.38-7.23-.24-8.61-3.62l-2.69-6.6c-1.38-3.38.24-7.23,3.62-8.61l220.01-89.82-3.31-3.98c-2.19-2.64,0-6.6,3.4-6.13l14.51,1.99,17.65,2.41c2.87.39,4.24,3.74,2.46,6.03Z"/>
  <path class="cls-1" d="M434.35,450.84c1.31,0,1.31-2.04,0-2.04s-1.31,2.04,0,2.04h0Z"/>
</svg>