<?xml version="1.0" encoding="UTF-8"?>
<svg id="Layer_1" data-name="Layer 1" xmlns="http://www.w3.org/2000/svg" viewBox="0 0 374.19 576.88">
  <defs>
    <style>
      .cls-1 {
        fill: #ff4f00;
      }

      .cls-2 {
        fill: #f1e3fd;
      }

      .cls-3 {
        fill: #fff;
      }

      .cls-4 {
        fill: #875eff;
      }
    </style>
  </defs>
  <path class="cls-4" d="M181.9,542.39c0,5.79,2.7,9.18,5.69,17.44,1.96,5.39.51,17.06.51,17.06h-51.01s-2.84-12.03,4.95-22.44c5.33-7.13,4.62-12.05,4.62-12.05h35.24Z"/>
  <path class="cls-2" d="M185.46,59.71h0c15.49-1.25,29.27,9.78,31.44,25.16l7.74,54.78-64.77,6.46-1.4-56.4c-.39-15.58,11.46-28.75,26.99-30Z"/>
  <path class="cls-2" d="M355.6,94.25c13.35-3.54,21.29-17.23,17.75-30.58-3.54-13.35-17.23-21.29-30.58-17.75l-7.72,25.61,20.55,22.72Z"/>
  <path class="cls-2" d="M31.42,59.44c-13.35-3.54-27.03,4.41-30.58,17.75-3.54,13.35,4.41,27.03,17.75,30.58l25.95-20-13.12-28.33Z"/>
  <path class="cls-4" d="M183.1,180.97l-8.06-49.35c10.52-1.72,21.03-2.94,31.19-4.11,13.24-1.53,25.75-2.98,36.47-5.33l3.13-.68c19.23-4.16,25.04-5.41,39.45-25.47,1.78-2.48,3.44-4.82,5-7.01,14.82-20.87,25.52-35.95,52.49-43.1l12.82,48.33c-8.78,2.33-10.61,4.1-24.54,23.72-1.61,2.27-3.32,4.68-5.17,7.24-23.92,33.29-42.21,39.27-69.5,45.16l-3.02.66c-13.16,2.88-27.51,4.54-41.39,6.15-9.59,1.11-19.51,2.26-28.88,3.79Z"/>
  <path class="cls-4" d="M130.73,185.21c-1.87,0-3.72-.03-5.52-.1-33.49-1.26-52.9-12.96-76.91-46.38-1.84-2.56-3.55-4.97-5.17-7.24-13.93-19.62-15.77-21.39-24.55-23.72l12.83-48.33c26.96,7.16,37.67,22.23,52.49,43.1,1.56,2.2,3.22,4.53,5,7.01,17.84,24.82,24.64,25.08,38.19,25.59,10.01.38,23.85-.96,37.24-2.26,20.24-1.96,41.16-3.98,57.73-1.27l-8.06,49.35c-10.16-1.66-28.59.12-44.86,1.7-13,1.26-26.39,2.55-38.42,2.55Z"/>
  <path class="cls-4" d="M269.36,258.22l-139.12,2.24,14.63-125.95c6.59-.74,95.94-12.72,98.53-12.61l25.96,136.31Z"/>
  <path class="cls-2" d="M238.89,21.37c1.59-3.77,4.83-6.33,8.52-7.22,0,0,0,0,0,0-.41-2.88.16-5.95,1.99-8.69,2.76-4.13,7.87-6.21,12.73-5.19,3.22.67,5.77,2.46,7.49,4.79,0,0,0,0,0,0,3.45-2.61,8.16-3.35,12.42-1.5,4.6,2,7.42,6.73,7.38,11.75-.03,2.77-.95,5.01-2.27,6.86,0,0,0,0,0,0,5.1,3.15,7.3,9.63,4.9,15.33-2.11,5-7.11,7.89-12.24,7.54,0,0,0,0,0,0-.29,1.49-.86,2.97-1.76,4.36-2.66,4.15-7.69,6.33-12.55,5.46-2.63-.47-4.81-1.7-6.5-3.34,0,0,0,0,0,0l-19.88,14.46c-1.97,1.43-4.59-.59-3.7-2.86l10.01-25.55h0c-6.26-2.68-9.19-9.91-6.55-16.19Z"/>
  <circle class="cls-2" cx="156.14" cy="100.55" r="7.3"/>
  <circle class="cls-2" cx="221.17" cy="93.25" r="7.3"/>
  <polygon class="cls-2" points="266.32 366.31 266.59 542.39 231.49 542.77 218.04 366.31 266.32 366.31"/>
  <polygon class="cls-2" points="191.54 366.31 181.9 542.39 146.67 542.39 139.45 366.31 191.54 366.31"/>
  <path class="cls-4" d="M181.9,542.39l.31-5.64c.18-3.26-2.39-6.02-5.66-6.08l-24.28-.41c-3.31-.06-5.99,2.69-5.86,6l.25,6.13,20.75,4.57,14.49-4.57Z"/>
  <path class="cls-4" d="M231.35,542.39c0,5.79-2.7,9.18-5.69,17.44-1.96,5.39-.51,17.06-.51,17.06h51.01s2.84-12.03-4.95-22.44c-5.33-7.13-4.62-12.05-4.62-12.05h-35.24Z"/>
  <path class="cls-4" d="M231.35,542.39l-.31-5.64c-.18-3.26,2.39-6.02,5.66-6.08l24.28-.41c3.31-.06,5.99,2.69,5.86,6l-.25,6.13-20.75,4.57-14.49-4.57Z"/>
  <path class="cls-3" d="M180.08,114.15c.25-4.75,4.3-8.4,9.05-8.15s8.4,4.3,8.15,9.05"/>
  <path class="cls-1" d="M185.53,64.88c-.1-8.7-7.91-13.54-15.54-10.55-12.32,4.83-15.74,22.85-19.68,28.34-4.15,5.79-8.18,8.37-8.18,8.37,0,0,3.12,3.83,13.57,3.32,12.11-.59,30-13.54,29.82-29.49Z"/>
  <path class="cls-1" d="M182.41,63.93c-1.46-8.58,5.36-14.74,13.4-13.16,12.98,2.55,19.58,19.66,24.43,24.36,5.12,4.96,9.54,6.77,9.54,6.77,0,0-2.39,4.33-12.76,5.7-12.02,1.59-31.94-7.95-34.62-23.67Z"/>
  <polygon class="cls-2" points="172.87 128.77 191.84 161.37 206.23 124.4 172.87 128.77"/>
  <path class="cls-4" d="M130.24,524.81h64.74s3.24-210.26,3.24-210.26c.03-2.68,2.23-4.84,4.91-4.82,1.32.01,2.52.53,3.4,1.39.88.86,1.43,2.05,1.46,3.37l8.76,210.32h64.38s-25.24-296.41-25.24-296.41l-113.47,3.5-12.18,292.91Z"/>
  <rect class="cls-1" x="184.24" y="128.21" width="11.71" height="10.94" rx="3.26" ry="3.26" transform="translate(-12.16 19.23) rotate(-5.61)"/>
  <polygon class="cls-1" points="187.75 138.86 184.94 149.51 191.84 161.37 197.29 147.36 193.09 138.05 187.75 138.86"/>
</svg>