<?xml version="1.0" encoding="UTF-8"?>
<svg id="Layer_1" data-name="Layer 1" xmlns="http://www.w3.org/2000/svg" viewBox="0 0 1135.02 789.19">
  <defs>
    <style>
      .cls-1 {
        fill: #ff4f00;
      }

      .cls-2 {
        fill: #0b0426;
      }

      .cls-3 {
        fill: #f1e3fd;
      }

      .cls-4 {
        fill: #fff;
      }
    </style>
  </defs>
  <rect class="cls-3" x="837.66" y="0" width="297.36" height="257.44" rx="26.76" ry="26.76"/>
  <g>
    <path class="cls-1" d="M900.49,713.12s.2,31.3,1.45,40.5,28.89,14.18,33.91,21.11c5.02,6.93,5.02,14.46,5.02,14.46h-58.4s-3.7-9.43-3.7-9.43l-3.2,9.43h-23.57s9.04-29.17,9.04-29.17l-8.11-46.9h47.56Z"/>
    <path class="cls-1" d="M807.87,713.12s.46,42.41,1.39,47.07c1.4,7.08,6.95,10.29,6.95,29h-49.27s.63-18.72,7.21-27.98c6.58-9.26,3.12-48.09,3.12-48.09h30.6Z"/>
    <path class="cls-3" d="M788.21,294.07l1.4,56.4,64.77-6.46-4.09-28.91c-.47.22-.96.4-1.48.53-4.61,1.17-9.29-1.62-10.46-6.23l10.75-2.73-2.46-17.44c-2.17-15.38-15.95-26.41-31.43-25.16-15.54,1.25-27.39,14.42-27,30Z"/>
    <rect class="cls-3" x="836.48" y="287.82" width="22.62" height="12.44" rx="6.22" ry="6.22" transform="translate(1723.54 489.7) rotate(173.47)"/>
    <g>
      <path class="cls-3" d="M654.01,514.52c-2.31,13.61,6.85,26.52,20.46,28.83,1.42.24,2.83.36,4.22.36,11.97,0,22.54-8.62,24.62-20.82l-24.83-26.63-24.47,18.26Z"/>
      <path class="cls-3" d="M1049.89,367.7c13.77-1.04,24.09-13.05,23.04-26.81-1.04-13.77-13.05-24.09-26.81-23.04l-18.05,24.89,21.82,24.97Z"/>
    </g>
    <polygon class="cls-2" points="767.13 456.26 893.41 454.73 886.46 336.57 770.71 354.6 767.13 456.26"/>
    <path class="cls-2" d="M703.3,522.89l-49.29-8.38c10.18-59.93,28.52-103.18,56.06-132.23,23.6-24.89,53.7-39.61,94.72-46.31,49.61-8.1,78.46-9.35,122.11-11.23,29.01-1.25,65.12-2.81,119.21-6.9l3.77,49.86c-54.9,4.15-91.46,5.73-120.83,7-43.36,1.87-69.53,3-116.21,10.63-30.08,4.91-50.59,14.58-66.5,31.36-20.5,21.62-34.59,56.36-43.05,106.21Z"/>
    <path class="cls-1" d="M835.12,268.56c5.57,11.2-5.85,25.48-20.01,30.18-8.43,2.8-3.26,2.06-2.81,8.49.45,6.43,2.77,20.07,2.77,20.07,0,0-35.91,7.07-44.67,8.38,0,0,6.1-11.56,6.22-21.69.23-19.55,4.27-48.44,33.42-52.02,16.8-2.07,25.07,6.6,25.07,6.6Z"/>
    <circle class="cls-3" cx="810.98" cy="303.8" r="6.73"/>
  </g>
  <path class="cls-2" d="M430.84,771.26c-.79-5.35-4.59-8.51-4.57-14.32l-35.2.04c-.2,5.44-11.42,9.5-16.29,15.17-4.87,5.68-4.46,17.04-4.46,17.04h60.53s.79-12.59,0-17.93Z"/>
  <path class="cls-2" d="M470.01,771.26c.79-5.35,4.59-8.51,4.57-14.32l35.2.04c.2,5.44,11.42,9.5,16.29,15.17,4.87,5.68,4.46,17.04,4.46,17.04h-55.95s-4.57,0-4.57,0c0,0-.79-12.59,0-17.93Z"/>
  <path class="cls-2" d="M385.59,447.22c-8.55,44.99-12.33,309.92-12.33,309.92l57.93-.21,11.62-230.31c.14-2.87,2.53-5.12,5.4-5.08h0c2.82.04,5.12,2.26,5.26,5.07l16.19,230.79h60.88l-18.95-310.17h-126.01Z"/>
  <polygon class="cls-1" points="379.73 456.8 516.39 456.8 507.07 342.01 392.18 335.93 379.73 456.8"/>
  <path class="cls-3" d="M439.46,245.24h0c14.64-1.18,27.67,9.25,29.72,23.79l7.32,51.79-61.23,6.11-1.33-53.32c-.37-14.73,10.84-27.18,25.52-28.36Z"/>
  <circle class="cls-3" cx="411.75" cy="283.85" r="6.91"/>
  <circle class="cls-3" cx="471.91" cy="277.74" r="6.91"/>
  <path class="cls-4" d="M434.38,296.7c.23-4.49,4.06-7.94,8.55-7.71s7.94,4.06,7.71,8.55"/>
  <path class="cls-2" d="M414.04,277.34c8.84-9.86,25.43-26.71,25.43-26.71,0,0,18.38,17.42,30.04,20.64,0,0,1.03-32.86-31.13-31.13-31.29,1.68-24.33,37.2-24.33,37.2Z"/>
  <g>
    <polygon class="cls-3" points="124.26 458.53 91.8 716.12 257.14 716.12 226.83 456.26 124.26 458.53"/>
    <path class="cls-2" d="M227.73,756.66c.2,2.55.29,5.53,2.91,7.18,3.81,2.41,17.08.61,24.37,6.16,7.29,5.55,7.06,19.19,7.06,19.19h-76.2c0-17.45,5.84-18.5,5.84-32.9s-2.23-40.18-2.23-40.18h38.14s-.14,37.4.11,40.54Z"/>
    <path class="cls-2" d="M170.55,756.66c.2,2.55.29,5.53,2.91,7.18,3.81,2.41,17.08.61,24.37,6.16,7.29,5.55,7.06,19.19,7.06,19.19h-76.2c0-17.45,5.84-18.5,5.84-32.9s-2.23-40.18-2.23-40.18h38.14s-.14,37.4.11,40.54Z"/>
    <path class="cls-2" d="M124.76,326.96l10.14,52.84,59.92-16.19-8.69-27.62-8.34,2.38c-1.24-4.36,1.28-8.91,5.65-10.16.08-.02.15-.05.23-.06l-4.68-14.88c-4.45-14.13-19.14-22.35-33.51-18.76-14.42,3.61-23.51,17.84-20.71,32.45Z"/>
    <rect class="cls-2" x="170.02" y="311.69" width="21.57" height="11.86" rx="5.93" ry="5.93" transform="translate(441.99 573.27) rotate(164.04)"/>
    <path class="cls-1" d="M115.91,355.63c12.1-16.14-6.17-30.73,7.81-54.03,7.51-12.51,26.74-15.77,36.32-10.07,5.95,3.54,9.02,7.95,9.02,7.95,0,0-1.03,17.41-13.8,24.74-11.83,6.79,4.78,26.91-24.7,35.72"/>
    <circle class="cls-2" cx="153.07" cy="329.28" r="6.97"/>
    <path class="cls-2" d="M25.03,563.81c-1.39,0-2.8-.12-4.22-.36-13.61-2.31-22.77-15.22-20.46-28.83,9.75-57.39,27.34-98.84,53.77-126.71,22.69-23.94,51.61-38.08,90.99-44.51,10.06-1.64,20.09-2.81,29.8-3.93,12.6-1.46,24.5-2.84,34.67-5.06,8.85-1.93,22.04-11.39,19.72-28.54-.94-6.95-4.01-12.19-9.39-16.03-8.29-5.91-21.71-8.12-34.2-5.62-13.54,2.71-26.71-6.07-29.42-19.61-2.71-13.54,6.07-26.71,19.61-29.42,26.16-5.23,53.47-.02,73.04,13.94,16.76,11.96,27.1,29.26,29.91,50.05,2.75,20.41-2.52,40.4-14.86,56.29-10.84,13.95-26.78,24.08-43.74,27.79-12.61,2.75-26.32,4.34-39.59,5.88-9.14,1.06-18.58,2.15-27.49,3.61-28.42,4.64-47.78,13.76-62.77,29.57-19.39,20.45-32.72,53.39-40.76,100.69-2.07,12.19-12.65,20.82-24.62,20.82Z"/>
    <path class="cls-1" d="M124.26,458.53c4.11-27.78,4.02-26.03,4.02-26.03l-28.5,17.83-34.3-53.91s26.1-31.81,94.56-35.54c68.47-3.73,69.04-26.2,69.04-26.2,0,0,38.55,41.05,39.02,61.1l-44.13,17.73,2.86,42.75-102.58,2.27Z"/>
  </g>
  <path class="cls-1" d="M347.18,482.2c-36.13-25.97-44.43-53.02-45.02-71.13-.65-19.86,7.31-38.93,23.02-55.17,26.95-27.85,74.07-44.48,126.05-44.48,24.3,0,48.42,3.69,69.74,10.68,23.99,7.86,43.28,19.65,55.79,34.09,13.64,15.75,19.36,34.42,16.54,54-3.36,23.3-18.89,46.71-46.16,69.56l-32.12-38.32c23.02-19.29,27.92-32.33,28.79-38.38.49-3.4.38-8.09-4.85-14.13-14.03-16.19-50.1-27.5-87.74-27.5-37.55,0-72.92,11.48-90.12,29.25-6.16,6.36-9.18,12.67-8.98,18.76.32,9.75,8.93,21.17,24.23,32.18l-29.18,40.6Z"/>
  <path class="cls-2" d="M441.41,313.8v142.1c0,3.31-2.68,5.99-5.99,5.99h-54.77c-3.56,0-6.34-3.09-5.96-6.64l14.58-134.82c.25-2.33,1.84-4.28,4.05-5.04,14.11-4.85,32.16-6.83,41.63-7.57,3.48-.27,6.46,2.48,6.46,5.97Z"/>
  <path class="cls-2" d="M452.07,313.8v142.1c0,3.31,2.68,5.99,5.99,5.99h54.77c3.56,0,6.34-3.09,5.96-6.64l-14.58-134.82c-.25-2.33-1.84-4.28-4.05-5.04-14.11-4.85-32.16-6.83-41.63-7.57-3.48-.27-6.46,2.48-6.46,5.97Z"/>
  <path class="cls-3" d="M515.02,441.43c-10.58,8.87-11.97,24.64-3.1,35.22,4.94,5.9,12.03,8.94,19.17,8.94,5.67,0,11.36-1.92,16.05-5.84l2.37-32.53-34.49-5.79Z"/>
  <path class="cls-3" d="M347.18,482.2c4.42,3.17,9.52,4.7,14.57,4.7,7.77,0,15.44-3.62,20.32-10.41,8.06-11.21,5.5-26.83-5.71-34.89l-29.18,5.62v34.98Z"/>
  <path class="cls-1" d="M547.14,479.75l-32.12-38.32c23.02-19.29,27.92-32.33,28.79-38.38l49.49,7.14c-3.36,23.3-18.89,46.71-46.16,69.56Z"/>
  <path class="cls-1" d="M347.18,482.2c-36.13-25.97-44.43-53.02-45.02-71.13l49.97-1.64c.32,9.75,8.93,21.18,24.23,32.18l-29.18,40.6Z"/>
  <polygon class="cls-3" points="899.79 257.44 899.79 281.28 925.22 257.44 899.79 257.44"/>
  <path class="cls-1" d="M768.2,442.72c-8.14,37.09-26.28,311.12-26.28,311.12h76.74l8.43-237.38c.05-4.05,7.16-4.61,7.24,0l8.23,237.75h76.07l-26.13-314.95-124.31,3.46Z"/>
  <path class="cls-1" d="M1066.61,47.46c-4.44-5.75-11.02-8.91-18.51-8.91-12.83,0-21.44,7.96-23.68,21.54h-76.15c-2.24-13.58-10.85-21.54-23.68-21.54-7.5,0-14.07,3.17-18.51,8.91-3.73,4.82-5.78,11.13-5.78,17.76,0,8.46,2.5,15.99,7.63,23.02,4.43,6.06,10.4,11.28,16.71,16.8,8.18,7.16,17.47,15.46,25.25,27.09h0c2.06,3.46,4.67,6.85,8,9.97,2.29,2.15,4.52,3.94,6.6,5.43,7.59,5.44,12.15,14.17,12.15,23.52v22.61c0,1.93-.93,3.74-2.5,4.86l-15.62,11.15c-2.99,2.13-4.76,5.57-4.76,9.24h65.16c0-3.67-1.77-7.11-4.76-9.24l-15.62-11.15c-1.57-1.12-2.5-2.93-2.5-4.86v-22.61c0-9.34,4.55-18.07,12.15-23.52,2.08-1.49,4.31-3.28,6.6-5.43,3.33-3.12,5.94-6.51,8-9.97h0c7.78-11.63,17.06-19.93,25.25-27.09,6.32-5.53,12.29-10.75,16.71-16.8,5.14-7.03,7.63-14.56,7.63-23.02,0-6.63-2.05-12.93-5.78-17.76ZM931.73,96.93c-12-10.49-20.67-18.07-20.67-31.71,0-4.19,1.29-8.26,3.53-11.17,2.42-3.14,5.78-4.73,9.99-4.73s7.15,1.5,9.58,3.99c1.1,1.13,2.97,3.98,3.17,6.78,0,0,1.8,29.76,4.23,45.32.02.14.05.29.07.44-3.38-3.22-6.72-6.14-9.9-8.93ZM1040.95,96.93c-3.19,2.79-6.53,5.71-9.9,8.93.02-.15.05-.3.07-.44,2.44-15.57,4.23-45.32,4.23-45.32.19-2.8,2.06-5.66,3.17-6.78,2.43-2.49,5.35-3.99,9.58-3.99s7.56,1.59,9.99,4.73c2.24,2.9,3.53,6.98,3.53,11.17,0,13.64-8.67,21.22-20.67,31.71Z"/>
  <path class="cls-3" d="M337.48,260.91c-3.14-2.62-4.65-6.46-4.43-10.25,0,0,0,0,0,0-2.87-.45-5.64-1.89-7.73-4.44-3.14-3.84-3.65-9.34-1.26-13.69,1.58-2.88,4.03-4.8,6.77-5.77,0,0,0,0,0,0-1.49-4.06-.83-8.78,2.19-12.32,3.25-3.81,8.61-5.14,13.39-3.63,2.65.83,4.52,2.37,5.89,4.17,0,0,0,0,0,0,4.5-3.96,11.34-4.18,16.09-.22,4.17,3.47,5.47,9.1,3.65,13.91,0,0,0,0,0,0,1.34.71,2.59,1.69,3.66,2.96,3.2,3.76,3.82,9.2,1.57,13.59-1.22,2.38-3.03,4.11-5.09,5.24,0,0,0,0,0,0l8.03,23.23c.8,2.3-1.9,4.21-3.81,2.7l-21.52-17.03h0c-4.39,5.21-12.16,5.9-17.4,1.54Z"/>
  <path class="cls-3" d="M497.52,203.8c2.13-3.49,5.71-5.55,9.49-5.89,0,0,0,0,0,0,.02-2.91,1.03-5.86,3.25-8.3,3.34-3.67,8.7-4.98,13.35-3.26,3.09,1.14,5.34,3.28,6.7,5.85,0,0,0,0,0,0,3.79-2.07,8.57-2.11,12.51.35,4.25,2.65,6.35,7.76,5.56,12.71-.43,2.74-1.67,4.82-3.26,6.44,0,0,0,0,0,0,4.58,3.87,5.8,10.6,2.59,15.88-2.82,4.64-8.2,6.75-13.22,5.66,0,0,0,0,0,0-.51,1.43-1.29,2.81-2.38,4.06-3.25,3.72-8.54,5.13-13.21,3.55-2.53-.86-4.51-2.39-5.93-4.26,0,0,0,0,0,0l-21.8,11.37c-2.16,1.13-4.45-1.26-3.24-3.37l13.67-23.79h0c-5.8-3.57-7.63-11.16-4.08-16.98Z"/>
  <path class="cls-3" d="M62.57,291.34c-3.46-2.19-5.45-5.8-5.72-9.59,0,0,0,0,0,0-2.91-.07-5.84-1.14-8.24-3.4-3.61-3.4-4.83-8.78-3.02-13.41,1.2-3.06,3.38-5.28,5.96-6.59,0,0,0,0,0,0-2.01-3.83-1.96-8.6.57-12.5,2.73-4.2,7.87-6.21,12.8-5.34,2.73.48,4.79,1.76,6.39,3.37,0,0,0,0,0,0,3.95-4.51,10.7-5.61,15.93-2.3,4.59,2.9,6.6,8.32,5.42,13.32,0,0,0,0,0,0,1.42.53,2.78,1.34,4.01,2.46,3.66,3.31,4.98,8.63,3.32,13.27-.9,2.52-2.47,4.47-4.37,5.86,0,0,0,0,0,0l10.98,21.99c1.09,2.18-1.34,4.43-3.43,3.18l-23.54-14.1h0c-3.67,5.73-11.29,7.43-17.05,3.78Z"/>
  <path class="cls-3" d="M1003.79,88.45h-5.31c-1.82,0-3.44-1.17-4-2.9l-1.64-5.05c-1.26-3.87-6.74-3.87-8,0l-1.64,5.05c-.56,1.73-2.18,2.9-4,2.9h-5.31c-4.07,0-5.77,5.21-2.47,7.61l4.3,3.12c1.47,1.07,2.09,2.97,1.53,4.7l-1.64,5.05c-1.26,3.87,3.17,7.09,6.47,4.7l4.3-3.12c1.47-1.07,3.47-1.07,4.94,0l4.3,3.12c3.29,2.39,7.73-.83,6.47-4.7l-1.64-5.05c-.56-1.73.05-3.63,1.53-4.7l4.3-3.12c3.29-2.39,1.6-7.61-2.47-7.61Z"/>
  <polygon class="cls-2" points="160.04 360.87 174.47 381.89 178.09 359.3 160.04 360.87"/>
</svg>