<?xml version="1.0" encoding="UTF-8"?><svg id="Layer_1" xmlns="http://www.w3.org/2000/svg" viewBox="0 0 430.31 370.01"><defs><style>.cls-1{fill:#040022;}.cls-2{fill:#eac6fb;}.cls-3{fill:#955eff;}</style></defs><g><polygon class="cls-2" points="215.15 139.45 215.15 43.31 68.03 136.93 141.59 185.21 215.15 139.45"/><polygon class="cls-2" points="430.31 136.92 430.31 233.07 215.18 370.01 215.18 273.87 430.31 136.92"/><polygon class="cls-3" points="0 136.92 0 233.06 215.18 370 215.18 273.86 0 136.92"/><path class="cls-1" d="m215.15,0L0,136.93l215.15,136.93,215.15-136.93L215.15,0ZM68.03,136.93L215.15,43.31l147.12,93.62-147.12,93.62-147.12-93.62Z"/><polygon class="cls-3" points="362.27 136.93 215.15 43.31 215.15 139.45 286.72 185 362.27 136.93"/></g><g><polygon class="cls-2" points="313.71 123.79 313.71 167.83 215.16 230.56 215.16 186.52 313.71 123.79"/><polygon class="cls-3" points="116.6 123.79 116.6 167.83 215.16 230.55 215.16 186.51 116.6 123.79"/><path class="cls-1" d="m215.15,61.07l-98.55,62.72,98.55,62.72,98.55-62.72-98.55-62.72Z"/></g><g><polygon class="cls-2" points="272.95 97.85 272.95 123.68 215.16 160.47 215.16 134.64 272.95 97.85"/><polygon class="cls-3" points="157.36 97.85 157.36 123.68 215.16 160.47 215.16 134.64 157.36 97.85"/><path class="cls-1" d="m215.15,61.07l-57.8,36.79,57.8,36.79,57.8-36.79-57.8-36.79Z"/></g></svg>