<?xml version="1.0" encoding="UTF-8"?><svg id="Layer_1" xmlns="http://www.w3.org/2000/svg" viewBox="0 0 430.3 370.01"><defs><style>.cls-1{fill:#eac6fb;}.cls-2{fill:#ff4f00;}.cls-3{fill:#0b0426;}</style></defs><polygon class="cls-1" points="327.55 107.31 327.55 166.57 298.58 185.01 261.71 161.54 261.71 65.4 327.55 107.31"/><polygon class="cls-3" points="261.71 65.4 261.71 161.54 168.61 161.54 131.74 185.01 102.77 166.57 102.77 107.31 168.61 65.4 261.71 65.4"/><polygon class="cls-3" points="430.31 136.92 430.31 233.07 215.18 370.01 215.18 273.87 430.31 136.92"/><polygon class="cls-1" points="0 136.92 0 233.06 215.18 370 215.18 273.86 0 136.92"/><rect class="cls-1" x="149.91" y="119.73" width="38.22" height="101.91"/><rect class="cls-3" x="188.13" y="119.73" width="92.28" height="101.91"/><path class="cls-2" d="m215.15,0L0,136.93l215.14,136.93,215.15-136.93L215.15,0Zm46.55,208.47h-93.1l-65.84-41.9v-59.26l65.84-41.9h93.1l65.84,41.9v59.26l-65.84,41.9Z"/><polygon class="cls-2" points="242.18 95.41 188.13 95.41 149.91 119.73 149.91 154.14 188.13 178.46 242.18 178.46 280.41 154.14 280.41 119.73 242.18 95.41"/></svg>