<?xml version="1.0" encoding="UTF-8"?>
<svg id="Layer_1" data-name="Layer 1" xmlns="http://www.w3.org/2000/svg" viewBox="0 0 1700 678.07">
  <defs>
    <style>
      .cls-1 {
        fill: #ff4f00;
      }

      .cls-2 {
        fill: #0b0426;
      }

      .cls-3 {
        fill: #f1e3fd;
      }
    </style>
  </defs>
  <rect class="cls-1" x="0" y="207.86" width="259.16" height="398.86" rx="40.08" ry="40.08"/>
  <rect class="cls-2" x="74.91" y="526.32" width="109.35" height="17.83" rx="8.91" ry="8.91"/>
  <path class="cls-2" d="M105.44,348.36c0,26.55-5.29,104.03-5.29,117.45,0,48.19-25.24,49.05-25.24,69.43h54.67v-186.88h-24.14Z"/>
  <path class="cls-2" d="M153.72,348.36c0,26.55,5.29,104.03,5.29,117.45,0,48.19,25.24,49.05,25.24,69.43h-54.67v-186.88h24.14Z"/>
  <path class="cls-3" d="M152.11,283.05l-20.26-13.27c-1.38-.9-3.16-.9-4.54,0l-20.26,13.27c-.97.63-2.15.83-3.27.55l-10.86-2.71c-3.05-.76-5.8,2.02-5.01,5.06l12.45,48.06,29.23,3.31,29.23-3.31s12.45-48.06,12.45-48.06c.79-3.04-1.96-5.82-5.01-5.06l-10.86,2.71c-1.12.28-2.3.08-3.27-.55Z"/>
  <rect class="cls-1" x="813.09" y="165.55" width="259.16" height="220.17" rx="29.78" ry="29.78"/>
  <rect class="cls-1" x="1366.06" y="279.95" width="333.94" height="316.66" rx="40.54" ry="40.54"/>
  <rect class="cls-2" x="496.49" y="247.26" width="259.16" height="331.09" rx="36.52" ry="36.52"/>
  <rect class="cls-2" x="1165.78" y="60.89" width="194.08" height="276.77" rx="28.9" ry="28.9"/>
  <rect class="cls-3" x="940.73" y="420.43" width="303.27" height="257.64" rx="34.85" ry="34.85"/>
  <rect class="cls-3" x="848.84" y="296.15" width="22.93" height="61.31"/>
  <rect class="cls-3" x="888.72" y="281.1" width="22.93" height="76.36"/>
  <rect class="cls-3" x="928.59" y="266.05" width="22.93" height="91.41"/>
  <rect class="cls-3" x="968.46" y="251" width="22.93" height="106.46"/>
  <rect class="cls-3" x="1008.33" y="235.95" width="22.93" height="121.51"/>
  <path class="cls-2" d="M1030.53,203.96l-7.67,9.9-6.31,8.14c-1.48,1.91-4.53,1-4.73-1.41l-.3-3.62-154.66,63.14c-2.37.97-5.08-.17-6.05-2.54l-1.89-4.64c-.97-2.37.17-5.08,2.54-6.05l154.66-63.14-2.32-2.8c-1.54-1.86,0-4.64,2.39-4.31l10.2,1.4,12.41,1.7c2.02.28,2.98,2.63,1.73,4.24Z"/>
  <g>
    <circle class="cls-1" cx="1089.14" cy="559.54" r="87.75"/>
    <circle class="cls-2" cx="1089.14" cy="559.54" r="72.84"/>
    <rect class="cls-1" x="1074.61" y="449.34" width="29.06" height="13.89" rx="6.94" ry="6.94"/>
    <rect class="cls-1" x="1083.25" y="459.24" width="11.79" height="15.12"/>
    <rect class="cls-1" x="1017.67" y="486.4" width="11.79" height="15.12" transform="translate(-49.49 868.45) rotate(-45)"/>
    <rect class="cls-1" x="1148.82" y="486.4" width="11.79" height="15.12" transform="translate(687.5 -671.83) rotate(45)"/>
    <circle class="cls-1" cx="1089.14" cy="559.54" r="10.74"/>
    <rect class="cls-1" x="1085.92" y="495.7" width="6.44" height="83.39" rx="3.22" ry="3.22"/>
    <rect class="cls-1" x="1100.7" y="526.09" width="6.44" height="66.91" rx="3.22" ry="3.22" transform="translate(1663.46 -544.37) rotate(90)"/>
    <rect class="cls-1" x="1001.6" y="479.58" width="29.06" height="13.89" rx="6.94" ry="6.94" transform="translate(-46.41 861.01) rotate(-45)"/>
    <rect class="cls-1" x="1147.63" y="479.58" width="29.06" height="13.89" rx="6.94" ry="6.94" transform="translate(684.42 -679.27) rotate(45)"/>
  </g>
  <path class="cls-1" d="M971,247.73c1.19,0,1.19-1.85,0-1.85s-1.19,1.85,0,1.85h0Z"/>
  <g>
    <rect class="cls-1" x="547.9" y="524.95" width="156.34" height="19.07" rx="9.54" ry="9.54"/>
    <rect class="cls-1" x="547.9" y="281.59" width="156.34" height="19.07" rx="9.54" ry="9.54"/>
    <path class="cls-3" d="M635.54,412.81c0,31.77,58.82,62.88,58.82,112.14h-136.57c0-49.27,58.82-80.37,58.82-112.14s-58.82-62.88-58.82-112.15h136.57c0,49.27-58.82,80.37-58.82,112.15Z"/>
    <path class="cls-1" d="M629,486.63v-68.3c0-12.53,3.92-24.77,11.29-34.91,4.44-6.11,9.67-12.23,14.88-18.48,7.09-8.52,14.61-17.55,20.65-27.28h-99.5c6.04,9.73,13.57,18.76,20.65,27.28,5.21,6.25,10.44,12.37,14.88,18.48,7.37,10.14,11.29,22.37,11.29,34.91v68.3c0,5.05-2.01,9.9-5.58,13.47l-24.85,24.85h66.71l-24.85-24.85c-3.57-3.57-5.58-8.42-5.58-13.47Z"/>
  </g>
  <rect class="cls-3" x="310.92" y="0" width="259.16" height="331.09" rx="36.52" ry="36.52"/>
  <g>
    <circle class="cls-2" cx="457.89" cy="234.5" r="59.73"/>
    <path class="cls-1" d="M455.2,208.21l7.51,11.95c.93,1.47,2.7,2.18,4.39,1.76l13.69-3.45c3.78-.95,6.56,3.48,4.07,6.47l-9.05,10.84c-1.12,1.34-1.24,3.24-.32,4.71l7.51,11.95c2.07,3.3-1.28,7.32-4.9,5.87l-13.11-5.25c-1.62-.65-3.47-.18-4.58,1.16l-9.05,10.84c-2.5,2.99-7.36,1.04-7.1-2.85l.95-14.09c.12-1.74-.9-3.35-2.51-4l-13.11-5.25c-3.61-1.45-3.26-6.68.51-7.63l13.69-3.45c1.69-.43,2.91-1.89,3.03-3.63l.95-14.09c.26-3.89,5.34-5.17,7.41-1.87Z"/>
    <polygon class="cls-1" points="389.62 43.44 422.7 174.64 413.25 177.02 400.53 166.44 375.09 145.28 351.82 52.97 389.62 43.44"/>
    <rect class="cls-3" x="405.57" y="36.62" width="38.98" height="135.31" transform="translate(-12.59 107.09) rotate(-14.15)"/>
    <polygon class="cls-1" points="465.21 24.38 488.49 116.68 476.12 147.38 469.94 162.73 460.49 165.11 427.41 33.91 465.21 24.38"/>
    <rect class="cls-2" x="415.18" y="175.57" width="9.75" height="17.04" transform="translate(-32.26 108.29) rotate(-14.15)"/>
    <rect class="cls-2" x="462.43" y="163.66" width="9.75" height="17.04" transform="translate(-27.91 119.48) rotate(-14.15)"/>
  </g>
  <rect class="cls-2" x="69.68" y="544.15" width="119.8" height="17.83" rx="8.91" ry="8.91"/>
  <rect class="cls-3" x="90.36" y="334.02" width="78.44" height="17.83" rx="8.91" ry="8.91"/>
  <circle class="cls-3" cx="129.58" cy="262.73" r="10.12"/>
  <g>
    <path class="cls-1" d="M1328.22,155.16c0-36.79-29.83-66.62-66.62-66.62s-66.62,29.83-66.62,66.62c0,16.73,6.17,32.02,16.35,43.72,15.77,18.03,16.78,29.69,16.78,56.11,0,3.84,3.11,6.95,6.95,6.95h53.07c3.84,0,6.95-3.11,6.95-6.95,0-26.42,1.01-38.08,16.78-56.11,10.19-11.7,16.35-26.99,16.35-43.72Z"/>
    <path class="cls-3" d="M1220.04,162.29l6.7-1.06c5.59-.88,9.97-5.26,10.85-10.85l1.06-6.7c.57-3.64,5.81-3.64,6.38,0l1.06,6.7c.88,5.59,5.26,9.97,10.85,10.85l6.7,1.06c3.64.57,3.64,5.81,0,6.38l-6.7,1.06c-5.59.88-9.97,5.26-10.85,10.85l-1.06,6.7c-.57,3.64-5.81,3.64-6.38,0l-1.06-6.7c-.88-5.59-5.26-9.97-10.85-10.85l-6.7-1.06c-3.64-.57-3.64-5.81,0-6.38Z"/>
    <path class="cls-3" d="M1304.28,143.09l-3.93-.62c-3.28-.52-5.85-3.09-6.37-6.37l-.62-3.93c-.34-2.13-3.41-2.13-3.74,0l-.62,3.93c-.52,3.28-3.09,5.85-6.37,6.37l-3.93.62c-2.13.34-2.13,3.41,0,3.74l3.93.62c3.28.52,5.85,3.09,6.37,6.37l.62,3.93c.34,2.13,3.41,2.13,3.74,0l.62-3.93c.52-3.28,3.09-5.85,6.37-6.37l3.93-.62c2.13-.34,2.13-3.41,0-3.74Z"/>
    <path class="cls-3" d="M1253.16,118.63l2.89-.46c2.41-.38,4.3-2.27,4.68-4.68l.46-2.89c.25-1.57,2.5-1.57,2.75,0l.46,2.89c.38,2.41,2.27,4.3,4.68,4.68l2.89.46c1.57.25,1.57,2.5,0,2.75l-2.89.46c-2.41.38-4.3,2.27-4.68,4.68l-.46,2.89c-.25,1.57-2.5,1.57-2.75,0l-.46-2.89c-.38-2.41-2.27-4.3-4.68-4.68l-2.89-.46c-1.57-.25-1.57-2.5,0-2.75Z"/>
    <path class="cls-3" d="M1289.41,282.8c0,1.92-.78,3.66-2.04,4.92-1.25,1.25-3,2.03-4.92,2.03h-6.47c0,7.95-6.44,14.4-14.39,14.4s-14.39-6.45-14.39-14.4h-6.47c-3.84,0-6.95-3.11-6.95-6.95,0-1.92.78-3.66,2.04-4.92,1.25-1.26,2.99-2.04,4.91-2.04-3.84,0-6.95-3.11-6.95-6.95,0-1.92.78-3.66,2.04-4.92,1.25-1.26,2.99-2.04,4.91-2.04h41.72c3.84,0,6.96,3.11,6.96,6.96,0,1.92-.78,3.66-2.04,4.91-1.25,1.26-3,2.04-4.92,2.04,3.84,0,6.96,3.11,6.96,6.96Z"/>
  </g>
  <path class="cls-3" d="M1481.54,442.93c-10.62-15.88-23.29-27.21-34.46-36.98-8.62-7.54-16.77-14.67-22.81-22.93-7.01-9.59-10.42-19.87-10.42-31.42,0-9.04,2.8-17.65,7.89-24.23,6.06-7.85,15.04-12.17,25.27-12.17,19.44,0,31.79,13.39,33.02,35.81l-14.68.81c-.16-2.89-.77-4.76-.94-7.22-.26-3.82-2.82-7.72-4.32-9.26-3.32-3.4-7.3-5.44-13.08-5.44s-10.32,2.17-13.63,6.45c-3.06,3.96-4.82,9.52-4.82,15.24,0,18.62,11.83,28.96,28.21,43.28,11.86,10.37,25.3,22.12,36.99,39.62l-12.21,8.42Z"/>
  <path class="cls-3" d="M1561.11,463.95c2.84-2.03,5.88-4.48,9.01-7.41,17.61-16.51,20.47-38.5,22.28-50.07,3.33-21.25,5.78-61.86,5.78-61.86h-133.78s2.45,40.61,5.78,61.86c1.81,11.57,4.68,33.56,22.28,50.07,3.12,2.93,6.17,5.38,9.01,7.41,10.37,7.43,16.58,19.35,16.58,32.1v30.85c0,2.63-1.27,5.1-3.41,6.63l-21.32,15.21c-4.08,2.91-6.49,7.61-6.49,12.61h88.94c0-5.01-2.42-9.7-6.49-12.61l-21.32-15.21c-2.14-1.53-3.41-4-3.41-6.63v-30.85c0-12.75,6.21-24.67,16.58-32.1Z"/>
  <path class="cls-3" d="M1581.05,442.93c10.62-15.88,23.29-27.21,34.46-36.98,8.62-7.54,16.77-14.67,22.81-22.93,7.01-9.59,10.42-19.87,10.42-31.42,0-9.04-2.8-17.65-7.89-24.23-6.06-7.85-15.04-12.17-25.27-12.17-19.44,0-31.79,13.39-33.02,35.81l14.68.81c.16-2.89.77-4.76.94-7.22.26-3.82,2.82-7.72,4.32-9.26,3.32-3.4,7.3-5.44,13.08-5.44,5.74,0,10.32,2.17,13.63,6.45,3.06,3.96,4.82,9.52,4.82,15.24,0,18.62-11.83,28.96-28.21,43.28-11.86,10.37-25.3,22.12-36.99,39.62l12.21,8.42Z"/>
  <rect class="cls-2" x="1502.02" y="380.32" width="58.55" height="34.01" rx="6.13" ry="6.13"/>
</svg>