<svg id="Layer_1" data-name="Layer 1" xmlns="http://www.w3.org/2000/svg" viewBox="0 0 430.3 370.01"><defs><style>.cls-1{fill:#ff4f00;}.cls-2{fill:#eac6fb;}.cls-3{fill:#955eff;}</style></defs><path class="cls-1" d="M215.19,0,0,136.93,75.53,185l30.85,19.61,108.81,69.25L324,204.62,354.81,185l75.49-48.08Zm90.1,185c-21.58,16.36-54,26.77-90.1,26.77S146.59,201.37,125,185a78.25,78.25,0,0,1-18.67-19.65,52,52,0,0,1-8.78-28.43c0-41.34,52.62-74.84,117.63-74.84s117.58,33.5,117.58,74.84A51.9,51.9,0,0,1,324,165.36,78.57,78.57,0,0,1,305.29,185Z"/><path class="cls-2" d="M156.36,72.13v96.16A119,119,0,0,0,125,185a78.59,78.59,0,0,1-18.67-19.65A51.92,51.92,0,0,1,97.57,137C97.57,109.23,121.19,85,156.36,72.13Z"/><polygon class="cls-2" points="430.3 136.94 430.3 233.08 215.17 370.02 215.17 273.88 430.3 136.94"/><polygon class="cls-3" points="0 136.93 0 233.07 215.17 370.01 215.17 273.87 0 136.93"/><path class="cls-3" d="M215.19,62.09h0a170.84,170.84,0,0,0-58.83,10v96.16a169.76,169.76,0,0,1,58.83-10.07h0c36.16,0,68.52,10.41,90.1,26.8A78.57,78.57,0,0,0,324,165.36a51.9,51.9,0,0,0,8.78-28.43C332.77,95.59,280.11,62.09,215.19,62.09Z"/></svg>