<?xml version="1.0" encoding="UTF-8"?>
<svg id="Layer_1" data-name="Layer 1" xmlns="http://www.w3.org/2000/svg" viewBox="0 0 820.33 673.49">
  <defs>
    <style>
      .cls-1 {
        fill: #ff4f00;
      }

      .cls-2 {
        fill: #0b0426;
      }

      .cls-3 {
        fill: #f1e3fd;
      }
    </style>
  </defs>
  <g>
    <path class="cls-2" d="M251.49,639.38s.48,5.26,3.05,7.53c3.54,3.13,17.91.64,25.56,6.46,7.64,5.82,7.4,20.12,7.4,20.12h-79.9v-34.11h43.89Z"/>
    <path class="cls-2" d="M149.08,638.99c0,5.79,7.36,9.18,10.35,17.44,1.96,5.39.51,17.06.51,17.06h-51.01s-2.84-12.03,4.95-22.44c5.33-7.13,8.65-12.05,8.65-12.05h26.55Z"/>
    <rect class="cls-2" x="153.79" y="385.09" width="49.41" height="151.25"/>
    <path class="cls-1" d="M200.74,236.25l-64.77,6.46-1.4-56.4c-.39-15.58,11.46-28.75,26.99-30,15.49-1.25,29.27,9.78,31.44,25.16l2.46,17.44-10.75,2.73c1.16,4.61,5.85,7.4,10.46,6.23.52-.13,1.01-.31,1.48-.53l4.09,28.91Z"/>
    <rect class="cls-1" x="182.83" y="180.06" width="22.62" height="12.44" rx="6.22" ry="6.22" transform="translate(408.22 349.26) rotate(173.47)"/>
    <path class="cls-2" d="M191.8,153.7c-5.23,24.61-31.57,37.24-40.17,37.39l-15.95,28.41-7.35-31.46c-3.14-13.45,2.77-27.39,14.62-34.48h0c15.35-9.18,34.57.93,48.85.14h0Z"/>
    <path class="cls-1" d="M124.1,325.01l-34.7,316.51h82.22s2.7-230.36,2.7-230.36c.03-2.69,2.23-4.84,4.91-4.83h0c2.64.01,4.79,2.12,4.86,4.76l5.87,230.05h82.84s-40.81-316.13-40.81-316.13h-107.9Z"/>
    <g>
      <path class="cls-1" d="M.36,406.76c-2.31,13.61,6.85,26.52,20.46,28.83,1.42.24,2.83.36,4.22.36,11.97,0,22.54-8.62,24.62-20.82l-17.73-22.85L.36,406.76Z"/>
      <path class="cls-1" d="M399,161.47c6.51-12.18,1.91-27.32-10.27-33.83-12.17-6.51-27.32-1.91-33.83,10.27l6.6,35.55,37.5-11.99Z"/>
    </g>
    <path class="cls-2" d="M49.65,415.14L.36,406.76c10.18-59.93,28.52-103.18,56.06-132.23,23.6-24.89,53.7-39.61,94.72-46.31,23.35-3.81,45.25-2.56,64.56-1.46,25.45,1.45,47.44,2.71,68.32-7.03,24.34-11.35,47.53-38.12,70.88-81.83l44.1,23.56c-29.04,54.35-58.86,87.26-93.85,103.58-32.29,15.06-62.79,13.32-92.3,11.63-18.37-1.05-35.72-2.04-53.65.89-30.08,4.91-50.59,14.58-66.5,31.36-20.5,21.62-34.59,56.36-43.05,106.21Z"/>
    <path class="cls-3" d="M226.35,326.36l-93.91,11.65-4.47-52.33-4.38-51.26c7.58-2.25,15.59-4.1,24.08-5.61,1.15-.2,2.3-.4,3.47-.59,14.26-2.33,27.98-2.77,40.9-2.5,2.66.05,5.29.13,7.88.24l13.36,50.74,13.07,49.66Z"/>
    <path class="cls-2" d="M152.8,536.34h-76.23l27.03-237.21,6.68-60.22c11.35-4.35,23.76-7.68,37.4-10.1l.85,50.8,4.27,256.73Z"/>
    <path class="cls-2" d="M282.8,536.34h-75.71l-12.63-260.56-2.42-50.06c8.23.16,16.14.61,23.66,1.04,7.26.42,14.25.81,21.01.94l7.47,50.04,38.62,258.6Z"/>
    <path class="cls-2" d="M132.73,163.36c-8.62-9.95-21.25-11.03-30.12-6.74-9.75,4.71-14.65,17.71-11.14,29.27,2.8,9.2,6.69,14.19,14.01,22.25,6.77,7.45,7.75,18.65,7.75,18.65l21.33-27.32-1.83-36.11Z"/>
    <circle class="cls-1" cx="150.5" cy="195.43" r="7"/>
  </g>
  <g>
    <path class="cls-1" d="M587.64,597.42s-.2,31.3-1.45,40.5c-1.26,9.2-28.89,14.18-33.91,21.11s-5.02,14.46-5.02,14.46h58.4l3.7-9.43,3.2,9.43h23.57l-9.04-29.17,8.11-46.9h-47.56Z"/>
    <path class="cls-1" d="M666.11,597.42s-.46,42.41-1.39,47.07c-1.4,7.08-6.95,10.29-6.95,29h49.27s-.63-18.72-7.21-27.98c-6.58-9.26-3.12-48.09-3.12-48.09h-30.6Z"/>
    <path class="cls-2" d="M720.71,309.76s-15.4-95.59-17.32-118.25c-1.92-22.66-18.26-53.1-54.07-43.44-33.35,9,21.35,132.03,16.23,152.05-5.13,20.02,63.48,56.07,55.16,9.64Z"/>
    <path class="cls-3" d="M685.77,178.36l-1.4,56.4-64.77-6.46,4.09-28.91c.47.22.96.4,1.48.53,4.61,1.17,9.29-1.62,10.46-6.23l-10.75-2.73,2.46-17.44c2.17-15.38,15.95-26.41,31.43-25.16,15.54,1.25,27.39,14.42,27,30Z"/>
    <rect class="cls-3" x="614.88" y="172.11" width="22.62" height="12.44" rx="6.22" ry="6.22" transform="translate(24.36 -70.1) rotate(6.53)"/>
    <g>
      <path class="cls-3" d="M819.97,398.81c2.31,13.61-6.85,26.52-20.46,28.83-1.42.24-2.83.36-4.22.36-11.97,0-22.54-8.62-24.62-20.82l13.6-23.5,35.69,15.13Z"/>
      <path class="cls-3" d="M465.43,129.95c-6.51-12.18-21.66-16.78-33.83-10.27-12.18,6.51-16.78,21.65-10.27,33.83l34.34,2.7,9.76-26.27Z"/>
    </g>
    <path class="cls-1" d="M770.68,407.18c-8.47-49.84-22.55-84.58-43.05-106.21-15.91-16.78-36.42-26.45-66.5-31.36-17.93-2.93-35.28-1.94-53.65-.89-29.5,1.68-60.01,3.42-92.3-11.63-34.99-16.32-64.81-49.23-93.85-103.58l44.1-23.56c23.35,43.71,46.54,70.47,70.88,81.83,20.88,9.74,42.86,8.48,68.32,7.03,19.31-1.1,41.21-2.35,64.56,1.46,41.02,6.7,71.12,21.41,94.72,46.31,27.54,29.05,45.88,72.3,56.06,132.23l-49.29,8.38Z"/>
    <polygon class="cls-1" points="706.85 340.55 580.57 339.02 587.52 220.86 703.27 238.89 706.85 340.55"/>
    <polygon class="cls-3" points="580.57 339.02 561.41 598.89 726.75 598.89 706.85 340.55 580.57 339.02"/>
    <path class="cls-2" d="M635.63,156.9c8.45,13.51,13.34,19.5,28.81,32.56,3.42,2.89-.37,24.83,5.29,32.89,6.78,9.64,17.83,1.54,17.83,1.54l1.19-50.79s.77-15.05-11.93-20.61c-12.7-5.56-27.4-10.26-41.19,4.42Z"/>
    <circle class="cls-3" cx="663" cy="188.09" r="6.73"/>
  </g>
  <path class="cls-3" d="M397.52,6.3h0c-2.65,3.6-3.61,8.18-2.63,12.54l11.96,53.24c.75,3.32,5.48,3.32,6.23,0l11.96-53.24c.98-4.36.02-8.94-2.63-12.54h0c-6.17-8.4-18.72-8.4-24.9,0Z"/>
  <path class="cls-3" d="M325.79,57.23h0c1.3,4.28,4.39,7.78,8.47,9.61l49.81,22.29c3.11,1.39,5.94-2.4,3.73-4.99l-35.49-41.45c-2.91-3.4-7.14-5.37-11.61-5.4h0c-10.42-.08-17.94,9.97-14.91,19.94Z"/>
  <path class="cls-3" d="M494.14,57.23h0c-1.3,4.28-4.39,7.78-8.47,9.61l-49.81,22.29c-3.11,1.39-5.94-2.4-3.73-4.99l35.49-41.45c2.91-3.4,7.14-5.37,11.61-5.4h0c10.42-.08,17.94,9.97,14.91,19.94Z"/>
</svg>