<?xml version="1.0" encoding="UTF-8"?>
<svg id="Layer_1" data-name="Layer 1" xmlns="http://www.w3.org/2000/svg" viewBox="0 0 1390.8 818.03">
  <defs>
    <style>
      .cls-1 {
        fill: #ff4f00;
      }

      .cls-2 {
        fill: #0b0426;
      }

      .cls-3 {
        fill: #f1e3fd;
      }
    </style>
  </defs>
  <rect class="cls-3" x="230.57" y="134.53" width="619.47" height="418.86" rx="12.62" ry="12.62"/>
  <rect class="cls-1" x="168.43" y="77.94" width="297.36" height="208.17" rx="26.76" ry="26.76"/>
  <polygon class="cls-1" points="230.57 286.11 230.57 309.95 255.99 286.11 230.57 286.11"/>
  <rect class="cls-2" x="622.85" y="0" width="297.36" height="208.17" rx="104.09" ry="104.09" transform="translate(1543.07 208.17) rotate(-180)"/>
  <g>
    <g>
      <circle class="cls-3" cx="317.11" cy="182.03" r="63.72"/>
      <circle class="cls-3" cx="317.11" cy="182.03" r="63.72"/>
    </g>
    <g>
      <path class="cls-3" d="M317.11,182.03v-63.72c12.08,0,23.91,3.43,34.11,9.9,10.2,6.46,18.36,15.7,23.51,26.62l-57.62,27.2Z"/>
      <path class="cls-2" d="M317.11,182.03v-63.72c12.08,0,23.91,3.43,34.11,9.9,10.2,6.46,18.36,15.7,23.51,26.62l-57.62,27.2Z"/>
    </g>
    <path class="cls-2" d="M317.11,182.03v-63.72c4.04,0,8.07.38,12.04,1.15,3.97.76,7.86,1.9,11.61,3.4l-23.65,59.16Z"/>
  </g>
  <g>
    <g>
      <rect class="cls-1" x="343.78" y="361.79" width="46.11" height="92.16"/>
      <rect class="cls-1" x="423.94" y="314.12" width="46.11" height="139.82"/>
      <rect class="cls-1" x="504.11" y="350.75" width="46.11" height="103.19"/>
      <rect class="cls-1" x="584.28" y="239.9" width="46.11" height="214.04"/>
      <rect class="cls-1" x="664.44" y="269.63" width="46.11" height="184.32"/>
    </g>
    <g>
      <rect class="cls-1" x="343.78" y="361.79" width="46.11" height="92.16"/>
      <rect class="cls-1" x="423.94" y="314.12" width="46.11" height="139.82"/>
      <rect class="cls-1" x="504.11" y="350.75" width="46.11" height="103.19"/>
      <rect class="cls-1" x="584.28" y="239.9" width="46.11" height="214.04"/>
      <rect class="cls-1" x="664.44" y="269.63" width="46.11" height="184.32"/>
    </g>
  </g>
  <g>
    <path class="cls-2" d="M1158.11,741.96s-.2,31.3-1.45,40.5c-1.26,9.2-28.89,14.18-33.91,21.11s-5.02,14.46-5.02,14.46h58.4l3.7-9.43,3.2,9.43h23.57l-9.04-29.17,8.11-46.9h-47.56Z"/>
    <path class="cls-2" d="M1236.58,741.96s-.46,42.41-1.39,47.07c-1.4,7.08-6.95,10.29-6.95,29h49.27s-.63-18.72-7.21-27.98c-6.58-9.26-3.12-48.09-3.12-48.09h-30.6Z"/>
    <path class="cls-2" d="M1291.18,454.31s-15.4-95.59-17.32-118.25c-1.92-22.66-18.26-53.1-54.07-43.44-33.35,9,21.35,132.03,16.23,152.05-5.13,20.02,63.48,56.07,55.16,9.64Z"/>
    <path class="cls-3" d="M1256.24,322.91l-1.4,56.4-64.77-6.46,4.09-28.91c.47.22.96.4,1.48.53,4.61,1.17,9.14-.71,10.53-3.23l-10.82-5.73,2.46-17.44c2.17-15.38,15.95-26.41,31.43-25.16,15.54,1.25,27.39,14.42,27,30Z"/>
    <rect class="cls-3" x="1185.35" y="316.66" width="22.62" height="12.44" rx="6.22" ry="6.22" transform="translate(44.51 -134.07) rotate(6.53)"/>
    <g>
      <path class="cls-3" d="M1341.15,551.73c2.07,12.2,12.65,20.82,24.62,20.82,1.39,0,2.8-.12,4.22-.36,13.61-2.31,22.77-15.22,20.46-28.83l-31.3-17.33-18,25.71Z"/>
      <path class="cls-3" d="M991.8,298.06c-6.51-12.18-1.91-27.32,10.27-33.83,12.18-6.51,27.32-1.91,33.83,10.27l-5.48,33.96-38.62-10.39Z"/>
    </g>
    <path class="cls-1" d="M1341.15,551.73c-8.47-49.84-22.55-84.58-43.05-106.21-15.91-16.78-36.42-26.45-66.5-31.36-17.93-2.93-35.28-1.94-53.65-.89-29.5,1.68-60.01,3.42-92.3-11.63-34.99-16.32-64.81-49.23-93.85-103.58l44.1-23.56c23.35,43.71,46.54,70.47,70.88,81.83,20.88,9.74,42.86,8.48,68.32,7.03,19.31-1.1,41.21-2.35,64.56,1.46,41.02,6.7,71.12,21.41,94.72,46.31,27.54,29.05,45.88,72.3,56.06,132.23l-49.29,8.38Z"/>
    <polygon class="cls-1" points="1277.32 485.1 1151.04 483.57 1157.99 365.41 1273.74 383.44 1277.32 485.1"/>
    <polygon class="cls-2" points="1151.04 483.57 1131.88 743.44 1297.22 743.44 1277.32 485.1 1151.04 483.57"/>
    <path class="cls-2" d="M1206.1,301.44c8.45,13.51,13.34,19.5,28.81,32.56,3.42,2.89,2.78,10.7,8.45,18.76,6.78,9.64,14.68,15.67,14.68,15.67l1.19-50.79s.77-15.05-11.93-20.61-27.4-10.26-41.19,4.42Z"/>
    <circle class="cls-3" cx="1233.47" cy="332.64" r="6.73"/>
    <rect class="cls-1" x="1187.83" y="352.76" width="68.41" height="17.29"/>
    <circle class="cls-2" cx="1259.23" cy="289.49" r="14.94"/>
  </g>
  <g>
    <path class="cls-2" d="M251.49,783.87s.48,5.26,3.05,7.53c3.54,3.13,17.91.64,25.56,6.46,7.64,5.82,7.4,20.12,7.4,20.12h-79.9v-34.11h43.89Z"/>
    <path class="cls-2" d="M149.08,783.49c0,5.79,7.36,9.18,10.35,17.44,1.96,5.39.51,17.06.51,17.06h-51.01s-2.84-12.03,4.95-22.44c5.33-7.13,8.65-12.05,8.65-12.05h26.55Z"/>
    <path class="cls-3" d="M200.74,380.75l-64.77,6.46-1.4-56.4c-.39-15.58,11.46-28.75,26.99-30,15.49-1.25,29.27,9.78,31.44,25.16l2.46,17.44-11.8,6.67c1.08,2.01,6.9,3.46,11.51,2.29.52-.13,1.01-.31,1.48-.53l4.09,28.91Z"/>
    <rect class="cls-3" x="182.83" y="324.56" width="22.62" height="12.44" rx="6.22" ry="6.22" transform="translate(424.66 637.32) rotate(173.47)"/>
    <path class="cls-2" d="M191.8,298.2c-5.23,24.61-31.57,37.24-40.17,37.39l-16.24,27.96-7.05-31.02c-3.14-13.45,2.77-27.39,14.62-34.48h0c15.35-9.18,34.57.93,48.85.14h0Z"/>
    <path class="cls-1" d="M124.1,469.5l-20.95,316.51h62.04s9.15-230.36,9.15-230.36c.03-2.69,2.23-4.84,4.91-4.83h0c2.64.01,4.79,2.12,4.86,4.76l10.47,230.05h65.3s-27.87-316.13-27.87-316.13h-107.9Z"/>
    <g>
      <path class="cls-3" d="M49.65,559.63c-2.07,12.19-12.65,20.82-24.62,20.82-1.39,0-2.8-.12-4.22-.36-13.61-2.31-22.77-15.22-20.46-28.83l33.84-24.25,15.45,32.62Z"/>
      <path class="cls-3" d="M399,305.96c6.51-12.18,1.91-27.32-10.27-33.83-12.18-6.51-27.32-1.91-33.83,10.27l3.07,50.53,41.03-26.97Z"/>
    </g>
    <path class="cls-2" d="M49.65,559.63L.36,551.26c10.18-59.93,28.52-103.18,56.06-132.23,23.6-24.89,53.7-39.61,94.72-46.31,23.35-3.81,45.24-2.56,64.56-1.46,25.46,1.45,47.44,2.71,68.32-7.03,24.34-11.35,47.53-38.12,70.88-81.83l44.1,23.56c-29.04,54.35-58.86,87.26-93.85,103.58-32.29,15.06-62.8,13.32-92.3,11.63-18.37-1.05-35.72-2.04-53.65.89-30.08,4.91-50.59,14.58-66.5,31.36-20.5,21.62-34.58,56.36-43.05,106.2Z"/>
    <path class="cls-2" d="M245.51,498.35l-133.07,11.65,15.53-79.82-4.38-51.26c7.58-2.25,15.59-4.1,24.08-5.61,1.15-.2,2.3-.4,3.47-.59,14.26-2.33,27.98-2.77,40.9-2.5,2.66.05,5.29.13,7.88.24l21.4,39.19,24.19,88.71Z"/>
    <circle class="cls-3" cx="150.5" cy="339.93" r="7"/>
    <polygon class="cls-3" points="164.56 370.14 172.93 384.98 178.2 369.18 164.56 370.14"/>
  </g>
  <g>
    <path class="cls-1" d="M710.23,754.14c-1.15,2.42-2.35,5.31-5.53,5.95-4.63.94-16.97-5.78-26.18-3.06-9.22,2.72-14.07,16.17-14.07,16.17l74.67,28.43,16.88-44.33-40.48-16.06s-3.87,9.91-5.29,12.9Z"/>
    <path class="cls-2" d="M900.82,333.31l-10.63,55.4-62.83-16.98,9.11-28.96,8.74,2.5c1.3-4.57-1.34-9.34-5.92-10.65-.08-.02-.16-.05-.24-.06l4.91-15.6c4.67-14.82,20.07-23.44,35.14-19.67,15.12,3.78,24.65,18.71,21.72,34.02Z"/>
    <rect class="cls-2" x="830.73" y="317.3" width="22.62" height="12.44" rx="6.22" ry="6.22" transform="translate(121.43 -219.08) rotate(15.96)"/>
    <circle class="cls-1" cx="883.6" cy="339.69" r="7"/>
    <path class="cls-1" d="M854.36,301.62s1.08,18.26,14.47,25.94c12.4,7.12.41.8-3.78,26.03l47.93,10.6s4.93-12.97.29-24.58c-4.64-11.61.68-23.26-11.36-35.77s-26.98-12.34-37.56-8.12c-6.75,2.69-9.99,5.9-9.99,5.9Z"/>
    <circle class="cls-2" cx="871.13" cy="335.75" r="7.3"/>
    <path class="cls-1" d="M881.33,783.49c0,5.79-7.36,9.18-10.35,17.44-1.96,5.39-.51,17.06-.51,17.06h51.01s2.84-12.03-4.95-22.44c-5.33-7.13-8.65-12.05-8.65-12.05h-26.55Z"/>
    <polygon class="cls-2" points="906.32 469.5 941.02 786.02 858.8 786.02 845.19 557.86 835.91 556.24 767.8 768.45 684.97 737.52 798.42 469.5 906.32 469.5"/>
    <path class="cls-2" d="M1005.39,580.45c-11.97,0-22.54-8.62-24.62-20.82-8.47-49.84-22.55-84.58-43.05-106.2-15.91-16.78-36.42-26.45-66.5-31.36-9.37-1.53-19.29-2.68-28.88-3.79-13.88-1.61-28.23-3.27-41.39-6.15-17.51-3.83-33.97-14.28-45.16-28.69-12.74-16.4-18.19-37.04-15.34-58.12,2.9-21.46,13.57-39.32,30.86-51.66,20.26-14.45,48.54-19.84,75.65-14.42,13.54,2.71,22.32,15.88,19.61,29.42-2.71,13.54-15.88,22.32-29.42,19.61-13.62-2.72-27.72-.39-36.8,6.09-5.93,4.23-9.32,10-10.35,17.64-2.54,18.79,11.92,29.15,21.62,31.27,10.72,2.34,23.23,3.79,36.47,5.33,10.16,1.18,20.67,2.39,31.19,4.11,41.02,6.7,71.12,21.41,94.72,46.31,27.54,29.05,45.88,72.3,56.06,132.23,2.31,13.61-6.85,26.52-20.46,28.83-1.42.24-2.83.36-4.22.36Z"/>
    <path class="cls-1" d="M775.4,472.32l146.59,12.25-15.17-57.55v-48.1s-13.3-4.65-47-9.65c-17.33-2.57-43.61-5.08-43.61-5.08l-13.61,50.49-27.19,57.65Z"/>
  </g>
  <path class="cls-3" d="M1240.06,189.78c1.99-59.75-44.84-109.79-104.59-111.78-59.75-1.99-109.79,44.84-111.78,104.59s44.84,109.79,104.59,111.78c7.78.26,15.4-.32,22.77-1.64l18.03,19.26.81-24.44c39.78-14.93,68.67-52.67,70.17-97.78Z"/>
  <polygon class="cls-2" points="165.03 370.99 160.66 363.24 132.91 365.74 131.73 380.39 165.03 370.99"/>
  <polygon class="cls-2" points="177.84 370.25 180.44 362.25 201.43 363.17 204.91 373.37 177.84 370.25"/>
  <path class="cls-1" d="M1185.67,167.04l-9.77-16.93c-1.68-2.91-5.41-3.91-8.32-2.23l-5.26,3.04c-6.47,3.74-14.56-.93-14.56-8.41v-6.08c0-3.36-2.73-6.09-6.09-6.09h-19.55c-3.36,0-6.09,2.73-6.09,6.09v6.08c0,7.47-8.09,12.15-14.56,8.41l-5.26-3.04c-2.91-1.68-6.64-.68-8.32,2.23l-9.77,16.93c-1.68,2.91-.68,6.64,2.23,8.32l5.26,3.04c6.47,3.74,6.47,13.08,0,16.82l-5.26,3.04c-2.91,1.68-3.91,5.41-2.23,8.32l9.77,16.93c1.68,2.91,5.41,3.91,8.32,2.23l5.26-3.04c6.47-3.74,14.56.93,14.56,8.41v6.08c0,3.36,2.73,6.09,6.09,6.09h19.55c3.36,0,6.09-2.73,6.09-6.09v-6.08c0-7.47,8.09-12.15,14.56-8.41l5.26,3.04c2.91,1.68,6.64.68,8.32-2.23l9.77-16.93c1.68-2.91.68-6.64-2.23-8.32l-5.26-3.04c-6.47-3.74-6.47-13.08,0-16.82l5.26-3.04c2.91-1.68,3.91-5.41,2.23-8.32ZM1148.19,196.22h0c-3.36,5.83-9.58,9.42-16.31,9.42h0c-6.73,0-12.94-3.59-16.31-9.42h0c-3.36-5.83-3.36-13.01,0-18.83h0c3.36-5.83,9.58-9.42,16.31-9.42h0c6.73,0,12.94,3.59,16.31,9.42h0c3.36,5.83,3.36,13.01,0,18.83Z"/>
  <circle class="cls-2" cx="876.6" cy="194.97" r="30.22"/>
  <circle class="cls-2" cx="904.37" cy="245.74" r="17.7"/>
  <circle class="cls-2" cx="904.37" cy="284.63" r="10.08"/>
  <path class="cls-1" d="M837.97,127.51l21.62-4.42-6.45-31.59,16.43-3.36-4.42-21.62-112.62,23.01c-8.29-16.36-26.79-25.89-45.61-22.05-22.56,4.61-37.17,26.71-32.56,49.27,4.61,22.56,26.71,37.17,49.27,32.56,18.82-3.84,32.09-19.86,33.31-38.16l41.86-8.55,4.87,23.86,21.62-4.42-4.87-23.86,11.09-2.27,6.45,31.59ZM719.22,127.7c-10.64,2.17-21.06-4.71-23.24-15.35s4.71-21.06,15.35-23.24c10.64-2.17,21.06,4.71,23.24,15.35,2.17,10.64-4.71,21.06-15.35,23.24Z"/>
</svg>