<?xml version="1.0" encoding="UTF-8"?>
<svg id="Layer_1" data-name="Layer 1" xmlns="http://www.w3.org/2000/svg" viewBox="0 0 363.63 538.15">
  <defs>
    <style>
      .cls-1 {
        fill: #ff4f00;
      }

      .cls-2 {
        fill: #0b0426;
      }

      .cls-3 {
        fill: #eac6fb;
      }
    </style>
  </defs>
  <path class="cls-1" d="M258.08,447.57c0,27.29-34.14,49.42-76.26,49.42s-76.26-22.13-76.26-49.42c0-2.99.41-5.91,1.19-8.76,16.28,14.82,43.82,24.56,75.06,24.56s58.8-9.75,75.08-24.58c.78,2.84,1.19,5.78,1.19,8.77Z"/>
  <ellipse class="cls-1" cx="181.82" cy="477.84" rx="76.26" ry="49.42"/>
  <ellipse class="cls-1" cx="181.82" cy="511.93" rx="30.99" ry="26.22"/>
  <path class="cls-2" d="M256.89,438.8c-16.28,14.83-43.84,24.58-75.08,24.58s-58.77-9.75-75.06-24.56c6.38-23.11,37.55-40.66,75.07-40.66s68.68,17.55,75.07,40.65Z"/>
  <path class="cls-3" d="M363.63,181.82c0,59.13-28.23,111.66-71.93,144.86-23.16,17.95-19.27,52.3-19.27,80.82,0,11.6-5.73,22.37-15.53,31.3-6.39-23.1-37.57-40.65-75.07-40.65s-68.69,17.55-75.07,40.66c-9.82-8.93-15.54-19.71-15.54-31.31,0-28.51,3.89-62.85-19.25-80.8t-.03-.03C28.22,293.48,0,240.95,0,181.82,0,81.41,81.39,0,181.81,0s181.82,81.41,181.82,181.82Z"/>
  <path class="cls-1" d="M69.61,208.8l18.08-2.86c15.08-2.39,26.91-14.21,29.3-29.3l2.86-18.08c1.55-9.82,15.68-9.82,17.23,0l2.86,18.08c2.39,15.08,14.21,26.91,29.3,29.3l18.08,2.86c9.82,1.55,9.82,15.68,0,17.23l-18.08,2.86c-15.08,2.39-26.91,14.21-29.3,29.3l-2.86,18.08c-1.55,9.82-15.68,9.82-17.23,0l-2.86-18.08c-2.39-15.08-14.21-26.91-29.3-29.3l-18.08-2.86c-9.82-1.55-9.82-15.68,0-17.23Z"/>
  <path class="cls-1" d="M297.06,156.95l-10.61-1.68c-8.85-1.4-15.79-8.34-17.19-17.19l-1.68-10.61c-.91-5.76-9.2-5.76-10.11,0l-1.68,10.61c-1.4,8.85-8.34,15.79-17.19,17.19l-10.61,1.68c-5.76.91-5.76,9.2,0,10.11l10.61,1.68c8.85,1.4,15.79,8.34,17.19,17.19l1.68,10.61c.91,5.76,9.2,5.76,10.11,0l1.68-10.61c1.4-8.85,8.34-15.79,17.19-17.19l10.61-1.68c5.76-.91,5.76-9.2,0-10.11Z"/>
  <path class="cls-1" d="M159.02,90.9l7.8-1.23c6.5-1.03,11.6-6.13,12.63-12.63l1.23-7.8c.67-4.23,6.76-4.23,7.43,0l1.23,7.8c1.03,6.5,6.13,11.6,12.63,12.63l7.8,1.23c4.23.67,4.23,6.76,0,7.43l-7.8,1.23c-6.5,1.03-11.6,6.13-12.63,12.63l-1.23,7.8c-.67,4.23-6.76,4.23-7.43,0l-1.23-7.8c-1.03-6.5-6.13-11.6-12.63-12.63l-7.8-1.23c-4.23-.67-4.23-6.76,0-7.43Z"/>
</svg>