<?xml version="1.0" encoding="UTF-8"?>
<svg id="Layer_1" data-name="Layer 1" xmlns="http://www.w3.org/2000/svg" viewBox="0 0 501.29 982.54">
  <defs>
    <style>
      .cls-1 {
        fill: #ff4f00;
      }

      .cls-2 {
        fill: #0b0426;
      }

      .cls-3 {
        fill: #f1e3fd;
      }
    </style>
  </defs>
  <g>
    <path class="cls-1" d="M86.56,311.58l-28.44-8.23-16.79,80.99s10.88,4.75,19.56-1.91c11.02-8.46,8.48-33.05,19.41-31.85l6.26-39Z"/>
    <path class="cls-1" d="M55.95,194.21c-6.9,11.96-2.79,27.25,9.17,34.15,3.93,2.27,8.23,3.35,12.46,3.35,8.65,0,17.05-4.49,21.68-12.52l-6.22-24.97h-37.1Z"/>
    <path class="cls-1" d="M483.69,117.82c7.46-11.62,4.09-27.08-7.53-34.54-11.62-7.46-27.08-4.09-34.54,7.53l7.84,27.01h34.24Z"/>
    <path class="cls-2" d="M213.39,218.15l-20.94,100.85-108.03-14.66-7.93,71.8,120.35,12.78c32.07,2.52,56.8-21.24,66.01-51.63l40.06-106.22"/>
    <path class="cls-1" d="M295.56,102.09l-66.46,1.85-2.04-57.98c.97-20.04,11.79-36.44,30.88-39.27,4.76-.7,9.45-.44,13.87.62,16,3.87,26.99,18.62,27.06,35.08l-1.23,22.19-15.15,4.64c3.02,4.26,8.99,6,14.55,6.05l-1.48,26.81Z"/>
    <rect class="cls-1" x="284.25" y="42.74" width="28" height="15.39" rx="7.7" ry="7.7" transform="translate(598.95 83.25) rotate(176.63)"/>
    <path class="cls-2" d="M99.27,219.18l-43.32-24.97c12.34-21.41,25.35-39.56,38.67-53.95,51.84-56.04,102.63-50.61,139.71-46.64,5.41.58,10.51,1.12,15.34,1.46l-3.44,49.88c-5.77-.4-11.59-1.02-17.22-1.62-33.75-3.61-62.9-6.73-97.69,30.88-10.79,11.66-21.57,26.79-32.05,44.97Z"/>
    <path class="cls-3" d="M99.27,219.18l-43.32-24.98c2.28-3.96,4.61-7.84,6.91-11.54l42.45,26.42c-2.01,3.22-4.04,6.62-6.04,10.1Z"/>
    <path class="cls-2" d="M365.19,190.85c-20.85,0-41.69-5.52-60.94-16.41-17.32-9.79-33.92-24.33-49.33-43.2l38.73-31.62c11.47,14.04,23.31,24.58,35.2,31.3,18.72,10.58,38.81,12.79,58.1,6.38,20.64-6.85,39.54-22.93,54.66-46.49l42.08,27.01c-21.37,33.29-49.37,56.43-80.98,66.93-12.28,4.08-24.91,6.1-37.52,6.1Z"/>
    <path class="cls-2" d="M292.75,22.18c-2.88,16.46-29.34,39.57-64.81,48.73,0,0-3.21-17.31-2.09-33.64,1.37-19.92,18.26-33.83,36.42-34.09,17.61-.26,27.31,13.09,30.48,19Z"/>
    <path class="cls-2" d="M213.39,218.15l129.92,143.9,71.31,108.45,56.43-46.41-62.61-100.84c-6.5-10.46-14.08-20.22-22.61-29.1l-95.76-112.29"/>
    <polygon class="cls-2" points="228.73 93.46 213.39 218.15 328.36 223.37 295.82 98.41 228.73 93.46"/>
    <path class="cls-1" d="M420.14,465.96l15.87,25,66.2-49.59s-5.01-10.77-15.92-11.52c-13.85-.95-28.23,19.16-35.64,11.03l-30.51,25.09Z"/>
    <circle class="cls-1" cx="255.5" cy="58.35" r="8.99"/>
    <path class="cls-2" d="M264.76,54.85c20.47-10.52,37.46-26.95,41.1-48.79l-12.15,2.25.53-7.63s-33.31,1.81-38.38,3.16"/>
    <path class="cls-1" d="M299.85,96.6l-11.12-.82c-1.84-.14-3.24,1.62-2.71,3.38l4.3,14.21c.34,1.11,1.36,1.87,2.52,1.87h9.59c1.67,0,2.91-1.53,2.57-3.16l-2.77-13.39c-.24-1.15-1.21-2-2.38-2.09Z"/>
    <path class="cls-1" d="M294.08,113.43c3.95,22.63-25.12,46.7-46.54,53.51-.77.25-1.45.73-1.92,1.39l-11.22,15.92c-1.59,2.26-.22,5.41,2.52,5.77l18.54,2.48c.83.11,1.67-.06,2.39-.49,7.49-4.51,50.17-31.06,45.53-78.59h-9.29Z"/>
    <path class="cls-3" d="M475.02,130.28l-39.93-30.09c2.24-2.98,4.44-6.14,6.53-9.39l42.08,27.01c-2.76,4.3-5.68,8.49-8.67,12.46Z"/>
  </g>
  <circle class="cls-1" cx="251.22" cy="737.82" r="245.4"/>
  <path class="cls-2" d="M251.22,737.82l-18.21,244.73c-127.42-9.48-227.2-116.96-227.2-244.73,0-62.81,24.11-123.29,67.33-168.86l178.07,168.86Z"/>
  <path class="cls-3" d="M251.22,737.82l79.3,232.24c-25.53,8.72-52.33,13.17-79.3,13.17-37.34,0-74.19-8.52-107.74-24.92l107.74-220.49Z"/>
  <path class="cls-3" d="M365.87,18.91c4.3-2.98,9.55-3.52,14.15-1.94,0,0,0,0,0,0,1.53-3.39,4.26-6.31,8.12-8.01,5.81-2.56,12.76-1.3,17.3,3.14,3.01,2.94,4.54,6.62,4.79,10.32,0,0,0,0,0,0,5.51-.45,11.11,1.99,14.44,6.91,3.59,5.31,3.38,12.36-.11,17.74-1.93,2.98-4.46,4.76-7.16,5.84,0,0,0,0,0,0,3.34,6.91,1.27,15.4-5.24,19.9-5.71,3.95-13.09,3.62-18.39-.27,0,0,0,0,0,0-1.34,1.41-2.97,2.61-4.9,3.5-5.73,2.65-12.65,1.55-17.29-2.72-2.52-2.32-4.03-5.14-4.72-8.07,0,0,0,0,0,0l-31.38,1.95c-3.11.19-4.54-3.79-2.03-5.62l28.35-20.69h0c-4.91-7.19-3.11-17,4.06-21.97Z"/>
</svg>