<?xml version="1.0" encoding="utf-8"?>
<!-- Generator: Adobe Illustrator 26.0.0, SVG Export Plug-In . SVG Version: 6.00 Build 0)  -->
<svg version="1.1" id="Layer_1" xmlns="http://www.w3.org/2000/svg" xmlns:xlink="http://www.w3.org/1999/xlink" x="0px" y="0px"
	 viewBox="0 0 1500 502.13" style="enable-background:new 0 0 1500 502.13;" xml:space="preserve">
<style type="text/css">
	.st0{fill:#040022;}
</style>
<g>
	<path class="st0" d="M172.38,58.26c-8.4-12.01-11.41-16.22-19.21-16.22c-19.83,0-69.08,33.65-16.82,129.14h92.5v30.04h-90.7v211.42
		c0,60.08,7.2,66.68,60.66,72.09v9.61H0v-9.61c40.25-5.41,40.85-12.01,40.85-72.09V201.21H0v-30.04h40.85v-2.41
		c0-93.09,79.88-155.56,150.16-155.56c48.05,0,76.28,28.22,76.28,55.85c0,25.23-17.42,39.64-38.44,39.64
		c-13.82,0-24.02-3.01-32.44-15.62L172.38,58.26z"/>
	<path class="st0" d="M362.81,412.63c0,60.08,3.01,66.68,49.25,72.09v9.61h-187.4v-9.61c40.25-5.41,40.85-12.01,40.85-72.09V278.1
		c0-52.86-1.2-58.27-40.85-60.06v-9.62l134.54-42.03l1.8,68.46c22.22-28.82,49.85-67.28,87.69-67.28
		c31.84,0,54.06,19.83,54.06,52.86c0,36.05-24.02,57.67-48.05,57.67c-14.42,0-18.03-2.41-27.03-14.42l-17.42-23.42
		c-8.4-11.41-10.81-12.01-15.62-12.01c-7.8,0-21.02,9.01-31.83,24.02V412.63z"/>
	<path class="st0" d="M520.56,421.13c-53.57-86.22-32.73-190.4,40.74-236.04c67.35-41.85,138.31-30.08,183.65,37.22L565.88,333.57
		c2.53,4.07,4.56,8.48,7.09,12.55c41.85,67.35,107.65,78.8,163.26,44.24c26.01-16.16,50.1-44.56,55.95-71.55l9.3,1.3
		c1.97,47.58-10.64,118.33-71.34,156.05C650.04,525.94,567.48,496.63,520.56,421.13z M554.21,312.52l101.52-63.08
		c-25.75-39.16-59.18-56.56-89.28-37.86C534.82,231.23,532.1,268.98,554.21,312.52z"/>
	<path class="st0" d="M786.37,208.41l134.54-42.03l2.41,62.47c18.03-30.64,44.45-63.07,97.31-63.07
		c49.25,0,92.49,34.23,92.49,114.12v132.73c0,60.08,0.6,66.68,40.85,72.09v9.61H982.19v-9.61c33.03-5.41,33.63-12.01,33.63-72.09
		V297.31c0-44.44-19.21-68.46-49.25-68.46c-19.23,0-33.04,7.2-42.05,16.21v167.58c0,60.08,0.6,66.68,34.25,72.09v9.61H786.37v-9.61
		c40.25-5.41,40.85-12.01,40.85-72.09V278.1c0-52.86-1.2-58.27-40.85-60.06V208.41z"/>
	<path class="st0" d="M1316.8,53.45v-9.61L1461.56,0c-0.6,31.23-2.41,74.48-2.41,134.54v251.67c0,52.86,1.2,58.27,40.85,60.08v9.61
		l-126.74,43.85l-8.42-60.08c-13.21,26.43-48.05,62.47-96.7,62.47c-73.88,0-121.94-74.48-121.94-155.56
		c0-110.53,73.89-180.8,154.97-180.8c22.23,0,48.65,9.01,60.68,21.62v-75.08C1361.85,59.46,1361.25,55.25,1316.8,53.45z
		 M1244.12,299.72c0,70.28,29.42,139.95,79.88,139.95c16.82,0,30.04-4.19,37.85-14.42V218.64c-9.02-18.03-30.04-31.24-52.26-31.24
		C1271.15,187.4,1244.12,223.43,1244.12,299.72z"/>
</g>
</svg>
