<?xml version="1.0" encoding="utf-8"?>
<!-- Generator: Adobe Illustrator 26.0.1, SVG Export Plug-In . SVG Version: 6.00 Build 0)  -->
<svg version="1.1" id="Layer_1" xmlns="http://www.w3.org/2000/svg" xmlns:xlink="http://www.w3.org/1999/xlink" x="0px" y="0px"
	 viewBox="0 0 1009.47 823.49" style="enable-background:new 0 0 1009.47 823.49;" xml:space="preserve">
<style type="text/css">
	.st0{fill:#FC5000;}
</style>
<g>
	<g>
		<path class="st0" d="M444.4,172.38c12.01-8.4,16.22-11.41,16.22-19.21c0-19.83-33.65-69.08-129.14-16.82v92.5h-30.04v-90.7H90.02
			c-60.08,0-66.68,7.2-72.09,60.66H8.33V0h9.61c5.41,40.25,12.01,40.85,72.09,40.85h211.42V0h30.04v40.85h2.41
			c93.09,0,155.56,79.88,155.56,150.16c0,48.05-28.22,76.28-55.85,76.28c-25.23,0-39.64-17.42-39.64-38.44
			c0-13.82,3.01-24.02,15.62-32.44L444.4,172.38z"/>
		<path class="st0" d="M90.02,362.81c-60.08,0-66.68,3.01-72.09,49.25H8.33v-187.4h9.61c5.41,40.25,12.01,40.85,72.09,40.85h134.54
			c52.86,0,58.27-1.2,60.06-40.85h9.62l42.03,134.54l-68.46,1.8c28.82,22.22,67.28,49.85,67.28,87.69
			c0,31.84-19.83,54.06-52.86,54.06c-36.05,0-57.67-24.02-57.67-48.05c0-14.42,2.41-18.03,14.42-27.03l23.42-17.42
			c11.41-8.4,12.01-10.81,12.01-15.62c0-7.8-9.01-21.02-24.02-31.83H90.02z"/>
	</g>
	<path class="st0" d="M30.03,742.48c-53.57-86.22-32.73-190.4,40.74-236.04c67.35-41.85,138.31-30.08,183.65,37.22L75.35,654.92
		c2.53,4.07,4.56,8.48,7.09,12.55c41.85,67.35,107.65,78.8,163.26,44.24c26.01-16.16,50.1-44.56,55.95-71.55l9.3,1.3
		c1.97,47.58-10.64,118.33-71.34,156.05C159.51,847.29,76.95,817.99,30.03,742.48z M63.68,633.87l101.52-63.08
		c-25.75-39.16-59.18-56.56-89.28-37.86C44.29,552.59,41.57,590.33,63.68,633.87z"/>
	<path class="st0" d="M295.84,529.77l134.54-42.03l2.41,62.47c18.03-30.64,44.45-63.07,97.31-63.07
		c49.25,0,92.49,34.23,92.49,114.12v132.73c0,60.08,0.6,66.68,40.85,72.09v9.61H491.66v-9.61c33.03-5.41,33.63-12.01,33.63-72.09
		V618.67c0-44.44-19.21-68.46-49.25-68.46c-19.23,0-33.04,7.2-42.05,16.21v167.58c0,60.08,0.6,66.68,34.25,72.09v9.61H295.84v-9.61
		c40.25-5.41,40.85-12.01,40.85-72.09V599.45c0-52.86-1.2-58.27-40.85-60.06V529.77z"/>
	<path class="st0" d="M826.27,374.8v-9.61l144.76-43.84c-0.6,31.23-2.41,74.48-2.41,134.54v251.67c0,52.86,1.2,58.27,40.85,60.08
		v9.61L882.73,821.1l-8.42-60.08c-13.21,26.43-48.05,62.47-96.7,62.47c-73.88,0-121.94-74.48-121.94-155.56
		c0-110.53,73.89-180.8,154.97-180.8c22.23,0,48.65,9.01,60.68,21.62v-75.08C871.32,380.81,870.72,376.61,826.27,374.8z
		 M753.59,621.07c0,70.28,29.42,139.95,79.88,139.95c16.82,0,30.04-4.19,37.85-14.42V539.99c-9.02-18.03-30.04-31.24-52.26-31.24
		C780.62,508.75,753.59,544.79,753.59,621.07z"/>
</g>
</svg>
