<?xml version="1.0" encoding="utf-8"?>
<!-- Generator: Adobe Illustrator 26.0.1, SVG Export Plug-In . SVG Version: 6.00 Build 0)  -->
<svg version="1.1" id="Layer_1" xmlns="http://www.w3.org/2000/svg" xmlns:xlink="http://www.w3.org/1999/xlink" x="0px" y="0px"
	 viewBox="0 0 801.68 1066.51" style="enable-background:new 0 0 801.68 1066.51;" xml:space="preserve">
<style type="text/css">
	.st0{fill:#FC5000;}
</style>
<g>
	<path class="st0" d="M172.38,623.96c-8.4-12.01-11.41-16.22-19.21-16.22c-19.83,0-69.08,33.65-16.82,129.14h92.5v30.04h-90.7
		v211.42c0,60.08,7.2,66.68,60.66,72.09v9.61H0v-9.61c40.25-5.41,40.85-12.01,40.85-72.09V766.92H0v-30.04h40.85v-2.41
		c0-93.09,79.88-155.56,150.16-155.56c48.05,0,76.28,28.22,76.28,55.85c0,25.23-17.42,39.64-38.44,39.64
		c-13.82,0-24.02-3.01-32.44-15.62L172.38,623.96z"/>
	<path class="st0" d="M362.81,978.34c0,60.08,3.01,66.68,49.25,72.09v9.61h-187.4v-9.61c40.25-5.41,40.85-12.01,40.85-72.09V843.8
		c0-52.86-1.2-58.27-40.85-60.06v-9.62l134.54-42.03l1.8,68.46c22.22-28.82,49.85-67.28,87.69-67.28
		c31.84,0,54.06,19.83,54.06,52.86c0,36.05-24.02,57.67-48.05,57.67c-14.42,0-18.03-2.41-27.03-14.42l-17.42-23.42
		c-8.4-11.41-10.81-12.01-15.62-12.01c-7.8,0-21.02,9.01-31.83,24.02V978.34z"/>
	<path class="st0" d="M520.56,986.83c-53.57-86.22-32.73-190.4,40.74-236.04c67.35-41.85,138.31-30.08,183.65,37.22L565.88,899.28
		c2.53,4.07,4.56,8.48,7.09,12.55c41.85,67.35,107.65,78.8,163.26,44.24c26.01-16.16,50.1-44.56,55.95-71.55l9.3,1.3
		c1.97,47.58-10.64,118.33-71.34,156.05C650.04,1091.64,567.48,1062.34,520.56,986.83z M554.21,878.22l101.52-63.08
		c-25.75-39.16-59.18-56.56-89.28-37.86C534.82,796.94,532.1,834.69,554.21,878.22z"/>
	<g>
		<path class="st0" d="M507.96,713.63l-42.03-134.54l62.47-2.41c-30.64-18.03-63.07-44.45-63.07-97.31
			c0-49.25,34.23-92.49,114.12-92.49h132.73c60.08,0,66.68-0.6,72.09-40.85h9.61v171.78h-9.61c-5.41-33.03-12.01-33.63-72.09-33.63
			H596.86c-44.44,0-68.46,19.21-68.46,49.25c0,19.23,7.2,33.04,16.21,42.05h167.58c60.08,0,66.68-0.6,72.09-34.25h9.61v172.39h-9.61
			c-5.41-40.25-12.01-40.85-72.09-40.85H577.64c-52.86,0-58.27,1.2-60.06,40.85H507.96z"/>
		<path class="st0" d="M352.99,183.2h-9.61L299.55,38.44c31.23,0.6,74.48,2.41,134.54,2.41h251.67c52.86,0,58.27-1.2,60.08-40.85
			h9.61l43.85,126.74l-60.08,8.42c26.43,13.21,62.47,48.05,62.47,96.7c0,73.88-74.48,121.94-155.56,121.94
			c-110.53,0-180.8-73.89-180.8-154.97c0-22.23,9.01-48.65,21.62-60.68h-75.08C359.01,138.15,354.8,138.75,352.99,183.2z
			 M599.26,255.88c70.28,0,139.95-29.42,139.95-79.88c0-16.82-4.19-30.04-14.42-37.85H518.18c-18.03,9.02-31.24,30.04-31.24,52.26
			C486.94,228.85,522.98,255.88,599.26,255.88z"/>
	</g>
</g>
</svg>
