<svg xmlns="http://www.w3.org/2000/svg" width="0" height="0"><defs><symbol id="lg-chevron-down" fill="none" viewBox="0 0 10 10"><path stroke="currentColor" stroke-linecap="round" stroke-width="1.5" d="m1 4 3.9999 3L9 4"/></symbol><symbol id="lg-chevron-left" fill="none" viewBox="0 0 10 10"><path stroke="currentColor" stroke-linecap="round" stroke-width="1.5" d="M6 1 3 4.9999 6 9"/></symbol><symbol id="lg-chevron-right" fill="none" viewBox="0 0 10 10"><path stroke="currentColor" stroke-linecap="round" stroke-width="1.5" d="m4 9 3-3.9999L4 1"/></symbol><symbol id="lg-chevron-up" fill="none" viewBox="0 0 10 10"><path stroke="currentColor" stroke-linecap="round" stroke-width="1.5" d="M9 6 5.0001 3 1 6"/></symbol><symbol id="lg-collapse" fill="none" viewBox="0 0 14 14"><path fill="currentColor" d="M13 6.25c.4142 0 .75.3358.75.75s-.3358.75-.75.75H1C.58579 7.75.25 7.4142.25 7s.33579-.75.75-.75z"/></symbol><symbol id="lg-expand" fill="none" viewBox="0 0 14 14"><path fill="currentColor" d="M6.9951.25c.4142 0 .75.33579.75.75v5.25H13c.4142 0 .75.3358.75.75s-.3358.75-.75.75H7.7451V13c0 .4142-.3358.75-.75.75s-.75-.3358-.75-.75V7.75H1C.58579 7.75.25 7.4142.25 7s.33579-.75.75-.75h5.2451V1c0-.41421.3358-.75.75-.75"/></symbol><symbol id="sm-arrow-right" fill="none" viewBox="0 0 10 10"><g clip-path="url(#clip0_31_1867)"><path fill="currentColor" d="M6.59961 9.47751c-.24859.3311-.71854.39787-1.04981.14941-.33109-.24859-.39786-.71854-.14941-1.0498l2.10059-2.79981H1c-.41421 0-.75-.33578-.75-.75.00002-.41419.3358-.75.75-.75h6.50098l-2.10059-2.7998c-.24842-.33127-.18167-.80123.14942-1.0498.33125-.24843.80121-.18166 1.0498.1494l3 4.00001.33789.45019-.33789.4502z"/></g><defs><clipPath id="clip0_31_1867"><path fill="#fff" d="M0 0h10v10H0z"/></clipPath></defs></symbol><symbol id="sm-arrow-top-right" fill="none" viewBox="0 0 10 10"><g clip-path="url(#clip0_1210_67541)"><path fill="currentColor" fill-rule="evenodd" d="M9.41044 7.36238c.05833.40978-.2269.78926-.63667.84797-.40985.05834-.78936-.2268-.84798-.63667l-.49511-3.46579-4.59689 4.59688c-.29289.2929-.76776.2929-1.06066 0-.29273-.2929-.29284-.76782 0-1.06066l4.59689-4.59688-3.46648-.4958c-.40986-.05864-.69501-.43814-.63667-.84798.05878-.40969.43825-.69499.84797-.63667l4.95113.70849.55726.07941.07872.55657z" clip-rule="evenodd"/></g><defs><clipPath id="clip0_1210_67541"><path fill="#fff" d="M0 0h10v10H0z"/></clipPath></defs></symbol><symbol id="sm-bullet" fill="none" viewBox="0 0 10 10"><path fill="currentColor" d="M1 5.77734c-.41421 0-.75-.33578-.75-.75s.33579-.75.75-.75h8c.41421 0 .75.33579.75.75s-.33579.75-.75.75z"/></symbol><symbol id="sm-checkmark" fill="none" viewBox="0 0 10 10"><path fill="currentColor" d="M8.42676 1.5166c.26687-.31648.73993-.35654 1.05664-.08984.31648.26687.35654.73993.08984 1.05664l-5.05176 6-.53125.62988-.57812-.58789-2.94727-3C.17474 5.2299.1792 4.75507.47461 4.46484c.29549-.2901.77032-.28564 1.06055.00977L3.9043 6.88574z"/></symbol><symbol id="sm-close-thin" fill="none" viewBox="0 0 10 10"><g clip-path="url(#clip0_578_31127)"><path fill="currentColor" d="M1.14688 1.14616c.19529-.19492.51126-.19446.70641.00069l3.14677 3.14676 3.14676-3.14676c.19515-.19515.51113-.19563.70642-.00069.19526.19526.19526.51185 0 .70711L5.70647 5.00003l3.14677 3.14676c.19514.19515.19561.51113.00069.70642-.19527.19526-.51185.19526-.70711 0L5.00006 5.70645 1.85329 8.85321c-.19526.19526-.51184.19526-.7071 0-.19495-.19529-.19447-.51126.00069-.70642l3.14676-3.14676-3.14676-3.14676c-.19527-.19526-.19526-.51185 0-.70711"/></g><defs><clipPath id="clip0_578_31127"><path fill="#fff" d="M0 0h10v10H0z"/></clipPath></defs></symbol><symbol id="sm-pause" fill="none" viewBox="0 0 10 10"><path stroke="#0B0426" stroke-linecap="round" stroke-width="1.5" d="M2 1v8M8 1v8"/></symbol><symbol id="sm-play" fill="none" viewBox="0 0 10 10"><path fill="currentColor" d="M2 .7217c0-.31417.34558-.50571.612-.3392l6.84528 4.2783c.25067.15667.25067.52173 0 .6784L2.612 9.6175C2.34558 9.78401 2 9.59247 2 9.2783z"/></symbol><symbol id="sm-star" fill="none" viewBox="0 0 10 10"><g clip-path="url(#clip0_1042_11179)"><path fill="currentColor" d="M4.62207 1.08679c.1246-.35805.63131-.35809.75586 0l.82324 2.37012c.05493.15802.20287.26513.37012.26855l2.50879.05176c.37917.00773.53561.48963.2334.71875L7.31445 6.0116c-.13329.10106-.19.27445-.1416.43457l.72656 2.40234c.1095.36286-.30012.65992-.61132.44336L5.22852 7.85925a.40015.40015 0 0 0-.45704 0L2.71191 9.29187c-.31122.21657-.72088-.08047-.61132-.44336l.72656-2.40234c.04837-.1601-.00832-.33353-.1416-.43457L.68652 4.49597c-.30221-.22912-.14577-.71102.2334-.71875l2.50879-.05176c.16718-.0035.31424-.11059.36914-.26855z"/></g><defs><clipPath id="clip0_1042_11179"><path fill="#fff" d="M0 0h10v10H0z"/></clipPath></defs></symbol></defs></svg>