<svg xmlns="http://www.w3.org/2000/svg" width="0" height="0"><defs><symbol id="arrow-down-square" fill="none" stroke="currentColor" stroke-linecap="round" stroke-linejoin="round" stroke-width="2" viewBox="0 0 24 24"><rect width="18" height="18" x="3" y="3" rx="2"/><path d="M12 8v8M8 12l4 4 4-4"/></symbol><symbol id="arrow-left-square" fill="none" stroke="currentColor" stroke-linecap="round" stroke-linejoin="round" stroke-width="2" viewBox="0 0 24 24"><rect width="18" height="18" x="3" y="3" rx="2"/><path d="m12 8-4 4 4 4M16 12H8"/></symbol><symbol id="arrow-up-square" fill="none" stroke="currentColor" stroke-linecap="round" stroke-linejoin="round" stroke-width="2" viewBox="0 0 24 24"><rect width="18" height="18" x="3" y="3" rx="2"/><path d="m16 12-4-4-4 4M12 16V8"/></symbol><symbol id="camera" fill="none" viewBox="0 0 15 15"><path fill="currentColor" fill-rule="evenodd" d="M2 3c-.55228 0-1 .44772-1 1v7c0 .5523.44772 1 1 1h11c.5523 0 1-.4477 1-1V4c0-.55228-.4477-1-1-1zM0 4c0-1.10457.89543-2 2-2h11c1.1046 0 2 .89543 2 2v7c0 1.1046-.8954 2-2 2H2c-1.10457 0-2-.8954-2-2zm2 .25c0-.13807.11193-.25.25-.25h2.5c.13807 0 .25.11193.25.25v1.50454c0 .13807-.11193.25-.25.25h-2.5c-.13807 0-.25-.11193-.25-.25zm10.101 3.33421c0 1.43652-1.1645 2.60109-2.60102 2.60109S6.89893 9.02073 6.89893 7.58421s1.16453-2.60106 2.60105-2.60106S12.101 6.14769 12.101 7.58421m1 0c0 1.98881-1.6122 3.60109-3.60102 3.60109-1.98881 0-3.60105-1.61228-3.60105-3.60109s1.61224-3.60106 3.60105-3.60106c1.98882 0 3.60102 1.61225 3.60102 3.60106" clip-rule="evenodd"/></symbol><symbol id="card-stack" fill="none" viewBox="0 0 15 15"><path fill="currentColor" fill-rule="evenodd" d="M2 3.5c0-.27614.22386-.5.5-.5h10c.2761 0 .5.22386.5.5v6c0 .27614-.2239.5-.5.5h-10c-.27614 0-.5-.22386-.5-.5zm0 7.4146c-.5826-.2059-1-.7615-1-1.4146v-6C1 2.67157 1.67157 2 2.5 2h10c.8284 0 1.5.67157 1.5 1.5v6c0 .6531-.4174 1.2087-1 1.4146V11.5c0 .8284-.6716 1.5-1.5 1.5h-8c-.82843 0-1.5-.6716-1.5-1.5zM12 11v.5c0 .2761-.2239.5-.5.5h-8c-.27614 0-.5-.2239-.5-.5V11z" clip-rule="evenodd"/></symbol><symbol id="check" fill="none" stroke="currentColor" stroke-linecap="round" stroke-linejoin="round" stroke-width="2" viewBox="0 0 24 24"><path d="M20 6 9 17l-5-5"/></symbol><symbol id="loader-circle" fill="none" stroke="currentColor" stroke-linecap="round" stroke-linejoin="round" stroke-width="2" viewBox="0 0 24 24"><path d="M21 12a9 9 0 1 1-6.219-8.56"/></symbol><symbol id="loader-pinwheel" fill="none" stroke="currentColor" stroke-linecap="round" stroke-linejoin="round" stroke-width="2" viewBox="0 0 24 24"><path d="M2 12c0-2.8 2.2-5 5-5s5 2.2 5 5 2.2 5 5 5 5-2.2 5-5"/><path d="M7 20.7a1 1 0 1 1 5-8.7 1 1 0 1 0 5-8.6"/><path d="M7 3.3a1 1 0 1 1 5 8.6 1 1 0 1 0 5 8.6"/><circle cx="12" cy="12" r="10"/></symbol></defs></svg>