<svg xmlns="http://www.w3.org/2000/svg" width="0" height="0"><defs><symbol id="arrow-down-square" fill="none" stroke="currentColor" stroke-linecap="round" stroke-linejoin="round" stroke-width="2" viewBox="0 0 24 24"><rect width="18" height="18" x="3" y="3" rx="2"/><path d="M12 8v8M8 12l4 4 4-4"/></symbol><symbol id="arrow-left-square" fill="none" stroke="currentColor" stroke-linecap="round" stroke-linejoin="round" stroke-width="2" viewBox="0 0 24 24"><rect width="18" height="18" x="3" y="3" rx="2"/><path d="m12 8-4 4 4 4M16 12H8"/></symbol><symbol id="arrow-right" fill="none" viewBox="0 0 10 10"><path fill="currentColor" d="M6.66211 9.70044c-.24859.33106-.71854.39786-1.04981.14941-.33109-.2486-.39786-.71854-.14941-1.0498l2.10059-2.79981H1.0625c-.41421 0-.75-.33578-.75-.75.00002-.4142.3358-.75.75-.75h6.50098l-2.10059-2.7998c-.24842-.33127-.18167-.80123.14941-1.04981.33126-.24842.80122-.18165 1.04981.14942l3 4L10 5.25024l-.33789.4502z"/></symbol><symbol id="arrow-top-right" fill="none" viewBox="0 0 10 10"><path fill="currentColor" d="M6.66211 9.70044c-.24856.33106-.71853.39786-1.04981.14947-.33103-.24857-.39778-.71855-.14941-1.04981L7.5625 6.00029h-6.5c-.41408 0-.74979-.33596-.75-.75 0-.41421.33579-.75.75-.75h6.50195L5.46289 1.69756c-.24822-.33127-.18159-.8013.14941-1.0498.3312-.24794.80134-.18136 1.04981.14941l3 4.00195.33789.4502-.33789.44921z"/></symbol><symbol id="arrow-up-square" fill="none" stroke="currentColor" stroke-linecap="round" stroke-linejoin="round" stroke-width="2" viewBox="0 0 24 24"><rect width="18" height="18" x="3" y="3" rx="2"/><path d="m16 12-4-4-4 4M12 16V8"/></symbol><symbol id="bullet" fill="none" viewBox="0 0 10 10"><path fill="currentColor" d="M9 4.25c.41421 0 .75.33579.75.75s-.33579.75-.75.75H1C.58579 5.75.25 5.41421.25 5s.33579-.75.75-.75z"/></symbol><symbol id="camera" fill="none" viewBox="0 0 15 15"><path fill="currentColor" fill-rule="evenodd" d="M2 3c-.55228 0-1 .44772-1 1v7c0 .5523.44772 1 1 1h11c.5523 0 1-.4477 1-1V4c0-.55228-.4477-1-1-1zM0 4c0-1.10457.89543-2 2-2h11c1.1046 0 2 .89543 2 2v7c0 1.1046-.8954 2-2 2H2c-1.10457 0-2-.8954-2-2zm2 .25c0-.13807.11193-.25.25-.25h2.5c.13807 0 .25.11193.25.25v1.50454c0 .13807-.11193.25-.25.25h-2.5c-.13807 0-.25-.11193-.25-.25zm10.101 3.33421c0 1.43652-1.1645 2.60109-2.60102 2.60109S6.89893 9.02073 6.89893 7.58421s1.16453-2.60106 2.60105-2.60106S12.101 6.14769 12.101 7.58421m1 0c0 1.98881-1.6122 3.60109-3.60102 3.60109-1.98881 0-3.60105-1.61228-3.60105-3.60109s1.61224-3.60106 3.60105-3.60106c1.98882 0 3.60102 1.61225 3.60102 3.60106" clip-rule="evenodd"/></symbol><symbol id="card-stack" fill="none" viewBox="0 0 15 15"><path fill="currentColor" fill-rule="evenodd" d="M2 3.5c0-.27614.22386-.5.5-.5h10c.2761 0 .5.22386.5.5v6c0 .27614-.2239.5-.5.5h-10c-.27614 0-.5-.22386-.5-.5zm0 7.4146c-.5826-.2059-1-.7615-1-1.4146v-6C1 2.67157 1.67157 2 2.5 2h10c.8284 0 1.5.67157 1.5 1.5v6c0 .6531-.4174 1.2087-1 1.4146V11.5c0 .8284-.6716 1.5-1.5 1.5h-8c-.82843 0-1.5-.6716-1.5-1.5zM12 11v.5c0 .2761-.2239.5-.5.5h-8c-.27614 0-.5-.2239-.5-.5V11z" clip-rule="evenodd"/></symbol><symbol id="check" fill="none" stroke="currentColor" stroke-linecap="round" stroke-linejoin="round" stroke-width="2" viewBox="0 0 24 24"><path d="M20 6 9 17l-5-5"/></symbol><symbol id="checkmark" fill="none" viewBox="0 0 10 10"><path fill="currentColor" d="M8.17663 1.26632c.26687-.31648.73993-.35654 1.05664-.08984.31648.26687.35654.73993.08984 1.05664l-5.05175 6-.53125.62988-.57813-.58789-2.94726-3c-.2901-.29549-.28565-.77032.00976-1.06055.29549-.2901.77032-.28564 1.06055.00977l2.36914 2.41113z"/></symbol><symbol id="chevron-down" fill="none" viewBox="0 0 32 32"><path stroke="currentColor" stroke-linecap="round" stroke-width="1.5" d="m11 13.75 5 5 5-5"/></symbol><symbol id="chevron-left" fill="none" viewBox="0 0 32 32"><path stroke="currentColor" stroke-linecap="round" stroke-width="1.5" d="m18.25 21-5-5 5-5"/></symbol><symbol id="chevron-right" fill="none" viewBox="0 0 32 32"><path stroke="currentColor" stroke-linecap="round" stroke-width="1.5" d="m13.75 11 5 5-5 5"/></symbol><symbol id="chevron-up" fill="none" viewBox="0 0 32 32"><path stroke="currentColor" stroke-linecap="round" stroke-width="1.5" d="m21 18.25-5-5-5 5"/></symbol><symbol id="close-small" fill="none" viewBox="0 0 10 10"><path fill="currentColor" d="M7.79307 2.20693c.19526.19526.19526.51184 0 .7071L5.70711 5l2.08596 2.08597c.19526.19526.19526.51184 0 .7071s-.51184.19526-.7071 0L5 5.70711 2.91403 7.79307c-.19526.19526-.51184.19526-.7071 0s-.19526-.51184 0-.7071L4.29289 5 2.20693 2.91403c-.19526-.19526-.19526-.51184 0-.7071s.51184-.19526.7071 0L5 4.29289l2.08597-2.08596c.19526-.19526.51184-.19526.7071 0"/></symbol><symbol id="close" fill="none" viewBox="0 0 32 32"><path fill="currentColor" d="M20.77297 11.22703c.29288.29288.2929.76777 0 1.06066L17.06066 16l3.71231 3.71231c.29288.29288.29288.76778 0 1.06066s-.76778.29288-1.06066 0L16 17.06066l-3.71231 3.71231c-.29288.29288-.76778.29288-1.06066 0s-.29288-.76778 0-1.06066L14.93934 16l-3.71231-3.71231c-.2929-.2929-.29288-.76778 0-1.06066s.76777-.2929 1.06066 0L16 14.93934l3.71231-3.71231c.2929-.2929.76778-.29288 1.06066 0"/></symbol><symbol id="collapse" fill="none" viewBox="0 0 32 32"><path fill="currentColor" d="M22 15.25c.4142 0 .75.3358.75.75s-.3358.75-.75.75H10c-.41421 0-.75-.3358-.75-.75s.33579-.75.75-.75z"/></symbol><symbol id="expand" fill="none" viewBox="0 0 32 32"><path fill="currentColor" d="M16 9.25c.4142 0 .75.33579.75.75v5.25H22c.4142 0 .75.3358.75.75s-.3358.75-.75.75h-5.25V22c0 .4142-.3358.75-.75.75s-.75-.3358-.75-.75v-5.25H10c-.41421 0-.75-.3358-.75-.75s.33579-.75.75-.75h5.25V10c0-.41421.3358-.75.75-.75"/></symbol><symbol id="loader-circle" fill="none" stroke="currentColor" stroke-linecap="round" stroke-linejoin="round" stroke-width="2" viewBox="0 0 24 24"><path d="M21 12a9 9 0 1 1-6.219-8.56"/></symbol><symbol id="loader-pinwheel" fill="none" stroke="currentColor" stroke-linecap="round" stroke-linejoin="round" stroke-width="2" viewBox="0 0 24 24"><path d="M2 12c0-2.8 2.2-5 5-5s5 2.2 5 5 2.2 5 5 5 5-2.2 5-5"/><path d="M7 20.7a1 1 0 1 1 5-8.7 1 1 0 1 0 5-8.6"/><path d="M7 3.3a1 1 0 1 1 5 8.6 1 1 0 1 0 5 8.6"/><circle cx="12" cy="12" r="10"/></symbol><symbol id="pause" fill="none" viewBox="0 0 10 10"><path stroke="currentColor" stroke-linecap="round" stroke-width="1.5" d="M2.75 1v8M7.25 1v8"/></symbol><symbol id="play" fill="none" viewBox="0 0 10 10"><path fill="currentColor" d="M2 .7219c0-.31416.34558-.5057.612-.33919l6.84528 4.2783c.25067.15667.25067.52174 0 .67841L2.612 9.61772C2.34558 9.78423 2 9.5927 2 9.27852z"/></symbol><symbol id="star" fill="none" viewBox="0 0 10 10"><path fill="currentColor" d="M4.09463.26855c.1246-.35805.63131-.35809.75586 0l.82324 2.37012c.05493.15801.20287.26513.37012.26855l2.50879.05176c.37917.00773.53561.48963.2334.71875L6.78702 5.19336c-.1333.10106-.19001.27445-.14161.43457l.72657 2.40234c.10949.36286-.30012.65992-.61133.44336L4.70108 7.04101c-.13733-.09556-.31971-.09556-.45703 0L2.18448 8.47363c-.31123.21657-.72088-.08048-.61133-.44336l.72656-2.40234c.04838-.1601-.00832-.33353-.1416-.43457L.15909 3.67773c-.30222-.22912-.14578-.71102.2334-.71875l2.50878-.05176c.16718-.0035.31424-.11059.36914-.26855z"/></symbol></defs></svg>