<svg width="10" height="10" viewBox="0 0 10 10" fill="none" xmlns="http://www.w3.org/2000/svg">
<g clip-path="url(#clip0_578_31127)">
<path d="M1.14688 1.14616C1.34217 0.951238 1.65814 0.951702 1.85329 1.14685L5.00006 4.29361L8.14682 1.14685C8.34197 0.951696 8.65795 0.951219 8.85324 1.14616C9.0485 1.34142 9.0485 1.65801 8.85324 1.85327L5.70647 5.00003L8.85324 8.14679C9.04838 8.34194 9.04885 8.65792 8.85393 8.85321C8.65866 9.04847 8.34208 9.04847 8.14682 8.85321L5.00006 5.70645L1.85329 8.85321C1.65803 9.04847 1.34145 9.04847 1.14619 8.85321C0.951245 8.65792 0.951721 8.34195 1.14688 8.14679L4.29364 5.00003L1.14688 1.85327C0.951614 1.65801 0.951615 1.34142 1.14688 1.14616Z" fill="currentColor"/>
</g>
<defs>
<clipPath id="clip0_578_31127">
<rect width="10" height="10" fill="white"/>
</clipPath>
</defs>
</svg>
