<svg width="10" height="10" viewBox="0 0 10 10" fill="none" xmlns="http://www.w3.org/2000/svg">
<g clip-path="url(#clip0_1042_11179)">
<path d="M4.62207 1.08679C4.74667 0.728743 5.25338 0.728703 5.37793 1.08679L6.20117 3.45691C6.2561 3.61493 6.40404 3.72204 6.57129 3.72546L9.08008 3.77722C9.45925 3.78495 9.61569 4.26685 9.31348 4.49597L7.31445 6.0116C7.18116 6.11266 7.12445 6.28605 7.17285 6.44617L7.89941 8.84851C8.00891 9.21137 7.59929 9.50843 7.28809 9.29187L5.22852 7.85925C5.09119 7.76369 4.90881 7.76369 4.77148 7.85925L2.71191 9.29187C2.40069 9.50844 1.99103 9.2114 2.10059 8.84851L2.82715 6.44617C2.87552 6.28607 2.81883 6.11264 2.68555 6.0116L0.686523 4.49597C0.38431 4.26685 0.540752 3.78495 0.919922 3.77722L3.42871 3.72546C3.59589 3.72196 3.74295 3.61487 3.79785 3.45691L4.62207 1.08679Z" fill="currentColor"/>
</g>
<defs>
<clipPath id="clip0_1042_11179">
<rect width="10" height="10" fill="white"/>
</clipPath>
</defs>
</svg>
