<svg xmlns="http://www.w3.org/2000/svg" width="10" height="10" viewBox="0 0 10 10" fill="none">
  <path d="M4.09463 0.268552C4.21923 -0.0894977 4.72594 -0.0895368 4.85049 0.268552L5.67373 2.63867C5.72866 2.79668 5.8766 2.9038 6.04385 2.90722L8.55264 2.95898C8.93181 2.96671 9.08825 3.44861 8.78604 3.67773L6.78702 5.19336C6.65372 5.29442 6.59701 5.46781 6.64541 5.62793L7.37198 8.03027C7.48147 8.39313 7.07186 8.69019 6.76065 8.47363L4.70108 7.04101C4.56375 6.94545 4.38137 6.94545 4.24405 7.04101L2.18448 8.47363C1.87325 8.6902 1.4636 8.39315 1.57315 8.03027L2.29971 5.62793C2.34809 5.46783 2.29139 5.2944 2.15811 5.19336L0.159086 3.67773C-0.143127 3.44861 0.0133143 2.96671 0.392484 2.95898L2.90127 2.90722C3.06845 2.90372 3.21551 2.79663 3.27041 2.63867L4.09463 0.268552Z" fill="currentColor"/>
</svg>
