<?xml version="1.0" encoding="UTF-8"?>
<svg id="Layer_1" data-name="Layer 1" xmlns="http://www.w3.org/2000/svg" viewBox="0 0 234.56 534.73">
  <defs>
    <style>
      .cls-1 {
        fill: #ff4f00;
      }

      .cls-2 {
        fill: #875eff;
      }

      .cls-3 {
        fill: #eac6fb;
      }
    </style>
  </defs>
  <rect class="cls-1" x="59.88" y="261.16" width="19.14" height="33.46"/>
  <rect class="cls-1" x="155.56" y="261.16" width="19.14" height="33.46"/>
  <circle class="cls-2" cx="117.28" cy="417.45" r="117.28"/>
  <rect class="cls-2" x="0" y="392.04" width="234.56" height="25.41"/>
  <circle class="cls-1" cx="117.28" cy="392.04" r="117.28"/>
  <polygon class="cls-2" points="79.02 167.67 79.02 265.69 59.88 265.69 40.75 239.44 21.85 213.5 79.02 167.67"/>
  <polygon class="cls-1" points="155.56 106.31 155.56 265.69 79.02 265.69 79.02 167.67 155.56 106.31"/>
  <path class="cls-2" d="M232.1,44.94v129.54c0,8.09-2.57,15.98-7.33,22.52l-30.94,42.45-19.14,26.25h-19.14V106.31l76.55-61.37Z"/>
  <path class="cls-3" d="M173.64,364.33h-30.45c-3.76,0-7.08-2.42-8.25-5.99l-9.41-28.96c-2.6-7.99-13.9-7.99-16.49,0l-9.41,28.96c-1.16,3.57-4.49,5.99-8.25,5.99h-30.45c-8.4,0-11.89,10.75-5.1,15.68l24.64,17.9c3.04,2.21,4.31,6.12,3.15,9.69l-9.41,28.96c-2.6,7.99,6.55,14.63,13.34,9.69l24.64-17.9c3.04-2.21,7.15-2.21,10.19,0l24.64,17.9c6.79,4.94,15.94-1.71,13.34-9.69l-9.41-28.96c-1.16-3.57.11-7.49,3.15-9.69l24.64-17.9c6.79-4.94,3.3-15.68-5.1-15.68Z"/>
  <path class="cls-1" d="M79.02,0v167.67s-57.18,45.83-57.18,45.83l-12.03-16.51c-4.77-6.54-7.34-14.43-7.34-22.52V0h76.55Z"/>
  <polygon class="cls-3" points="155.56 0 155.56 106.31 79.02 167.67 79.02 0 155.56 0"/>
  <polygon class="cls-1" points="232.1 0 232.1 44.94 155.56 106.31 155.56 0 232.1 0"/>
</svg>