<?xml version="1.0" encoding="UTF-8"?>
<svg id="Layer_1" data-name="Layer 1" xmlns="http://www.w3.org/2000/svg" viewBox="0 0 1778.41 967.46">
  <defs>
    <style>
      .cls-1 {
        fill: #ff4f00;
      }

      .cls-2 {
        fill: #f1e3fd;
      }

      .cls-3 {
        fill: #875eff;
      }
    </style>
  </defs>
  <path class="cls-2" d="M180.64,422.43l-17.41,38.91h84.79s6.48-11.33-10.84-17.77c-15.12-5.62-25.06-9.01-25.05-21.69l-31.49.55Z"/>
  <path class="cls-1" d="M238.37,231.02l42.31,75.63c5.63,10.06,5.76,22.3.35,32.48l-45.62,85.82h-70.1l62.69-97.68-78.57-102.97,88.95,6.72Z"/>
  <path class="cls-1" d="M138.37,224.75l-25.05,99.87-90.77,60.49,34.34,44.68,93.22-70.78c8.54-6.48,14.89-15.42,18.21-25.61l31.9-97.95-61.85-10.7Z"/>
  <path class="cls-2" d="M69.42,461.34H29.96l-22.79-37.63-3.87-6.88L0,411.29l29.31-17.68,19.64,24.95s-6.38,4.19-5.95,8.92,1.1,8.32,9.62,12.42c9.8,4.72,18.68,13.84,16.81,21.45Z"/>
  <path class="cls-3" d="M209.18,52.3l-20.73,55.5,65.64,19.08,7.34-29.77-12.07-3.85,14.21-4.83,4.44-17.96c3.91-15.84-5.19-31.98-20.78-36.83-15.62-4.87-32.33,3.32-38.05,18.66Z"/>
  <rect class="cls-3" x="255.36" y="69.08" width="23.76" height="13.06" rx="6.53" ry="6.53" transform="translate(504.88 219.36) rotate(-164.63)"/>
  <polygon class="cls-2" points="258.29 109.87 260.28 230.49 128.15 230.49 194.11 92.64 258.29 109.87"/>
  <rect class="cls-3" x="400.11" y="0" width="460.98" height="460.98" rx="44.07" ry="44.07"/>
  <path class="cls-1" d="M260.28,41.22c-7.47,12.72-18.99,20.21-29.76,20.72,0,0-4.83,18.7-14.9,35.05-6.05,9.82-25.02,4.03-32.63,22.02-9.21,21.77-17.17,32.7-17.17,32.7l-1.43-.22c-12.5-1.34-16.8-14.19-10.85-25.27,13.5-25.14,34.79-63.61,46.28-78.12,17.66-22.32,35.9-22.23,47.56-16.63,7.77,3.73,12.9,9.75,12.9,9.75Z"/>
  <circle class="cls-3" cx="225.02" cy="68.04" r="8.22"/>
  <path class="cls-3" d="M313.61,169.31c-32.64,0-62.32-5.71-112.99-16.15-13.52-2.79-22.23-16.01-19.44-29.53,2.79-13.52,16.01-22.23,29.53-19.44,84.24,17.36,101.77,20.97,192.29,4.08,13.57-2.53,26.63,6.42,29.16,19.99,2.53,13.57-6.42,26.63-19.99,29.16-43.44,8.11-71.99,11.89-98.56,11.89Z"/>
  <path class="cls-1" d="M1252.85,239.53c-11.42,0-22.84-1.21-34.19-3.62-13.51-2.87-22.13-16.15-19.25-29.65,2.87-13.5,16.14-22.13,29.65-19.25,15.86,3.37,31.94,3.36,47.79-.04l73.3-15.73c13.49-2.9,26.79,5.7,29.69,19.2,2.9,13.5-5.7,26.79-19.2,29.69l-73.3,15.73c-11.44,2.45-22.96,3.68-34.49,3.68Z"/>
  <rect class="cls-3" x="1167.43" y="172.64" width="50" height="64.27" transform="translate(744.18 1328.56) rotate(-78)"/>
  <path class="cls-3" d="M247.81,928.55l-17.41,38.91h22.61l3.77-7.06,3.63,7.06h54.78s7.96-18.92-9.35-25.36c-15.12-5.62-26.55-1.42-26.53-14.1l-31.49.55Z"/>
  <path class="cls-2" d="M392.5,496.73l-20.73,55.5,65.64,19.08,7.34-29.77c-2.78.42-9.06-1.32-12.09-6.23l14.23-2.45,4.44-17.96c3.91-15.84-5.19-31.98-20.78-36.83-15.62-4.87-32.33,3.32-38.05,18.66Z"/>
  <rect class="cls-2" x="438.68" y="513.51" width="23.76" height="13.06" rx="6.53" ry="6.53" transform="translate(747.16 1140.9) rotate(-164.63)"/>
  <path class="cls-3" d="M455.36,507.91l-18.97-5.13c-6.37-1.72-13.19,0-17.98,4.54l-4.18,3.96s-2.16,1.72-5.79,5.32c-5.64,5.6-15.85,17.45-28.35,13.28,0,0,9.6-28.25,12.07-35.69,4.36-13.13,18.84-22.75,37.46-18.67,28.67,6.28,25.73,32.38,25.73,32.38Z"/>
  <polygon class="cls-3" points="411.81 674.39 307.58 931.06 232.47 931.06 335.56 671.38 411.81 674.39"/>
  <path class="cls-3" d="M368.15,928.55l-17.41,38.91h22.61l3.77-7.06,3.63,7.06h54.78s7.96-18.92-9.35-25.36c-15.12-5.62-26.55-1.42-26.53-14.1l-31.49.55Z"/>
  <path class="cls-3" d="M429.53,688.65l26.32,96.9c2.76,10.15,2.69,20.85-.2,30.96l-32.74,114.55h-70.1l33.88-125.86-35.95-129.1,78.79,12.55Z"/>
  <polygon class="cls-1" points="441.6 554.29 429.53 688.65 321.11 671.38 377.43 537.06 441.6 554.29"/>
  <path class="cls-1" d="M1132.53,126.4l-3.1,56.33,65.08-1.28-1.77-25.86c-11.7,2.34-14.42-10.08-14.42-10.08l13.9-1.7-1.06-17.58c-.94-15.5-13.79-27.6-29.34-27.59-15.58,0-28.44,12.19-29.29,27.75Z"/>
  <rect class="cls-1" x="1180.61" y="127.07" width="22.62" height="12.44" rx="6.22" ry="6.22" transform="translate(2387.71 225.66) rotate(178.04)"/>
  <path class="cls-3" d="M1192.18,98.46c-7.18,24.11-34.44,34.61-43.02,34.07l-18.16,27.05-4.82-31.95c-2.06-13.66,4.94-27.08,17.32-33.2h0c16.03-7.93,34.38,3.68,48.68,4.03h0Z"/>
  <circle class="cls-1" cx="1148.1" cy="136.21" r="7.83"/>
  <path class="cls-3" d="M978.41,320.53l-31.17-19.96-42.83,67.81s13.07,9.66,25.01,0c11.94-9.66,20.4-23.82,30.63-17.41l18.36-30.44Z"/>
  <path class="cls-3" d="M1144.1,575.33l-7.63,37.13,77.93.24s4.95-16.33-9.58-21.3c-14.53-4.98-26.79-4.62-26.8-16.69l-33.92.63Z"/>
  <polygon class="cls-2" points="1192.77 294.28 1225.98 436.62 1200.24 577.51 1135.38 575.58 1157.86 441.98 1118.81 289.39 1192.77 294.28"/>
  <path class="cls-2" d="M1156.66,324.85l-54.91,80.71c-16.39,24.09-48.49,31.64-73.9,17.39l-79.39-52.08,29.97-55.04,72.38,47.96,51.35-95.84"/>
  <polygon class="cls-3" points="1194.36 173.91 1210.54 315.36 1083.92 302.62 1129.68 178.28 1194.36 173.91"/>
  <circle class="cls-1" cx="1547.92" cy="382.21" r="230.49"/>
  <path class="cls-1" d="M1255.13,253.71c-17.87,0-35.51-2.92-52.61-8.72-13.08-4.43-20.08-18.63-15.65-31.7,4.43-13.08,18.63-20.08,31.7-15.65,15.36,5.21,31.33,7.07,47.46,5.55l74.64-7.04c13.75-1.3,25.94,8.8,27.24,22.54,1.3,13.75-8.8,25.94-22.54,27.24l-74.64,7.04c-5.21.49-10.42.74-15.6.74Z"/>
  <rect class="cls-3" x="595.31" y="506.48" width="460.98" height="460.98" rx="44.07" ry="44.07"/>
  <path class="cls-2" d="M595.49,601.84c13.57-2.53,22.52-15.59,19.99-29.16-2.53-13.57-15.59-22.52-29.16-19.99l-15.83,28.48,25,20.67Z"/>
  <path class="cls-1" d="M496.93,613.73c-32.64,0-62.32-5.71-112.99-16.15l10.09-48.97c84.24,17.36,101.77,20.97,192.29,4.08l9.17,49.15c-43.44,8.11-71.99,11.89-98.56,11.89Z"/>
  <circle class="cls-2" cx="408.33" cy="512.46" r="8.22"/>
  <rect class="cls-3" x="1155.11" y="178.86" width="50" height="64.27" transform="translate(601.39 1260.89) rotate(-71.27)"/>
  <circle class="cls-3" cx="382.07" cy="502.15" r="10.31"/>
</svg>