<?xml version="1.0" encoding="UTF-8"?>
<svg id="Layer_1" data-name="Layer 1" xmlns="http://www.w3.org/2000/svg" viewBox="0 0 546.35 654.08">
  <defs>
    <style>
      .cls-1 {
        fill: #ff4f00;
      }

      .cls-2 {
        fill: #f1e3fd;
      }

      .cls-3 {
        fill: #875eff;
      }
    </style>
  </defs>
  <g>
    <path class="cls-2" d="M524.01,172.46c15.69-77.98-34.81-153.91-112.78-169.6-77.98-15.69-153.91,34.81-169.6,112.78-7.13,35.46-.58,70.49,16.02,99.63,25.74,44.93,22.9,70.07,11.64,126.06-1.64,8.14,3.63,16.06,11.77,17.7l112.48,22.63c8.14,1.64,16.06-3.63,17.7-11.77,11.26-55.99,18.37-80.27,59.48-111.75,26.57-20.45,46.17-50.23,53.3-85.68Z"/>
    <rect class="cls-3" x="274.21" y="370.05" width="120.24" height="30.06" rx="15.03" ry="15.03" transform="translate(82.52 -58.38) rotate(11.38)"/>
    <rect class="cls-3" x="268.28" y="399.52" width="120.24" height="30.06" rx="15.03" ry="15.03" transform="translate(88.22 -56.63) rotate(11.38)"/>
    <path class="cls-3" d="M294.93,423.15c-3.39,16.85,7.52,33.25,24.37,36.64,16.85,3.39,33.25-7.52,36.64-24.37l-61.01-12.27Z"/>
  </g>
  <g>
    <path class="cls-1" d="M152.02,335.71l-16.28,111.22-98.55-6.52-2.69,65.38,109.56,4.05c29.14.28,50.01-22.74,56.44-50.77l26.68-99.67"/>
    <path class="cls-1" d="M208.69,256.06l-59.95,5.81-5.45-52.27c-.37-18.17,8.39-33.67,25.46-37.41,4.26-.93,8.51-.99,12.57-.3,14.7,2.5,25.55,15.15,26.64,30.02l.27,20.13-10.01,1.25c.63,5.09,5.11,8.75,10.14,8.45l.33,24.32Z"/>
    <rect class="cls-1" x="195.22" y="202.24" width="25.36" height="13.94" rx="6.97" ry="6.97" transform="translate(440.73 390.27) rotate(172.69)"/>
    <path class="cls-1" d="M376.78,287.52c13.63-2.19,22.91-15.01,20.72-28.64-2.19-13.63-15.01-22.91-28.64-20.72l-30.55,31.18,38.47,18.19Z"/>
    <path class="cls-3" d="M232.78,300.52c-24,0-43.56-1.29-61.37-2.47-9.35-.62-18.18-1.2-26.65-1.5l1.78-49.97c9.23.33,18.43.93,28.16,1.58,41.6,2.75,93.38,6.16,194.16-10l7.92,49.37c-63.42,10.17-108.55,12.99-144,12.99Z"/>
    <path class="cls-3" d="M201.17,184.02c-1.57,15.05-24.05,37.59-55.54,48.08,0,0-3.98-15.45-3.98-30.27,0-18.09,14.39-31.71,30.79-33.08,15.9-1.33,25.5,10.13,28.73,15.28Z"/>
    <circle class="cls-1" cx="169.76" cy="219.03" r="8.15"/>
    <circle class="cls-3" cx="138.69" cy="173.91" r="23.53"/>
    <path class="cls-1" d="M167.48,338.09l18.31,172.45-10.58,117.1,66.18-1.09,12.46-106.81c1.29-11.08,1.42-22.27.37-33.38l-12.76-135.47"/>
    <polygon class="cls-3" points="146.5 251.41 141.65 366.08 245.88 363.63 225.71 253.09 146.5 251.41"/>
    <path class="cls-2" d="M37.19,440.41l-31.38-2L0,534.89s7.25,3.26,12.69-6.17c5.44-9.43,3.36-23.61,21.8-22.93l2.69-65.38Z"/>
    <path class="cls-2" d="M175.21,627.63l-3.7,26.32,94.75.13s1.76-8.47-7.23-12.04c-8.85-3.51-18.32,2.94-17.64-15.5l-66.18,1.09Z"/>
  </g>
  <path class="cls-1" d="M446.21,56.66l14.48-2.29c12.07-1.91,21.54-11.38,23.45-23.45l2.29-14.48c1.24-7.86,12.56-7.86,13.8,0l2.29,14.48c1.91,12.07,11.38,21.54,23.45,23.45l14.48,2.29c7.86,1.24,7.86,12.56,0,13.8l-14.48,2.29c-12.07,1.91-21.54,11.38-23.45,23.45l-2.29,14.48c-1.24,7.86-12.56,7.86-13.8,0l-2.29-14.48c-1.91-12.07-11.38-21.54-23.45-23.45l-14.48-2.29c-7.86-1.24-7.86-12.56,0-13.8Z"/>
</svg>