<?xml version="1.0" encoding="UTF-8"?>
<svg id="Layer_1" data-name="Layer 1" xmlns="http://www.w3.org/2000/svg" viewBox="0 0 358.95 764.45">
  <defs>
    <style>
      .cls-1 {
        fill: #ff4f00;
      }

      .cls-2 {
        fill: #f1e3fd;
      }

      .cls-3 {
        fill: #875eff;
      }
    </style>
  </defs>
  <path class="cls-3" d="M144.08,430.28c-8.44,38.44-29.13,333.78-29.13,333.78h79.54l8.73-246.05c.05-4.2,7.42-4.78,7.5,0l8.54,246.43h78.84l-24.83-322.83-129.21-11.34Z"/>
  <path class="cls-1" d="M224.03,287.45c4.35-.31,7.63-4.08,7.33-8.44-.31-4.35-4.08-7.63-8.44-7.33-1.7.12-3.22.77-4.45,1.77l-.69-4.57c-3.34-14.91-17.69-24.65-32.78-22.26h0c-14.92,2.36-25.51,15.8-24.33,30.85l.22,2.77c-1.14-.51-2.42-.75-3.75-.66-4.35.31-7.64,4.08-7.33,8.44.31,4.35,4.08,7.63,8.44,7.33,1.38-.1,2.64-.54,3.72-1.24l3.42,43.81,61.28-9.71-6.19-41.33c1.09.45,2.29.66,3.54.58Z"/>
  <path class="cls-3" d="M203.76,293.1c1.67,7.03-2.67,14.09-9.7,15.76-7.03,1.67-14.09-2.67-15.76-9.7"/>
  <g>
    <path class="cls-1" d="M311.26,172.62c-4.42-13.08-18.62-20.12-31.7-15.7-13.08,4.42-20.11,18.59-15.68,31.67l34.23,9.2,13.15-25.17Z"/>
    <path class="cls-1" d="M97.92,202.33c2.81-13.52-5.87-26.76-19.38-29.57-13.52-2.81-26.76,5.87-29.57,19.38l17.59,23.18,31.36-13Z"/>
  </g>
  <path class="cls-2" d="M281.09,447.03l-149.19,12.53,4.44-111.39c8.76-2.6,21.75-6.81,31.56-8.56,1.33-.23,11.95-.58,13.3-.8,16.48-2.69,21.95-7.69,36.88-7.37,3.07.06,45.09-10.36,48.08-10.23l14.93,125.83Z"/>
  <path class="cls-2" d="M188.31,374.27c-18.62,0-35.97-2.45-51.82-7.34-23.12-7.13-42.57-19.22-57.79-35.92-30.77-33.76-41.33-83.08-29.72-138.87l48.95,10.18c-8.25,39.67-1.96,73.41,17.72,95,16.21,17.79,41.04,26.95,72.52,26.95,6.59,0,13.47-.4,20.63-1.21,25.16-2.84,42.31-11.92,52.4-27.74,12.39-19.41,12.76-46.47,10.88-65.76-2.23-22.91-8.14-40.82-8.2-40.99l47.38-15.97c.31.91,7.54,22.53,10.45,50.78,4.11,39.94-2.03,73.14-18.25,98.66-18.46,29.05-48.42,46.11-89.05,50.7-8.95,1.01-17.66,1.52-26.11,1.52Z"/>
  <g>
    <rect class="cls-1" x="5.83" y="13.41" width="347.29" height="161.9" transform="translate(-6.87 14.42) rotate(-4.51)"/>
    <path class="cls-3" d="M249.81,46.74h0c-3.39,3.98-2.92,9.95,1.05,13.35l15.08,12.87c2.91,2.49,1.37,7.26-2.45,7.56l-204.73,16.16c-5.21.41-9.1,4.97-8.69,10.18h0c.41,5.21,4.97,9.1,10.18,8.69l204.73-16.16c3.82-.3,6.1,4.17,3.61,7.08l-12.87,15.08c-3.39,3.98-2.92,9.95,1.05,13.35h0c3.98,3.39,9.95,2.92,13.35-1.05l34.45-40.36c3.39-3.98,2.92-9.95-1.05-13.35l-40.36-34.45c-3.98-3.39-9.95-2.92-13.35,1.05Z"/>
  </g>
  <rect class="cls-3" x="153.27" y="250" width="68.51" height="16.28" rx="6.1" ry="6.1" transform="translate(-31.33 25.97) rotate(-7.31)"/>
  <path class="cls-3" d="M160.08,259.37c-1.92-15,8.68-28.72,23.68-30.65,15-1.92,28.72,8.68,30.65,23.68"/>
  <path class="cls-2" d="M210.66,764.45c0-14.14-11.47-25.61-25.61-25.61-14.14,0-25.61,11.47-25.61,25.61"/>
  <polygon class="cls-2" points="170.34 743.49 138.43 764.45 170.34 764.45 170.34 743.49"/>
  <path class="cls-2" d="M314.96,764.45c0-14.14-11.47-25.61-25.61-25.61-14.14,0-25.61,11.47-25.61,25.61"/>
  <polygon class="cls-2" points="274.64 743.49 242.73 764.45 274.64 764.45 274.64 743.49"/>
</svg>