<?xml version="1.0" encoding="UTF-8"?><svg id="Layer_1" xmlns="http://www.w3.org/2000/svg" viewBox="0 0 430.3 370.01"><defs><style>.cls-1{fill:#eac6fb;}.cls-2{fill:#ff4f00;}.cls-3{fill:#955eff;}</style></defs><path class="cls-1" d="m156.36,72.13v96.16c-11.96,4.35-22.53,10.03-31.35,16.73-7.72-5.87-14.05-12.49-18.66-19.65-5.68-8.78-8.78-18.36-8.78-28.43,0-27.71,23.62-51.9,58.79-64.81Z"/><polygon class="cls-1" points="430.3 136.94 430.3 233.08 215.17 370.02 215.17 273.88 430.3 136.94"/><polygon class="cls-3" points="0 136.93 0 233.07 215.17 370.01 215.17 273.87 0 136.93"/><path class="cls-3" d="m215.19,62.09h0c-21.43.01-41.53,3.65-58.82,10.04v96.16c17.3-6.44,37.37-10.07,58.83-10.07h0c36.15-.01,68.52,10.4,90.1,26.79,7.72-5.87,14.08-12.49,18.7-19.65,5.68-8.78,8.78-18.36,8.78-28.43,0-41.34-52.66-74.85-117.59-74.85Z"/><g><g><path class="cls-3" d="m156.44,91.85v140.58c-7.05-2.22-11.87-7.36-10.89-12.94l-.1-16.8c-2.13-1.93-5.03-3.5-8.71-4.43-8.97-2.15-13.06-7.79-12.23-13.15v-45.93c-.83-5.36,3.27-11.01,12.23-13.15,3.68-.93,6.58-2.5,8.71-4.43l.1-16.8c-.98-5.58,3.84-10.72,10.89-12.94Z"/><path class="cls-1" d="m305.9,186.39c0,4.93-4.1,9.87-12.34,11.87-3.68.93-6.64,2.5-8.76,4.43l-.1,16.8c1.04,5.58-3.84,10.72-10.89,12.94V91.85c7.05,2.22,11.92,7.36,10.89,12.94l.1,16.8c2.13,1.93,5.08,3.5,8.76,4.43,8.97,2.15,13.01,7.79,12.23,13.15v45.93c.05.43.1.86.1,1.29Z"/><path class="cls-1" d="m178.89,93.14v138.01c-2.28.07-4.61.43-6.79,1.14-5.5,1.79-11.04,1.57-15.66.14V91.85c2.33-.72,4.92-1.14,7.62-1.14s5.34.43,8.04,1.29c2.18.71,4.51,1.07,6.79,1.14Z"/><path class="cls-3" d="m215.12,76.55v171.18c-7.31,0-14.62-2.79-17.52-8.29-2.7-5.22-9.9-8.37-17.47-8.37-.41,0-.83,0-1.24.07V93.14c.41.07.83.07,1.24.07,7.57,0,14.77-3.15,17.47-8.29,2.9-5.57,10.21-8.36,17.52-8.36Z"/><path class="cls-3" d="m273.81,91.85v140.58c-4.61,1.43-10.16,1.57-15.6-.14-2.23-.72-4.51-1.07-6.84-1.14V93.14c2.33-.07,4.61-.43,6.84-1.14,5.44-1.72,10.99-1.57,15.6-.14Z"/><path class="cls-1" d="m251.36,93.14v138.01c-7.98-.43-15.81,2.79-18.71,8.29-2.9,5.5-10.21,8.29-17.52,8.29V76.55c7.31,0,14.62,2.79,17.52,8.36,2.9,5.43,10.73,8.65,18.71,8.22Z"/></g><path class="cls-2" d="m172.1,92.04h0c9.96,3.2,21.82-.12,25.52-7.14h0c5.87-11.14,29.19-11.14,35.06,0h0c3.69,7.02,15.56,10.33,25.52,7.14h0c15.81-5.08,32.31,6.06,24.79,16.74h0c-4.73,6.72.18,14.74,10.57,17.23h0c16.5,3.96,16.5,19.72,0,23.68h0c-10.39,2.49-15.3,10.51-10.57,17.23h0c7.52,10.68-8.98,21.82-24.79,16.74h0c-9.96-3.2-21.82.12-25.52,7.14h0c-5.87,11.14-29.19,11.14-35.06,0h0c-3.69-7.02-15.56-10.33-25.52-7.14h0c-15.81,5.08-32.31-6.06-24.79-16.74h0c4.73-6.72-.18-14.74-10.57-17.23h0c-16.5-3.96-16.5-19.72,0-23.68h0c10.39-2.49,15.3-10.51,10.57-17.23h0c-7.52-10.68,8.98-21.82,24.79-16.74Z"/></g><path class="cls-2" d="m215.19,0L0,136.93l75.53,48.08,30.85,19.61,108.8,69.24,108.77-69.24,30.85-19.61,75.49-48.08L215.19,0Zm90.1,185.01c-21.58,16.36-53.95,26.77-90.1,26.77s-68.6-10.41-90.18-26.77c-7.72-5.87-14.05-12.49-18.66-19.65-5.68-8.78-8.78-18.36-8.78-28.43,0-41.34,52.62-74.85,117.63-74.85s117.59,33.5,117.59,74.85c0,10.07-3.1,19.65-8.78,28.43-4.62,7.16-10.98,13.78-18.7,19.65Z"/></svg>