<?xml version="1.0" encoding="UTF-8"?>
<svg id="Layer_1" data-name="Layer 1" xmlns="http://www.w3.org/2000/svg" viewBox="0 0 356.11 657.35">
  <defs>
    <style>
      .cls-1 {
        fill: #ff4f00;
      }

      .cls-2 {
        fill: #0b0426;
      }

      .cls-3 {
        fill: #eac6fb;
      }
    </style>
  </defs>
  <ellipse class="cls-2" cx="178.05" cy="545.66" rx="178.05" ry="111.69"/>
  <path class="cls-3" d="M339.66,525.52v.18c-.75,51.09-72.31,92.38-160.45,92.38s-159.71-41.28-160.46-92.38v-.1c.04-1.93.11-3.86.22-5.77,0-.03,0-.07.01-.11,4.49-47.77,70.92-85.96,153.46-87.95v16.18c0,5.69.49,16.59-11.53,23.37-11.29,6.36-30.51,15.06-42.68,25.07-.78.63-1.54,1.27-2.25,1.93-7.31,6.64-11.54,14.51-11.54,22.93,0,23.72,33.47,42.93,74.75,42.93s74.77-19.22,74.77-42.93c0-8.43-4.23-16.31-11.56-22.93-.36-.35-.75-.68-1.15-1.01-.39-.34-.78-.67-1.19-1.01-12.17-9.96-31.32-18.64-42.58-24.99-12.02-6.78-11.54-17.68-11.54-23.37v-16.18c82.48,1.97,148.91,40.12,153.48,87.85v.1c.13,1.93.2,3.86.24,5.8Z"/>
  <path class="cls-1" d="M253.96,521.25c0,23.72-33.47,42.93-74.77,42.93s-74.75-19.22-74.75-42.93c0-8.43,4.23-16.3,11.54-22.93.71-.66,1.47-1.3,2.25-1.93,12.17-10.01,31.39-18.71,42.68-25.07,12.02-6.78,11.53-17.68,11.53-23.37v-16.18c2.24-.06,4.5-.08,6.76-.08s4.5.03,6.74.08v16.18c0,5.69-.48,16.59,11.54,23.37,11.26,6.34,30.41,15.02,42.58,24.99.41.34.8.67,1.19,1.01.39.34.77.67,1.15,1.01,7.32,6.62,11.56,14.51,11.56,22.93Z"/>
  <path class="cls-1" d="M339.67,524.87c0,.21,0,.43-.01.64-.04-1.94-.11-3.87-.24-5.8.17,1.71.25,3.42.25,5.16Z"/>
  <path class="cls-1" d="M339.42,519.62c-4.57-47.73-70.99-85.88-153.48-87.85v-111.47c0-14.38,5.79-33.48,19.68-49.3,13.89-15.81,51.14-39.02,72.82-63.91,8.4-8.75,13.42-18.73,13.99-29.35,29.18-16.88,47.24-40.25,47.24-66.05,0,50.55-26.87,99.83-72.35,137.1-45.49,37.27-61.92,48.26-61.92,71.09s16.43,33.81,61.92,71.08c42.95,35.2,69.29,81.11,72.1,128.66Z"/>
  <path class="cls-1" d="M339.67,528.06c0-.78,0-1.58-.01-2.36"/>
  <path class="cls-1" d="M172.44,320.3v111.47c-82.54,1.99-148.98,40.18-153.46,87.95,2.77-47.59,29.12-93.52,72.1-128.75,45.49-37.27,61.92-48.26,61.92-71.08s-16.43-33.82-61.92-71.09C45.6,211.52,18.73,162.24,18.73,111.7c0,25.8,18.06,49.17,47.24,66.05.57,10.62,5.58,20.6,13.98,29.35,21.7,24.89,58.95,48.1,72.84,63.91,13.89,15.82,19.66,34.92,19.66,49.3Z"/>
  <path class="cls-2" d="M356.11,111.7c0,37.11-28.86,70-73.27,90.3-1.34,1.74-2.8,3.43-4.39,5.09-21.69,24.89-58.94,48.1-72.83,63.91-13.89,15.82-19.68,34.92-19.68,49.3v111.47c-2.23-.06-4.47-.08-6.73-.08s-4.53.02-6.77.08v-111.47c0-14.38-5.77-33.48-19.66-49.3-13.89-15.81-51.14-39.02-72.84-63.91-1.11-1.15-2.15-2.33-3.13-3.52C30.4,183.43,0,149.79,0,111.7,0,50.01,79.72,0,178.05,0s178.06,50.01,178.06,111.7Z"/>
</svg>