<?xml version="1.0" encoding="UTF-8"?>
<svg id="Layer_1" data-name="Layer 1" xmlns="http://www.w3.org/2000/svg" viewBox="0 0 490.62 651.91">
  <defs>
    <style>
      .cls-1 {
        fill: #ff4f00;
      }

      .cls-2 {
        fill: #0b0426;
      }

      .cls-3 {
        fill: #eac6fb;
      }
    </style>
  </defs>
  <g>
    <path class="cls-1" d="M371.27,616.52h.02v35.39h-.02c-65.89,0-119.31-34.15-119.31-76.27,0-10.69,3.45-20.88,9.68-30.11v.45c-.01.15-.01.31-.01.46,0,38.71,49.09,70.09,109.64,70.09Z"/>
    <path class="cls-3" d="M371.27,252.49c-9.07,0-17.66-1.15-25.35-3.21-.65-.17-1.31-.36-1.95-.55-.86-.25-1.72-.52-2.55-.79-.73-.23-1.44-.49-2.15-.74-.71-.26-1.41-.53-2.1-.8-.69-.27-1.37-.56-2.03-.84-.65-.28-1.28-.57-1.9-.86-.67-.31-1.32-.64-1.97-.98-.31-.15-.62-.31-.93-.49-1.21-.65-2.38-1.34-3.5-2.05-.28-.17-.56-.36-.82-.54-2.46-1.64-4.63-3.4-6.5-5.29-.21-.2-.42-.42-.61-.63-.2-.21-.4-.43-.59-.64-.19-.21-.39-.43-.57-.65-.18-.21-.37-.43-.54-.65-.14-.17-.28-.36-.41-.53-.39-.49-.74-.98-1.07-1.48-.14-.2-.28-.42-.42-.63-.15-.24-.31-.49-.45-.74-.13-.23-.26-.47-.4-.7-.41-.75-.77-1.52-1.09-2.31-.1-.24-.19-.49-.27-.73-.07-.18-.13-.36-.19-.54l-.18-.58-6.44-20.89c-8.62,8.3-13.66,18.35-13.66,29.19,0,16.25,11.35,30.75,29.11,40.25-2.4,28.69-9.16,97.03-29.11,169.76-10.71,39.06-30.59,73.08-30.99,102.67h.01c-.01.11-.01.2-.01.32v.15c-.01.15-.01.3-.01.46,0,38.71,49.09,70.09,109.64,70.09h.02V252.49h-.02Z"/>
    <path class="cls-1" d="M358.77,62.75l-30.87,38.86c-3.55,4.45-8.92,7.05-14.61,7.05h-26.66c-4.75.02-7.92,4.43-7.01,8.66,0,0,0,.02.01.03l.37,1.17,26.29,85.12,6.44,20.89.18.58c.06.18.12.36.19.54.08.24.17.49.27.73.32.78.68,1.56,1.09,2.31.13.23.26.47.4.7.14.25.29.5.45.74.13.21.27.43.42.63.33.51.68,1,1.07,1.48.12.17.26.36.41.53.17.22.36.44.54.65.18.22.38.44.57.65.19.21.39.43.59.64.19.21.4.43.61.63,1.87,1.88,4.05,3.65,6.5,5.29.26.18.54.37.82.54,1.12.71,2.29,1.4,3.5,2.05.3.17.62.34.93.49.65.34,1.3.66,1.97.98.62.29,1.25.58,1.9.86.66.28,1.34.57,2.03.84.69.27,1.39.54,2.1.8.71.25,1.42.51,2.15.74.83.27,1.69.54,2.55.79.64.19,1.29.38,1.95.55,7.68,2.06,16.28,3.21,25.35,3.21h.02V56.73c-4.65-.02-9.32,1.99-12.52,6.02Z"/>
    <path class="cls-2" d="M371.31,616.52h-.02v35.39h.02c65.89,0,119.31-34.15,119.31-76.27,0-10.69-3.45-20.88-9.68-30.11v.45c.01.15.01.31.01.46,0,38.71-49.09,70.09-109.64,70.09Z"/>
    <path class="cls-1" d="M480.94,545.98v-.15c0-.11,0-.2-.01-.32h.01c-.4-29.59-20.28-63.61-30.99-102.67-19.95-72.73-26.71-141.07-29.11-169.76,17.76-9.49,29.11-24,29.11-40.25,0-10.83-5.04-20.89-13.66-29.19l-6.44,20.89-.18.58c-.06.18-.12.36-.19.54-.08.24-.17.49-.27.73-.32.78-.68,1.56-1.09,2.31-.13.23-.26.47-.4.7-.14.25-.29.5-.45.74-.13.21-.27.43-.42.63-.33.51-.68,1-1.07,1.48-.12.17-.26.36-.41.53-.17.22-.36.44-.54.65-.18.22-.38.44-.57.65s-.39.43-.59.64c-.19.21-.4.43-.61.63-1.87,1.88-4.04,3.65-6.5,5.29-.26.18-.54.37-.82.54-1.12.71-2.29,1.4-3.5,2.05-.3.17-.62.34-.93.49-.65.34-1.3.66-1.97.98-.62.29-1.25.58-1.9.86-.66.28-1.34.57-2.03.84-.69.27-1.39.54-2.1.8-.71.25-1.42.51-2.15.74-.83.27-1.69.54-2.55.79-.64.19-1.3.38-1.95.55-7.68,2.06-16.28,3.21-25.35,3.21h-.02v364.03h.02c60.55,0,109.64-31.37,109.64-70.09,0-.15,0-.31-.01-.46Z"/>
    <path class="cls-2" d="M455.95,108.68h-26.66c-5.69,0-11.07-2.61-14.61-7.06l-30.87-38.86c-3.2-4.02-7.87-6.04-12.52-6.02v195.76h.02c9.07,0,17.66-1.15,25.35-3.21.66-.17,1.31-.36,1.95-.55.86-.25,1.72-.52,2.55-.79.73-.23,1.44-.49,2.15-.74.71-.26,1.41-.53,2.1-.8.69-.27,1.37-.56,2.03-.84.65-.28,1.28-.57,1.9-.86.67-.31,1.32-.64,1.97-.98.31-.15.62-.31.93-.49,1.21-.65,2.38-1.34,3.5-2.05.28-.17.56-.36.82-.54,2.46-1.64,4.63-3.4,6.5-5.29.21-.2.42-.42.61-.63.2-.21.4-.43.59-.64s.39-.43.57-.65c.18-.21.37-.43.54-.65.14-.17.28-.36.41-.53.39-.49.74-.98,1.07-1.48.14-.2.28-.42.42-.63.15-.24.31-.49.45-.74.13-.23.26-.47.4-.7.41-.75.77-1.52,1.09-2.31.1-.24.19-.49.27-.73.07-.18.13-.36.19-.54l.18-.58,6.44-20.89,26.29-85.12.37-1.17s.01-.02.01-.03c.9-4.23-2.27-8.64-7.01-8.65Z"/>
  </g>
  <g>
    <path class="cls-3" d="M122.59,383.3v33.64c-.28,0-.57,0-.85,0C54.51,416.95,0,382.33,0,339.61,0,328.34,3.79,317.64,10.62,307.98c-.01.33-.01.66-.01.99,0,41.06,49.75,74.34,111.13,74.34.28,0,.57,0,.85,0Z"/>
    <path class="cls-1" d="M122.59,140.34v242.97c-.28,0-.57,0-.85,0-61.38,0-111.13-33.28-111.13-74.34,0-.33,0-.66.01-.99.05-2.55.28-5.08.72-7.56,0-.04.01-.07.02-.11.08-.45.16-.89.25-1.33.17-.84.36-1.68.56-2.5.06-.24.12-.49.19-.73,7.17-27.83,31.01-41.49,45.96-65.81,15.44-25.11,20.09-48.11,21.38-56.81-19.24-9.31-31.82-24.75-31.82-42.22,0-10.3,4.38-19.89,11.92-27.94,11.77,22.24,35.13,37.38,62.05,37.38.24,0,.49,0,.73-.01Z"/>
    <path class="cls-3" d="M122.59,0v140.33c-.24.01-.49.01-.73.01-26.91,0-50.28-15.14-62.05-37.38-5.18-9.79-8.12-20.95-8.12-32.79C51.69,31.41,83.11,0,121.86,0,122.1,0,122.35,0,122.59,0Z"/>
    <path class="cls-1" d="M243.47,339.61c0,42.53-54.05,77.05-120.88,77.33v-33.64c60.98-.3,110.27-33.47,110.27-74.33,0-.33,0-.66-.01-.99,6.83,9.66,10.62,20.36,10.62,31.63Z"/>
    <path class="cls-2" d="M232.86,308.97c0,40.87-49.29,74.03-110.27,74.33v-242.97c26.89-.26,50.17-15.67,61.7-38.09,7.95,8.19,12.59,18.05,12.59,28.66,0,17.84-13.11,33.56-33.04,42.8,1.41,9.11,6.2,31.66,21.3,56.23,14.95,24.32,38.79,37.98,45.96,65.81.07.24.13.49.19.73.2.82.39,1.66.56,2.5.09.44.17.88.25,1.33.01.04.02.07.02.11.44,2.48.67,5.01.72,7.56.01.33.01.66.01.99Z"/>
    <path class="cls-1" d="M192.04,70.18c0,11.56-2.79,22.45-7.74,32.07-11.54,22.42-34.81,37.83-61.7,38.09V0c38.42.39,69.45,31.65,69.45,70.17Z"/>
  </g>
</svg>