<?xml version="1.0" encoding="UTF-8"?>
<svg id="Layer_1" data-name="Layer 1" xmlns="http://www.w3.org/2000/svg" viewBox="0 0 365.97 696.31">
  <defs>
    <style>
      .cls-1 {
        fill: #ff4f00;
      }

      .cls-2 {
        fill: #0b0426;
      }

      .cls-3 {
        fill: #f1e3fd;
      }

      .cls-4 {
        fill: #fff;
      }
    </style>
  </defs>
  <path class="cls-1" d="M45.78,632.46c-1.15,2.42-2.35,5.31-5.53,5.95-4.63.94-16.97-5.78-26.18-3.06C4.86,638.08,0,651.53,0,651.53l74.67,28.43,16.88-44.33-40.48-16.06s-3.87,9.91-5.29,12.9Z"/>
  <path class="cls-2" d="M214.65,177.62h0c-15.07-3.77-30.47,4.85-35.14,19.67l-16.61,52.77,62.84,16.98,10.62-55.4c2.93-15.31-6.6-30.24-21.72-34.02Z"/>
  <rect class="cls-2" x="166.29" y="195.63" width="22.62" height="12.44" rx="6.22" ry="6.22" transform="translate(62.35 -41.06) rotate(15.96)"/>
  <path class="cls-4" d="M164.2,218.86c1.31-4.57,6.07-7.22,10.65-5.91,4.57,1.31,7.22,6.07,5.91,10.65"/>
  <circle class="cls-1" cx="219.16" cy="218.02" r="7"/>
  <path class="cls-1" d="M189.92,179.95s1.08,18.26,14.47,25.94c12.4,7.12.41.8-3.78,26.03l47.93,10.6s4.93-12.97.29-24.58c-4.64-11.61.68-23.26-11.36-35.77-12.04-12.51-26.98-12.34-37.56-8.12-6.75,2.69-9.99,5.9-9.99,5.9Z"/>
  <circle class="cls-2" cx="206.68" cy="214.08" r="7.3"/>
  <path class="cls-1" d="M216.89,661.82c0,5.79-7.36,9.18-10.35,17.44-1.96,5.39-.51,17.06-.51,17.06h51.01s2.84-12.03-4.95-22.44c-5.33-7.13-8.65-12.05-8.65-12.05h-26.55Z"/>
  <polygon class="cls-2" points="241.88 347.83 276.57 664.35 194.35 664.35 180.74 436.19 171.47 434.57 103.36 646.78 20.52 615.85 133.98 347.83 241.88 347.83"/>
  <path class="cls-2" d="M340.94,458.78c-11.97,0-22.54-8.62-24.62-20.82-8.47-49.84-22.55-84.58-43.05-106.21-15.91-16.78-36.42-26.45-66.5-31.36-9.37-1.53-19.29-2.68-28.88-3.79-13.88-1.61-28.23-3.27-41.39-6.15-17.51-3.82-33.97-14.28-45.16-28.69-12.74-16.4-18.19-37.04-15.34-58.12,2.9-21.46,13.57-39.32,30.86-51.66,20.26-14.45,48.54-19.84,75.65-14.42,13.54,2.71,22.32,15.88,19.61,29.42-2.71,13.54-15.88,22.32-29.42,19.61-13.62-2.72-27.72-.39-36.8,6.09-5.93,4.23-9.32,10-10.35,17.64-2.54,18.79,11.92,29.15,21.62,31.27,10.72,2.34,23.23,3.79,36.48,5.33,10.16,1.18,20.67,2.39,31.19,4.11,41.02,6.7,71.12,21.41,94.72,46.31,27.54,29.05,45.88,72.3,56.06,132.23,2.31,13.61-6.85,26.52-20.46,28.83-1.42.24-2.83.36-4.22.36Z"/>
  <path class="cls-3" d="M110.95,350.65l146.59,12.25-15.17-57.55v-48.1s-13.3-4.65-47-9.65c-17.33-2.57-43.61-5.08-43.61-5.08l-13.61,50.49-27.19,57.65Z"/>
  <g>
    <rect class="cls-3" x="37.63" y="0" width="191.71" height="104.9" rx="52.45" ry="52.45" transform="translate(266.97 104.9) rotate(180)"/>
    <circle class="cls-3" cx="266.3" cy="173.61" r="11.52"/>
    <circle class="cls-3" cx="281.17" cy="135.44" r="15.13"/>
    <circle class="cls-3" cx="261.9" cy="87.43" r="19.53"/>
    <circle class="cls-1" cx="175.86" cy="52.45" r="12.95"/>
    <circle class="cls-1" cx="133.49" cy="52.45" r="12.95"/>
    <circle class="cls-1" cx="91.11" cy="52.45" r="12.95"/>
  </g>
</svg>