<?xml version="1.0" encoding="UTF-8"?>
<svg id="Layer_1" data-name="Layer 1" xmlns="http://www.w3.org/2000/svg" viewBox="0 0 1400 656.11">
  <defs>
    <style>
      .cls-1 {
        fill: #ff4f00;
      }

      .cls-2 {
        fill: #0b0426;
      }

      .cls-3 {
        fill: #f1e3fd;
      }
    </style>
  </defs>
  <path class="cls-1" d="M251.82,163.52l-3.1,56.34,65.08-1.28-1.77-29.15c-5.76,1.87-12.65-1.32-12.65-1.32l12.14-7.18-1.06-17.58c-.94-15.5-13.8-27.6-29.34-27.59-15.58,0-28.44,12.19-29.3,27.76Z"/>
  <rect class="cls-1" x="299.9" y="162.02" width="22.62" height="12.44" rx="6.22" ry="6.22" transform="translate(628 325.72) rotate(178.04)"/>
  <path class="cls-2" d="M311.47,135.58c-7.18,24.12-34.44,34.61-43.03,34.07l-18.16,27.05-4.82-31.95c-2.06-13.66,4.94-27.08,17.32-33.2h0c16.04-7.93,34.38,3.68,48.68,4.03h0Z"/>
  <circle class="cls-1" cx="267.39" cy="173.33" r="7.83"/>
  <path class="cls-2" d="M74.01,334.57l-31.18-19.96L0,382.43s13.07,9.66,25.01,0c11.94-9.66,20.4-23.82,30.63-17.41l18.36-30.45Z"/>
  <path class="cls-2" d="M295.77,617.55l4.82,36.7,79.46-10.93s-1.03-16.23-16.11-19.13c-15.08-2.91-31.36-.26-33.05-12.21l-35.11,5.57Z"/>
  <path class="cls-1" d="M297.42,346.91c-17.56,0-33.59-11.34-39.06-28.61-7.08-22.35-16.39-52.62-20.52-69.95-3.2-13.43,5.09-26.92,18.52-30.12,13.43-3.2,26.92,5.09,30.12,18.52,3.46,14.5,11.44,40.62,17.14,58.8,16.55-3.21,39.74-7.95,66.62-14.08,13.46-3.07,26.87,5.35,29.94,18.81,3.07,13.46-5.35,26.87-18.81,29.94-32.2,7.35-59.27,12.74-76.3,15.97-2.56.49-5.12.72-7.64.72Z"/>
  <polygon class="cls-3" points="312.07 331.41 357.46 611.09 292.96 618.2 238.09 326.52 312.07 331.41"/>
  <path class="cls-3" d="M275.79,350.4l-54.92,80.71c-16.39,24.09-48.49,31.65-73.91,17.39l-104.92-61.39,33.79-56.04,94.08,58.26,51.35-95.84"/>
  <polygon class="cls-2" points="313.65 211.03 321.12 341.03 203.21 339.75 248.96 215.4 313.65 211.03"/>
  <path class="cls-1" d="M250,395.22c-6.84,0-13.66-2.79-18.6-8.28-22.09-24.56-39.97-45.58-51.08-58.89-13.28-15.91-12.58-39.29,1.64-54.38,16.08-17.06,38-39.92,51.12-51.96,10.18-9.33,25.99-8.65,35.32,1.53,9.33,10.18,8.65,25.99-1.53,35.32-10.99,10.08-29.92,29.76-43.03,43.58,10.86,12.9,26.28,30.86,44.72,51.35,9.23,10.27,8.4,26.07-1.87,35.31-4.78,4.3-10.76,6.41-16.71,6.41Z"/>
  <path class="cls-3" d="M370.75,142.93c3.81-2.3,8.3-2.47,12.12-.89,0,0,0,0,0,0,1.48-2.8,3.95-5.13,7.33-6.37,5.07-1.86,10.9-.42,14.52,3.6,2.4,2.66,3.5,5.86,3.51,9.02,0,0,0,0,0,0,4.71-.09,9.33,2.28,11.89,6.65,2.76,4.7,2.21,10.68-1.05,15.06-1.8,2.42-4.05,3.8-6.4,4.57,0,0,0,0,0,0,2.46,6.05.25,13.15-5.52,16.62-5.06,3.05-11.31,2.37-15.61-1.22,0,0,0,0,0,0-1.21,1.12-2.66,2.05-4.35,2.71-5.01,1.94-10.82.64-14.54-3.24-2.01-2.1-3.15-4.58-3.57-7.11,0,0,0,0,0,0l-26.76-.04c-2.65,0-3.65-3.46-1.42-4.88l25.19-16.04h0c-3.79-6.37-1.73-14.61,4.63-18.44Z"/>
  <path class="cls-2" d="M1273.81,261.99c-10.7,0-20.6-6.92-23.9-17.68l-54.32-177.21c-4.05-13.2,3.37-27.18,16.58-31.23,13.2-4.05,27.18,3.37,31.23,16.58l54.32,177.21c4.05,13.2-3.37,27.18-16.58,31.23-2.44.75-4.91,1.1-7.34,1.1Z"/>
  <polygon class="cls-3" points="1249.91 244.31 1210.77 145.23 1266.69 128.44 1297.72 229.66 1249.91 244.31"/>
  <path class="cls-3" d="M1223.39,500.06l-26.4,25.95,56.59,56.84s14.69-12.43,7.93-26.22c-6.77-13.79-21.05-23.36-12.52-31.91l-25.6-24.67Z"/>
  <path class="cls-3" d="M1133.71,592.82l-14.18,34.2,71.43,29.1s11.46-15.58-.15-25.64c-11.61-10.06-28.42-13.73-23.91-24.93l-33.2-12.73Z"/>
  <polygon class="cls-1" points="1271.71 343.42 1188.25 614.18 1127.29 591.93 1207.59 306.2 1271.71 343.42"/>
  <path class="cls-1" d="M1283.72,306.86l66.47,71.5c19.84,21.34,20.06,54.32.51,75.92l-83.19,88.63-47.12-45.42,77.73-78.76-82.02-71.39"/>
  <polygon class="cls-3" points="1304.25 218.58 1318.54 341.03 1193.66 339.75 1239.42 215.4 1304.25 218.58"/>
  <path class="cls-2" d="M1242.27,163.52l-3.1,56.34,65.08-1.28-1.77-29.15c-.49.18-.99.32-1.52.41-4.69.8-9.14-2.36-9.94-7.04l10.94-1.86-1.06-17.58c-.94-15.5-13.8-27.6-29.34-27.59-15.58,0-28.44,12.19-29.3,27.76Z"/>
  <rect class="cls-2" x="1290.35" y="162.02" width="22.62" height="12.44" rx="6.22" ry="6.22" transform="translate(2608.32 291.79) rotate(178.04)"/>
  <path class="cls-3" d="M658.08,178.64l-3.25,59.16,68.35-1.34-1.86-30.61c-2.53,1.23-9.05,1.44-13.4-2.35l12.85-6.58-1.12-18.46c-.98-16.28-14.49-28.98-30.81-28.97-16.36,0-29.87,12.81-30.77,29.15Z"/>
  <rect class="cls-3" x="708.57" y="177.06" width="23.76" height="13.06" rx="6.53" ry="6.53" transform="translate(1446.77 342.39) rotate(178.04)"/>
  <path class="cls-1" d="M719.37,165.88l-17.17,1.23-19.02,18.94s-1.55,2.29-3.94,6.81c-3.72,7.02-9.93,21.38-23.1,21.12,0,0,.91-32.55.91-40.39,0-10.1,11.13-27.27,30.17-28.17,16.88-.8,27.91,9.83,32.16,20.46Z"/>
  <path class="cls-3" d="M485.81,561.56l-28.01,26.96,11.48,11.78,7.76-2.28-1.83,8.37,38.92,37.78s17.91-7.17,10.36-24.03c-6.59-14.72-21.13-23.5-12.08-32.39l-26.6-26.2Z"/>
  <path class="cls-3" d="M691.28,555.87l-15.49,35.66,15.12,6.46,6.29-5.09,1.53,8.43,50.46,19.92s13.78-13.5.33-26.16c-11.75-11.05-28.54-13.58-23.6-25.25l-34.63-13.96Z"/>
  <path class="cls-3" d="M847.94,273.79c9.94-9.58,10.24-25.41.66-35.35-9.58-9.94-25.41-10.24-35.35-.66l6.29,28.89,28.41,7.11Z"/>
  <path class="cls-1" d="M760.14,340.12c-9.86,0-19.72-3.47-27.61-10.41-18.47-16.25-43.23-38.41-56.31-51.73l35.67-35.04c11.2,11.41,33.16,31.11,48.19,44.4,13.21-11.91,31.85-29.04,53.15-49.56l34.7,36.01c-24.96,24.05-46.37,43.56-59.94,55.7-7.92,7.08-17.89,10.63-27.86,10.63Z"/>
  <path class="cls-2" d="M685.71,364.55l-52.34,130.75c-3.73,9.33-9.4,17.76-16.64,24.73l-84.49,81.47-56.51-38.09,96.43-100.15,57.59-152.84,55.96,54.13Z"/>
  <path class="cls-2" d="M679.53,344.06l91.54,46.17c27.32,13.78,39.57,46.18,28.19,74.59l-49.61,117.63-62.96-27.54,47.83-105.91-106.81-40.39"/>
  <polygon class="cls-1" points="723.01 228.53 730.86 365.05 607.03 363.7 655.08 233.12 723.01 228.53"/>
  <path class="cls-3" d="M534.41,340.71c-1.73,13.7,7.97,26.21,21.66,27.94,1.07.14,2.12.2,3.17.2,12.41,0,23.17-9.23,24.77-21.86l-22.8-26.6-26.8,20.32Z"/>
  <path class="cls-1" d="M584.02,346.99l-49.61-6.28c4.35-34.39,8.79-63.01,11.74-80.97,3.43-20.85,21.94-35.89,43.06-34.97,16.15.7,46.71,4.58,69.02,7.41,7.27.92,13.55,1.72,18.08,2.25l-5.8,49.67c-4.78-.56-11.17-1.37-18.57-2.31-17.23-2.19-41.97-5.32-57.64-6.58-2.82,17.55-6.58,42.53-10.28,71.79Z"/>
  <circle class="cls-1" cx="645.64" cy="149.49" r="24.02"/>
  <circle class="cls-3" cx="677.88" cy="188.94" r="8.23"/>
  <path class="cls-3" d="M548.88,133.9h0c1.42,2.16,3.71,3.6,6.27,3.95l31.3,4.24c1.95.26,2.91-2.3,1.26-3.38l-26.48-17.22c-2.17-1.41-4.84-1.81-7.33-1.1h0c-5.8,1.66-8.33,8.47-5.02,13.51Z"/>
  <path class="cls-3" d="M562.06,183.09h0c2.58.16,5.11-.81,6.92-2.66l22.14-22.54c1.38-1.41-.11-3.71-1.96-3.03l-29.65,10.9c-2.43.89-4.35,2.79-5.27,5.21h0c-2.15,5.64,1.79,11.74,7.82,12.11Z"/>
  <path class="cls-3" d="M595.99,91.73h0c2.06,1.57,3.34,3.95,3.51,6.53l2.06,31.52c.13,1.97-2.5,2.74-3.46,1.02l-15.34-27.61c-1.26-2.26-1.47-4.96-.59-7.39h0c2.06-5.67,9.03-7.72,13.83-4.07Z"/>
  <path class="cls-1" d="M1292.94,144.97c-9.05,16.58-24.39,27.43-40.89,35.91-29.17,14.99-74.04,35.59-104.11,35.72-22.42.1-55.58-14.34-56.62-40.98-1.04-26.64,31.94-49.49,59.18-37.81,27.25,11.68,71.8,5.38,88.67-1.11,16.87-6.49,41.22-4.84,53.77,8.27Z"/>
  <path class="cls-2" d="M1232,237.63c-7.69,0-15.28-3.54-20.18-10.21l-37.16-50.64-47.93-76.68c-7.32-11.71-3.76-27.13,7.95-34.45,11.71-7.32,27.13-3.76,34.45,7.95l46.94,75.11,36.06,49.14c8.17,11.13,5.77,26.78-5.37,34.95-4.46,3.27-9.64,4.85-14.77,4.85Z"/>
  <polygon class="cls-3" points="1230.91 253.42 1166.89 181.94 1215.53 147.95 1271.22 223.84 1230.91 253.42"/>
  <circle class="cls-2" cx="1257.84" cy="175.62" r="7.83"/>
  <polygon class="cls-2" points="709.1 229.47 700.15 365.05 716.47 365.05 716.97 228.94 709.1 229.47"/>
  <path class="cls-3" d="M1301.73,79.14l9.86-1.56c8.23-1.3,14.68-7.75,15.98-15.98l1.56-9.86c.85-5.35,8.55-5.35,9.4,0l1.56,9.86c1.3,8.23,7.75,14.68,15.98,15.98l9.86,1.56c5.35.85,5.35,8.55,0,9.4l-9.86,1.56c-8.23,1.3-14.68,7.75-15.98,15.98l-1.56,9.86c-.85,5.35-8.55,5.35-9.4,0l-1.56-9.86c-1.3-8.23-7.75-14.68-15.98-15.98l-9.86-1.56c-5.35-.85-5.35-8.55,0-9.4Z"/>
  <path class="cls-3" d="M1397.64,23.79l-5.79-.91c-4.83-.76-8.61-4.55-9.37-9.37l-.91-5.79c-.5-3.14-5.02-3.14-5.51,0l-.91,5.79c-.76,4.83-4.55,8.61-9.37,9.37l-5.79.91c-3.14.5-3.14,5.02,0,5.51l5.79.91c4.83.76,8.61,4.55,9.37,9.37l.91,5.79c.5,3.14,5.02,3.14,5.51,0l.91-5.79c.76-4.83,4.55-8.61,9.37-9.37l5.79-.91c3.14-.5,3.14-5.02,0-5.51Z"/>
  <path class="cls-3" d="M1137.09,16.48l5.17-.82c4.31-.68,7.7-4.07,8.38-8.38l.82-5.17c.44-2.81,4.49-2.81,4.93,0l.82,5.17c.68,4.31,4.07,7.7,8.38,8.38l5.17.82c2.81.44,2.81,4.49,0,4.93l-5.17.82c-4.31.68-7.7,4.07-8.38,8.38l-.82,5.17c-.44,2.81-4.49,2.81-4.93,0l-.82-5.17c-.68-4.31-4.07-7.7-8.38-8.38l-5.17-.82c-2.81-.44-2.81-4.49,0-4.93Z"/>
</svg>