<?xml version="1.0" encoding="UTF-8"?>
<svg id="Layer_1" data-name="Layer 1" xmlns="http://www.w3.org/2000/svg" viewBox="0 0 573.31 564.24">
  <defs>
    <style>
      .cls-1 {
        fill: #ff4f00;
      }

      .cls-2 {
        fill: #0b0426;
      }

      .cls-3 {
        fill: #f1e3fd;
      }
    </style>
  </defs>
  <path class="cls-2" d="M277.55,530.13s.48,5.26,3.05,7.53c3.54,3.13,13.58.64,21.23,6.46,7.64,5.82,7.4,20.12,7.4,20.12h-30.57c-8.07,0-16.05-1.62-23.47-4.78l-1.94-.82-1.67,5.6h-17.92v-34.11h43.89Z"/>
  <path class="cls-2" d="M175.15,529.75c0,5.79,7.36,9.18,10.35,17.44,1.96,5.39.51,17.06.51,17.06h-56.13s-2.84-12.03,4.95-22.44c5.33-7.13,8.65-12.05,8.65-12.05h31.67Z"/>
  <path class="cls-1" d="M150.16,215.77l-34.7,316.51h82.22s2.7-230.36,2.7-230.36c.03-2.69,2.23-4.84,4.91-4.83h0c2.64.01,4.79,2.12,4.86,4.76l5.87,230.05h82.84s-40.81-316.13-40.81-316.13h-107.9Z"/>
  <path class="cls-2" d="M268.59,264.62l-139.21,12.25,18.22-124.55,5.21-19.79c7.58-2.25,13.38-7.47,21.87-8.98,1.15-.2,10.34-.5,11.51-.69,14.26-2.33,19-6.65,31.92-6.38,2.66.05,21.31-5.62,23.9-5.51l15.73,20.69,10.85,132.96Z"/>
  <path class="cls-1" d="M226.8,127.01l-64.77,6.46-.12-4.93-.35-14.08-.93-37.39c-.39-15.58,11.46-28.74,27-30,10-.81,19.29,3.51,25.2,10.81,2.98,3.68,5.1,8.13,6.02,13.05.08.43.15.86.21,1.3l1.56,11.02.73,5.16-8.8,1.01c.54,4.73,4.81,8.12,9.54,7.58.16-.02.31-.04.46-.07l2.55,18.06,1.7,12.02Z"/>
  <rect class="cls-1" x="208.9" y="70.82" width="22.62" height="12.44" rx="6.22" ry="6.22" transform="translate(447.75 128.52) rotate(173.47)"/>
  <path class="cls-2" d="M216.51,35.78c1.14,9.66,1.07,23.07-12.71,29.47-14.83,6.89-13.76,23.33-13.76,23.33l-7.04.86s-3.42-2.17-8.34-1.21c-1.01.2.49,7.16.49,7.16,1.08,11.68-13.57,19.06-13.57,19.06,0,0-7.21-33.38-7.94-43.85-.73-10.47,1.67-25.89,20.22-28.5,20.27-2.86,42.67-6.33,42.67-6.33Z"/>
  <circle class="cls-1" cx="175.88" cy="90.22" r="7.11"/>
  <path class="cls-3" d="M68.81,387.04l-2.56-5.24c2.41,4.94,8.37,6.99,13.31,4.58,20.44-9.97,8.96-35.72,57.31-59.31,12.92-6.3,82.6-46.34,111.77-61.06l3,6.15c2.41,4.94,8.37,6.99,13.31,4.58,4.94-2.41,6.99-8.37,4.58-13.31l-.53-1.08h0s54.32-11.04,54.32-11.04c3.44-.7,4.88-4.82,2.62-7.5l-8.03-9.58c-.83-.99-1.21-2.27-1.04-3.55l2.94-23.27c3.25,2.24,7.58,2.72,11.38.87,5.61-2.73,7.93-9.5,5.2-15.1-2.73-5.61-9.5-7.93-15.1-5.2-3.8,1.85-6.09,5.56-6.32,9.5l-20.15-12.01c-1.11-.66-1.89-1.75-2.16-3.01l-2.6-12.22c-.73-3.43-4.86-4.83-7.53-2.55l-42.13,36.01h0s-.53-1.08-.53-1.08c-2.41-4.94-8.37-6.99-13.31-4.58-4.94,2.41-6.99,8.37-4.58,13.31l3,6.15c-29.55,13.92-104.01,44.19-116.93,50.49-48.35,23.59-61.57-1.31-82.02,8.66-4.94,2.41-6.99,8.37-4.58,13.31l-2.56-5.24c-2.41-4.94-8.37-6.99-13.31-4.58h0c-4.94,2.41-6.99,8.37-4.58,13.31l49.91,102.32c2.41,4.94,8.37,6.99,13.31,4.58h0c4.94-2.41,6.99-8.37,4.58-13.31Z"/>
  <g>
    <path class="cls-1" d="M456.1,543.73h-113.85c-5.5,0-9.95,4.46-9.95,9.95h0c0,5.5,4.46,9.95,9.95,9.95h113.85c5.5,0,9.95-4.46,9.95-9.95h0c0-5.5-4.46-9.95-9.95-9.95Z"/>
    <path class="cls-1" d="M344.7,376.84h16.65c-.05,101.3-17.61,126.34-18.22,156.04,0,.12-.02.23-.02.34v2.46c0,4.45,3.61,8.06,8.06,8.06h94.76c5.13,0,9.28-4.15,9.28-9.28,0-.59-.06-1.17-.17-1.73-.67-29.63-18.16-54.76-18.21-155.88h16.8c5.13,0,9.29-4.16,9.29-9.29,0-4.59-3.33-8.39-7.7-9.14v-35.65c0-2.39-1.93-4.32-4.32-4.32h-14.45c-2.39,0-4.32,1.93-4.32,4.32v12.42h-9.03v-12.42c0-2.39-1.93-4.32-4.32-4.32h-39.24c-2.39,0-4.32,1.93-4.32,4.32v12.42h-9.03v-12.42c0-2.39-1.93-4.32-4.32-4.32h-14.45c-2.39,0-4.32,1.93-4.32,4.32v35.65c-4.37.75-7.7,4.55-7.7,9.14,0,5.13,4.16,9.29,9.29,9.29Z"/>
  </g>
  <g>
    <path class="cls-1" d="M111.46,317.85c4.03,9.55,13.29,15.29,23.05,15.29,3.24,0,6.53-.63,9.7-1.97,12.72-5.36,18.69-20.03,13.32-32.75l-28.16-3.81-17.92,23.23Z"/>
    <path class="cls-1" d="M308.82,6.14c-10.42-9.06-26.21-7.96-35.27,2.45-9.06,10.42-7.96,26.21,2.45,35.27l32.82-3.71V6.14Z"/>
  </g>
  <path class="cls-2" d="M111.46,317.85c-12.37-29.34-19.29-56.97-20.57-82.14-1.32-25.93,3.32-48.69,13.79-67.62,14.6-26.42,40.36-43.86,72.52-49.11,6.2-1.01,13.58-1.86,21.41-2.75,22.25-2.54,52.73-6.03,70.88-15.53,10.24-5.36,16.89-15.06,18.25-26.62,1.35-11.54-2.92-22.56-11.73-30.22l32.82-37.72c21.15,18.4,31.83,45.98,28.57,73.77-3.26,27.8-19.97,52.13-44.71,65.08-26.4,13.83-62.23,17.92-88.39,20.91-7.52.86-14.01,1.6-19.03,2.42-17.2,2.81-29.58,10.87-36.82,23.96-12.86,23.26-9.55,61.95,9.09,106.15l-46.07,19.42Z"/>
  <path class="cls-2" d="M563.43,543.87h-5.79c5.46,0,9.88-4.42,9.88-9.88,0-12.06-18.63-21.4-27.97-37.03-7.63-12.77-11.55-29.28-11.55-58.71h8.3c5.57,0,10.24-4.5,10.14-10.07-.1-5.37-4.49-9.69-9.88-9.69h-9.94c10.7-6.77,17.67-18.89,17.16-32.6-.72-19.02-16.09-34.55-35.11-35.43-21.17-.98-38.64,15.89-38.64,36.85,0,13.13,6.86,24.64,17.19,31.18h-9.68c-5.54,0-10.24,4.53-10.14,10.07.1,5.37,4.48,9.69,9.88,9.69h8.56c0,29.42-3.92,45.94-11.55,58.71-9.34,15.63-27.97,24.97-27.97,37.03,0,5.46,4.42,9.88,9.88,9.88h-5.79c-5.46,0-9.88,4.42-9.88,9.88h0c0,5.46,4.42,9.88,9.88,9.88h113.03c5.46,0,9.88-4.42,9.88-9.88h0c0-5.46-4.42-9.88-9.88-9.88Z"/>
</svg>