<?xml version="1.0" encoding="UTF-8"?>
<svg id="Layer_1" data-name="Layer 1" xmlns="http://www.w3.org/2000/svg" viewBox="0 0 610.91 587.46">
  <defs>
    <style>
      .cls-1 {
        fill: #ff4f00;
      }

      .cls-2 {
        fill: #0b0426;
      }

      .cls-3 {
        fill: #eac6fb;
      }
    </style>
  </defs>
  <g>
    <polygon class="cls-1" points="101.82 271.33 0 336.14 101.82 400.94 203.64 336.14 101.82 271.33"/>
    <polygon class="cls-2" points="203.64 206.53 101.82 271.34 203.64 336.14 305.45 271.34 203.64 206.53"/>
    <polygon class="cls-1" points="305.45 141.73 203.64 206.53 305.45 271.33 407.27 206.53 305.45 141.73"/>
    <polygon class="cls-2" points="203.64 336.14 101.82 400.94 203.64 465.74 305.45 400.94 203.64 336.14"/>
    <polygon class="cls-1" points="305.45 271.33 203.64 336.14 305.45 400.94 407.27 336.14 305.45 271.33"/>
    <polygon class="cls-2" points="407.27 206.53 305.45 271.34 407.27 336.14 509.09 271.34 407.27 206.53"/>
    <polygon class="cls-1" points="305.45 400.94 203.64 465.74 305.45 530.55 407.27 465.74 305.45 400.94"/>
    <polygon class="cls-2" points="407.27 336.14 305.45 400.94 407.27 465.74 509.09 400.94 407.27 336.14"/>
    <polygon class="cls-1" points="509.09 271.33 407.27 336.14 509.09 400.94 610.91 336.14 509.09 271.33"/>
  </g>
  <polygon class="cls-1" points="509.09 400.94 509.09 457.85 407.27 522.65 407.27 465.74 509.09 400.94"/>
  <polygon class="cls-2" points="610.91 336.14 509.09 400.94 509.09 457.85 610.91 393.05 610.91 336.14"/>
  <polygon class="cls-2" points="407.27 465.74 305.45 530.55 305.45 587.46 407.27 522.65 407.27 465.74"/>
  <polygon class="cls-3" points="0 336.14 0 393.05 101.82 457.85 101.82 400.94 0 336.14"/>
  <polygon class="cls-3" points="203.64 465.74 203.64 522.65 305.45 587.45 305.45 530.54 203.64 465.74"/>
  <polygon class="cls-1" points="101.82 400.94 203.64 465.74 203.64 522.65 101.82 457.85 101.82 400.94"/>
  <g>
    <path class="cls-3" d="M204.15,279.56v20.25c-.17,0-.34,0-.51,0-40.47,0-73.28-20.84-73.28-46.56,0-6.78,2.28-13.23,6.39-19.04,0,.2,0,.4,0,.59,0,24.72,29.95,44.75,66.89,44.75.17,0,.34,0,.51,0Z"/>
    <path class="cls-1" d="M204.15,133.31v146.26c-.17,0-.34,0-.51,0-36.95,0-66.89-20.04-66.89-44.75,0-.2,0-.4,0-.59.03-1.54.17-3.06.43-4.55,0-.02,0-.04.01-.07.05-.27.1-.54.15-.8.1-.51.21-1.01.34-1.5.04-.15.07-.29.12-.44,4.31-16.75,18.67-24.97,27.67-39.61,9.29-15.12,12.1-28.96,12.87-34.2-11.58-5.6-19.16-14.9-19.16-25.41,0-6.2,2.64-11.97,7.18-16.82,7.08,13.39,21.15,22.5,37.35,22.5.15,0,.29,0,.44,0Z"/>
    <path class="cls-3" d="M204.15,48.84v84.47c-.15,0-.29,0-.44,0-16.2,0-30.27-9.12-37.35-22.5-3.12-5.89-4.89-12.61-4.89-19.74,0-23.33,18.91-42.24,42.24-42.24.15,0,.29,0,.44,0Z"/>
    <path class="cls-1" d="M276.92,253.26c0,25.6-32.54,46.38-72.77,46.55v-20.25c36.71-.18,66.38-20.15,66.38-44.75,0-.2,0-.4,0-.59,4.11,5.81,6.39,12.25,6.39,19.04Z"/>
    <path class="cls-2" d="M270.53,234.81c0,24.6-29.67,44.56-66.38,44.75v-146.26c16.19-.16,30.2-9.43,37.14-22.93,4.78,4.93,7.58,10.87,7.58,17.25,0,10.74-7.89,20.2-19.89,25.76.85,5.48,3.73,19.06,12.82,33.85,9,14.64,23.35,22.86,27.67,39.61.04.15.08.29.12.44.12.5.23,1,.34,1.5.06.26.1.53.15.8,0,.02.01.04.01.07.26,1.49.4,3.02.43,4.55,0,.2,0,.4,0,.59Z"/>
    <path class="cls-1" d="M245.95,91.07c0,6.96-1.68,13.51-4.66,19.3-6.94,13.5-20.95,22.77-37.14,22.93V48.84c23.13.23,41.8,19.05,41.8,42.24Z"/>
  </g>
  <g>
    <path class="cls-1" d="M509.08,352.74h.01v22.3h-.01c-41.52,0-75.18-21.52-75.18-48.06,0-6.74,2.17-13.15,6.1-18.98v.28c0,.1,0,.19,0,.29,0,24.39,30.93,44.16,69.09,44.16Z"/>
    <path class="cls-3" d="M509.08,123.35c-5.71,0-11.13-.72-15.97-2.02-.41-.11-.83-.22-1.23-.35-.54-.16-1.08-.33-1.61-.5-.46-.15-.91-.31-1.36-.47-.45-.17-.89-.33-1.33-.51-.44-.17-.86-.35-1.28-.53-.41-.18-.81-.36-1.2-.54-.42-.2-.83-.4-1.24-.61-.19-.1-.39-.2-.58-.31-.76-.41-1.5-.85-2.2-1.29-.18-.11-.35-.22-.52-.34-1.55-1.03-2.92-2.15-4.1-3.33-.13-.13-.26-.26-.38-.4-.13-.13-.25-.27-.37-.4s-.24-.27-.36-.41c-.11-.13-.23-.27-.34-.41-.09-.11-.18-.22-.26-.33-.24-.31-.47-.61-.67-.94-.09-.13-.18-.26-.26-.4-.1-.15-.19-.31-.28-.47-.08-.15-.17-.29-.25-.44-.26-.47-.49-.96-.69-1.45-.06-.15-.12-.31-.17-.46-.04-.12-.08-.22-.12-.34l-.11-.36-4.06-13.16c-5.43,5.23-8.61,11.57-8.61,18.39,0,10.24,7.15,19.38,18.34,25.36-1.51,18.08-5.77,61.14-18.34,106.97-6.75,24.61-19.28,46.05-19.53,64.7h0c0,.07,0,.13,0,.2v.1c0,.1,0,.19,0,.29,0,24.39,30.93,44.16,69.09,44.16h.01V123.35h-.01Z"/>
    <path class="cls-1" d="M501.2,3.79l-19.45,24.49c-2.23,2.81-5.62,4.44-9.21,4.44h-16.8c-2.99.01-4.99,2.79-4.42,5.46,0,0,0,.01,0,.02l.23.74,16.57,53.64,4.06,13.16.11.36c.04.12.08.22.12.34.05.15.11.31.17.46.2.49.43.98.69,1.45.08.15.17.29.25.44.09.16.19.31.28.47.08.13.17.27.26.4.21.32.43.63.67.94.08.11.17.22.26.33.11.14.22.28.34.41.12.14.24.28.36.41s.24.27.37.4c.12.13.25.27.38.4,1.18,1.19,2.55,2.3,4.1,3.33.17.12.34.23.52.34.7.45,1.44.88,2.2,1.29.19.11.39.21.58.31.41.21.82.42,1.24.61.39.19.79.37,1.2.54.42.18.85.36,1.28.53.44.17.88.34,1.33.51.45.16.9.32,1.36.47.53.17,1.06.34,1.61.5.4.12.81.24,1.23.35,4.84,1.3,10.26,2.02,15.97,2.02h.01V0c-2.93-.01-5.87,1.25-7.89,3.79Z"/>
    <path class="cls-2" d="M509.1,352.74h-.01v22.3h.01c41.52,0,75.18-21.52,75.18-48.06,0-6.74-2.17-13.15-6.1-18.98v.28c0,.1,0,.19,0,.29,0,24.39-30.93,44.16-69.09,44.16Z"/>
    <path class="cls-1" d="M578.18,308.28v-.1c0-.07,0-.13,0-.2h0c-.25-18.64-12.78-40.08-19.53-64.7-12.57-45.83-16.83-88.89-18.34-106.97,11.19-5.98,18.34-15.12,18.34-25.36,0-6.83-3.18-13.16-8.61-18.39l-4.06,13.16-.11.36c-.04.12-.08.22-.12.34-.05.15-.11.31-.17.46-.2.49-.43.98-.69,1.45-.08.15-.17.29-.25.44-.09.16-.19.31-.28.47-.08.13-.17.27-.26.4-.21.32-.43.63-.67.94-.08.11-.17.22-.26.33-.11.14-.22.28-.34.41-.12.14-.24.28-.36.41s-.24.27-.37.4c-.12.13-.25.27-.38.4-1.18,1.19-2.55,2.3-4.1,3.33-.17.12-.34.23-.52.34-.7.45-1.44.88-2.2,1.29-.19.11-.39.21-.58.31-.41.21-.82.42-1.24.61-.39.19-.79.37-1.2.54-.42.18-.85.36-1.28.53-.44.17-.88.34-1.33.51-.45.16-.9.32-1.36.47-.53.17-1.06.34-1.61.5-.4.12-.82.24-1.23.35-4.84,1.3-10.26,2.02-15.97,2.02h-.01v229.38h.01c38.16,0,69.09-19.77,69.09-44.16,0-.1,0-.19,0-.29Z"/>
    <path class="cls-2" d="M562.44,32.73h-16.8c-3.59,0-6.97-1.65-9.21-4.45l-19.45-24.49C514.96,1.25,512.02-.01,509.09,0v123.35h.01c5.71,0,11.13-.72,15.97-2.02.42-.11.83-.22,1.23-.35.54-.16,1.08-.33,1.61-.5.46-.15.91-.31,1.36-.47.45-.17.89-.33,1.33-.51.44-.17.86-.35,1.28-.53.41-.18.81-.36,1.2-.54.42-.2.83-.4,1.24-.61.19-.1.39-.2.58-.31.76-.41,1.5-.85,2.2-1.29.18-.11.35-.22.52-.34,1.55-1.03,2.92-2.15,4.1-3.33.13-.13.26-.26.38-.4.13-.13.25-.27.37-.4s.24-.27.36-.41c.12-.13.23-.27.34-.41.09-.11.18-.22.26-.33.24-.31.47-.61.67-.94.09-.13.18-.26.26-.4.1-.15.19-.31.28-.47.08-.15.17-.29.25-.44.26-.47.49-.96.69-1.45.06-.15.12-.31.17-.46.04-.12.08-.22.12-.34l.11-.36,4.06-13.16,16.57-53.64.23-.74s0-.01,0-.02c.57-2.66-1.43-5.44-4.42-5.45Z"/>
  </g>
</svg>