<svg id="Layer_1" data-name="Layer 1" xmlns="http://www.w3.org/2000/svg" viewBox="0 0 430.3 370.01"><defs><style>.cls-1{fill:#eac6fb;}.cls-2{fill:#955eff;}.cls-3{fill:#ff4f00;}</style></defs><path class="cls-1" d="M202.38,31,53.83,119.69c1.31.77,42.64,45.64,43.82,46.5,8.6,6.19,33.46-.35,33.55,8.13a2.15,2.15,0,0,1,0,.44c0,.12,0,.24,0,.37a44.26,44.26,0,0,0,9.12-4.61A28.52,28.52,0,0,0,151,158.11c6.73-16.05,29.29-23,50.13-19.59a54.6,54.6,0,0,1,23.07,9.22,42.74,42.74,0,0,1,5.19,4.41,43.27,43.27,0,0,0,5,4.22A56.36,56.36,0,0,0,259.5,166a58.75,58.75,0,0,0,7.14.59c12.92.32,24,4.25,32.14,10.08.67.49,1.3,1,1.93,1.51a21.57,21.57,0,0,0-.4-13,27.57,27.57,0,0,0-1.52-3.66c-3.94-7.81,46.57-49.94,51.13-57Z"/><polygon class="cls-1" points="430.3 136.92 430.3 233.07 215.17 370.01 215.17 273.87 430.3 136.92"/><polygon class="cls-2" points="0 136.92 0 233.06 215.17 370 215.17 273.86 0 136.92"/><path class="cls-2" d="M246.24,68.38v94.26A60.66,60.66,0,0,0,259.5,166a58.75,58.75,0,0,0,7.14.59c12.92.32,24,4.25,32.14,10.08.67.49,1.3,1,1.93,1.51a21.57,21.57,0,0,0-.4-13,27.57,27.57,0,0,0-1.52-3.66c-2.15-4.27,12-18.81,26-32.25l1.89-30.44L298.58,79l-21.2-10.58Z"/><path class="cls-3" d="M430.3,136.92,215.14,0,0,136.92l215.29,137Zm-195.92-65a56.59,56.59,0,0,0,25.12,9.63,60.83,60.83,0,0,0,7.14.59c12.92.31,24,4.24,32.14,10.08,15,10.77,19.49,28,5.58,40.94-8.47,7.88-10.55,18.52-5.57,28.39a27.57,27.57,0,0,1,1.52,3.66c2.93,8.66.45,16.83-5.59,23.2a31.62,31.62,0,0,1-5.58,4.79c-8.32,5.65-20.15,8.86-33,7.9A60.37,60.37,0,0,1,243.72,199a63.1,63.1,0,0,0-21.27-2,53.87,53.87,0,0,0-17.1,4c-.82.34-1.61.7-2.38,1.08-18.83,9.37-43.31,5.69-58.23-5.06-8-5.73-13.24-13.47-13.54-22.32a2.15,2.15,0,0,0,0-.44c-.09-8.48-5.11-16.7-13.71-22.89a44.23,44.23,0,0,0-5.86-3.6,2,2,0,0,1-.4-.24c-23.78-12.66-24.71-35.33-6.92-47.44a47,47,0,0,1,18.08-7,47.27,47.27,0,0,0,18-7.07A28.47,28.47,0,0,0,151,73.64c6.73-16,29.29-23,50.13-19.58a54.6,54.6,0,0,1,23.07,9.22,43.58,43.58,0,0,1,5.19,4.4A43.34,43.34,0,0,0,234.38,71.91Z"/></svg>